<svg width="507" height="380" viewBox="0 0 507 380" fill="none" xmlns="http://www.w3.org/2000/svg">
<path d="M89.0087 158.878H87.1087C86.9407 158.878 86.7796 158.811 86.6608 158.692C86.5421 158.574 86.4753 158.413 86.4753 158.245C86.4786 158.078 86.5464 157.918 86.6644 157.8C86.7825 157.682 86.9417 157.615 87.1087 157.611H89.0087C89.1766 157.611 89.3377 157.678 89.4565 157.797C89.5753 157.916 89.642 158.077 89.642 158.245C89.642 158.413 89.5753 158.574 89.4565 158.692C89.3377 158.811 89.1766 158.878 89.0087 158.878Z" fill="#D1D3D4"/>
<path d="M366.725 158.878H362.925C362.757 158.878 362.596 158.811 362.478 158.692C362.359 158.574 362.292 158.413 362.292 158.245C362.295 158.078 362.363 157.918 362.481 157.8C362.599 157.682 362.758 157.615 362.925 157.611H366.725C366.892 157.615 367.052 157.682 367.17 157.8C367.288 157.918 367.355 158.078 367.359 158.245C367.359 158.413 367.292 158.574 367.173 158.692C367.055 158.811 366.893 158.878 366.725 158.878ZM359.214 158.878H355.414C355.246 158.878 355.085 158.811 354.966 158.692C354.847 158.574 354.781 158.413 354.781 158.245C354.781 158.077 354.847 157.916 354.966 157.797C355.085 157.678 355.246 157.611 355.414 157.611H359.214C359.382 157.611 359.543 157.678 359.662 157.797C359.781 157.916 359.847 158.077 359.847 158.245C359.847 158.413 359.781 158.574 359.662 158.692C359.543 158.811 359.382 158.878 359.214 158.878ZM351.715 158.878H347.915C347.747 158.878 347.586 158.811 347.468 158.692C347.349 158.574 347.282 158.413 347.282 158.245C347.285 158.078 347.353 157.918 347.471 157.8C347.589 157.682 347.748 157.615 347.915 157.611H351.715C351.882 157.615 352.042 157.682 352.16 157.8C352.278 157.918 352.346 158.078 352.349 158.245C352.349 158.413 352.282 158.574 352.163 158.692C352.044 158.811 351.883 158.878 351.715 158.878ZM344.204 158.878H340.404C340.236 158.878 340.075 158.811 339.956 158.692C339.837 158.574 339.771 158.413 339.771 158.245C339.771 158.077 339.837 157.916 339.956 157.797C340.075 157.678 340.236 157.611 340.404 157.611H344.204C344.372 157.611 344.533 157.678 344.652 157.797C344.771 157.916 344.837 158.077 344.837 158.245C344.837 158.413 344.771 158.574 344.652 158.692C344.533 158.811 344.372 158.878 344.204 158.878ZM336.693 158.878H332.893C332.725 158.878 332.564 158.811 332.445 158.692C332.326 158.574 332.259 158.413 332.259 158.245C332.263 158.078 332.33 157.918 332.449 157.8C332.567 157.682 332.726 157.615 332.893 157.611H336.693C336.861 157.611 337.022 157.678 337.141 157.797C337.259 157.916 337.326 158.077 337.326 158.245C337.326 158.413 337.259 158.574 337.141 158.692C337.022 158.811 336.861 158.878 336.693 158.878ZM329.194 158.878H325.394C325.226 158.878 325.065 158.811 324.946 158.692C324.827 158.574 324.761 158.413 324.761 158.245C324.761 158.077 324.827 157.916 324.946 157.797C325.065 157.678 325.226 157.611 325.394 157.611H329.194C329.362 157.611 329.523 157.678 329.642 157.797C329.761 157.916 329.827 158.077 329.827 158.245C329.827 158.413 329.761 158.574 329.642 158.692C329.523 158.811 329.362 158.878 329.194 158.878ZM321.683 158.878H317.883C317.715 158.878 317.554 158.811 317.435 158.692C317.316 158.574 317.249 158.413 317.249 158.245C317.249 158.077 317.316 157.916 317.435 157.797C317.554 157.678 317.715 157.611 317.883 157.611H321.683C321.851 157.611 322.012 157.678 322.131 157.797C322.249 157.916 322.316 158.077 322.316 158.245C322.317 158.404 322.257 158.558 322.149 158.675C322.041 158.793 321.892 158.865 321.733 158.878H321.683ZM314.184 158.878H310.384C310.216 158.878 310.055 158.811 309.936 158.692C309.817 158.574 309.751 158.413 309.751 158.245C309.751 158.077 309.817 157.916 309.936 157.797C310.055 157.678 310.216 157.611 310.384 157.611H314.184C314.351 157.615 314.51 157.682 314.628 157.8C314.746 157.918 314.814 158.078 314.817 158.245C314.818 158.332 314.8 158.419 314.765 158.499C314.73 158.58 314.679 158.652 314.614 158.711C314.55 158.771 314.474 158.816 314.391 158.845C314.309 158.874 314.221 158.885 314.133 158.878H314.184ZM306.673 158.878H302.873C302.705 158.878 302.544 158.811 302.425 158.692C302.306 158.574 302.239 158.413 302.239 158.245C302.239 158.077 302.306 157.916 302.425 157.797C302.544 157.678 302.705 157.611 302.873 157.611H306.673C306.841 157.611 307.002 157.678 307.121 157.797C307.239 157.916 307.306 158.077 307.306 158.245C307.306 158.413 307.239 158.574 307.121 158.692C307.002 158.811 306.841 158.878 306.673 158.878ZM299.174 158.878H295.374C295.206 158.878 295.045 158.811 294.926 158.692C294.807 158.574 294.741 158.413 294.741 158.245C294.744 158.078 294.812 157.918 294.93 157.8C295.048 157.682 295.207 157.615 295.374 157.611H299.174C299.341 157.615 299.5 157.682 299.618 157.8C299.736 157.918 299.804 158.078 299.807 158.245C299.807 158.413 299.741 158.574 299.622 158.692C299.503 158.811 299.342 158.878 299.174 158.878ZM291.663 158.878H287.863C287.695 158.878 287.534 158.811 287.415 158.692C287.296 158.574 287.229 158.413 287.229 158.245C287.229 158.077 287.296 157.916 287.415 157.797C287.534 157.678 287.695 157.611 287.863 157.611H291.663C291.831 157.611 291.992 157.678 292.111 157.797C292.229 157.916 292.296 158.077 292.296 158.245C292.296 158.413 292.229 158.574 292.111 158.692C291.992 158.811 291.831 158.878 291.663 158.878ZM284.164 158.878H280.364C280.196 158.878 280.035 158.811 279.916 158.692C279.797 158.574 279.731 158.413 279.731 158.245C279.734 158.078 279.802 157.918 279.92 157.8C280.038 157.682 280.197 157.615 280.364 157.611H284.164C284.331 157.615 284.49 157.682 284.608 157.8C284.726 157.918 284.794 158.078 284.797 158.245C284.797 158.413 284.731 158.574 284.612 158.692C284.493 158.811 284.332 158.878 284.164 158.878ZM276.653 158.878H272.853C272.685 158.878 272.524 158.811 272.405 158.692C272.286 158.574 272.219 158.413 272.219 158.245C272.219 158.077 272.286 157.916 272.405 157.797C272.524 157.678 272.685 157.611 272.853 157.611H276.653C276.821 157.611 276.982 157.678 277.101 157.797C277.219 157.916 277.286 158.077 277.286 158.245C277.286 158.413 277.219 158.574 277.101 158.692C276.982 158.811 276.821 158.878 276.653 158.878ZM269.141 158.878H265.341C265.173 158.878 265.012 158.811 264.894 158.692C264.775 158.574 264.708 158.413 264.708 158.245C264.711 158.078 264.779 157.918 264.897 157.8C265.015 157.682 265.174 157.615 265.341 157.611H269.141C269.309 157.611 269.47 157.678 269.589 157.797C269.708 157.916 269.775 158.077 269.775 158.245C269.775 158.413 269.708 158.574 269.589 158.692C269.47 158.811 269.309 158.878 269.141 158.878ZM261.643 158.878H257.843C257.675 158.878 257.514 158.811 257.395 158.692C257.276 158.574 257.209 158.413 257.209 158.245C257.209 158.077 257.276 157.916 257.395 157.797C257.514 157.678 257.675 157.611 257.843 157.611H261.643C261.811 157.611 261.972 157.678 262.091 157.797C262.209 157.916 262.276 158.077 262.276 158.245C262.276 158.413 262.209 158.574 262.091 158.692C261.972 158.811 261.811 158.878 261.643 158.878ZM254.131 158.878H250.331C250.163 158.878 250.002 158.811 249.884 158.692C249.765 158.574 249.698 158.413 249.698 158.245C249.698 158.077 249.765 157.916 249.884 157.797C250.002 157.678 250.163 157.611 250.331 157.611H254.131C254.299 157.611 254.46 157.678 254.579 157.797C254.698 157.916 254.765 158.077 254.765 158.245C254.765 158.413 254.698 158.574 254.579 158.692C254.46 158.811 254.299 158.878 254.131 158.878ZM246.633 158.878H242.833C242.665 158.878 242.504 158.811 242.385 158.692C242.266 158.574 242.199 158.413 242.199 158.245C242.199 158.077 242.266 157.916 242.385 157.797C242.504 157.678 242.665 157.611 242.833 157.611H246.633C246.8 157.615 246.959 157.682 247.077 157.8C247.195 157.918 247.263 158.078 247.266 158.245C247.266 158.413 247.199 158.574 247.081 158.692C246.962 158.811 246.801 158.878 246.633 158.878ZM239.121 158.878H235.321C235.153 158.878 234.992 158.811 234.874 158.692C234.755 158.574 234.688 158.413 234.688 158.245C234.688 158.077 234.755 157.916 234.874 157.797C234.992 157.678 235.153 157.611 235.321 157.611H239.121C239.289 157.611 239.45 157.678 239.569 157.797C239.688 157.916 239.755 158.077 239.755 158.245C239.755 158.413 239.688 158.574 239.569 158.692C239.45 158.811 239.289 158.878 239.121 158.878ZM231.623 158.878H227.823C227.655 158.878 227.494 158.811 227.375 158.692C227.256 158.574 227.189 158.413 227.189 158.245C227.193 158.078 227.26 157.918 227.378 157.8C227.497 157.682 227.656 157.615 227.823 157.611H231.623C231.79 157.615 231.949 157.682 232.067 157.8C232.185 157.918 232.253 158.078 232.256 158.245C232.256 158.413 232.189 158.574 232.071 158.692C231.952 158.811 231.791 158.878 231.623 158.878ZM224.111 158.878H220.311C220.143 158.878 219.982 158.811 219.864 158.692C219.745 158.574 219.678 158.413 219.678 158.245C219.678 158.077 219.745 157.916 219.864 157.797C219.982 157.678 220.143 157.611 220.311 157.611H224.111C224.279 157.611 224.44 157.678 224.559 157.797C224.678 157.916 224.745 158.077 224.745 158.245C224.745 158.413 224.678 158.574 224.559 158.692C224.44 158.811 224.279 158.878 224.111 158.878ZM216.613 158.878H212.813C212.645 158.878 212.484 158.811 212.365 158.692C212.246 158.574 212.179 158.413 212.179 158.245C212.183 158.078 212.25 157.918 212.368 157.8C212.487 157.682 212.646 157.615 212.813 157.611H216.613C216.78 157.615 216.939 157.682 217.057 157.8C217.175 157.918 217.243 158.078 217.246 158.245C217.246 158.329 217.229 158.412 217.197 158.49C217.164 158.568 217.116 158.638 217.056 158.697C216.996 158.756 216.925 158.802 216.846 158.833C216.768 158.865 216.684 158.88 216.6 158.878H216.613ZM209.101 158.878H205.301C205.133 158.878 204.972 158.811 204.854 158.692C204.735 158.574 204.668 158.413 204.668 158.245C204.668 158.077 204.735 157.916 204.854 157.797C204.972 157.678 205.133 157.611 205.301 157.611H209.101C209.269 157.611 209.43 157.678 209.549 157.797C209.668 157.916 209.735 158.077 209.735 158.245C209.735 158.413 209.668 158.574 209.549 158.692C209.43 158.811 209.269 158.878 209.101 158.878ZM201.59 158.878H197.79C197.622 158.878 197.461 158.811 197.342 158.692C197.223 158.574 197.157 158.413 197.157 158.245C197.16 158.078 197.228 157.918 197.346 157.8C197.464 157.682 197.623 157.615 197.79 157.611H201.59C201.758 157.611 201.919 157.678 202.038 157.797C202.157 157.916 202.223 158.077 202.223 158.245C202.223 158.413 202.157 158.574 202.038 158.692C201.919 158.811 201.758 158.878 201.59 158.878ZM194.091 158.878H190.291C190.123 158.878 189.962 158.811 189.844 158.692C189.725 158.574 189.658 158.413 189.658 158.245C189.658 158.077 189.725 157.916 189.844 157.797C189.962 157.678 190.123 157.611 190.291 157.611H194.091C194.259 157.611 194.42 157.678 194.539 157.797C194.658 157.916 194.725 158.077 194.725 158.245C194.725 158.413 194.658 158.574 194.539 158.692C194.42 158.811 194.259 158.878 194.091 158.878ZM186.58 158.878H182.78C182.612 158.878 182.451 158.811 182.332 158.692C182.213 158.574 182.147 158.413 182.147 158.245C182.147 158.077 182.213 157.916 182.332 157.797C182.451 157.678 182.612 157.611 182.78 157.611H186.58C186.748 157.611 186.909 157.678 187.028 157.797C187.147 157.916 187.213 158.077 187.213 158.245C187.213 158.413 187.147 158.574 187.028 158.692C186.909 158.811 186.748 158.878 186.58 158.878ZM179.081 158.878H175.281C175.113 158.878 174.952 158.811 174.834 158.692C174.715 158.574 174.648 158.413 174.648 158.245C174.648 158.077 174.715 157.916 174.834 157.797C174.952 157.678 175.113 157.611 175.281 157.611H179.081C179.248 157.615 179.408 157.682 179.526 157.8C179.644 157.918 179.711 158.078 179.715 158.245C179.715 158.413 179.648 158.574 179.529 158.692C179.41 158.811 179.249 158.878 179.081 158.878ZM171.57 158.878H167.77C167.602 158.878 167.441 158.811 167.322 158.692C167.203 158.574 167.137 158.413 167.137 158.245C167.137 158.077 167.203 157.916 167.322 157.797C167.441 157.678 167.602 157.611 167.77 157.611H171.57C171.738 157.611 171.899 157.678 172.018 157.797C172.137 157.916 172.203 158.077 172.203 158.245C172.203 158.413 172.137 158.574 172.018 158.692C171.899 158.811 171.738 158.878 171.57 158.878ZM164.071 158.878H160.271C160.103 158.878 159.942 158.811 159.824 158.692C159.705 158.574 159.638 158.413 159.638 158.245C159.641 158.078 159.709 157.918 159.827 157.8C159.945 157.682 160.104 157.615 160.271 157.611H164.071C164.238 157.615 164.398 157.682 164.516 157.8C164.634 157.918 164.701 158.078 164.705 158.245C164.705 158.413 164.638 158.574 164.519 158.692C164.4 158.811 164.239 158.878 164.071 158.878ZM156.56 158.878H152.76C152.592 158.878 152.431 158.811 152.312 158.692C152.193 158.574 152.127 158.413 152.127 158.245C152.127 158.077 152.193 157.916 152.312 157.797C152.431 157.678 152.592 157.611 152.76 157.611H156.56C156.728 157.611 156.889 157.678 157.008 157.797C157.127 157.916 157.193 158.077 157.193 158.245C157.193 158.413 157.127 158.574 157.008 158.692C156.889 158.811 156.728 158.878 156.56 158.878ZM149.061 158.878H145.261C145.093 158.878 144.932 158.811 144.814 158.692C144.695 158.574 144.628 158.413 144.628 158.245C144.631 158.078 144.699 157.918 144.817 157.8C144.935 157.682 145.094 157.615 145.261 157.611H149.061C149.228 157.615 149.388 157.682 149.506 157.8C149.624 157.918 149.691 158.078 149.695 158.245C149.695 158.413 149.628 158.574 149.509 158.692C149.39 158.811 149.229 158.878 149.061 158.878ZM141.55 158.878H137.75C137.582 158.878 137.421 158.811 137.302 158.692C137.183 158.574 137.117 158.413 137.117 158.245C137.117 158.077 137.183 157.916 137.302 157.797C137.421 157.678 137.582 157.611 137.75 157.611H141.55C141.718 157.611 141.879 157.678 141.998 157.797C142.117 157.916 142.183 158.077 142.183 158.245C142.183 158.413 142.117 158.574 141.998 158.692C141.879 158.811 141.718 158.878 141.55 158.878ZM134.051 158.878H130.251C130.083 158.878 129.922 158.811 129.804 158.692C129.685 158.574 129.618 158.413 129.618 158.245C129.621 158.078 129.689 157.918 129.807 157.8C129.925 157.682 130.084 157.615 130.251 157.611H134.051C134.218 157.615 134.378 157.682 134.496 157.8C134.614 157.918 134.681 158.078 134.685 158.245C134.685 158.413 134.618 158.574 134.499 158.692C134.38 158.811 134.219 158.878 134.051 158.878ZM126.54 158.878H122.74C122.572 158.878 122.411 158.811 122.292 158.692C122.173 158.574 122.107 158.413 122.107 158.245C122.107 158.077 122.173 157.916 122.292 157.797C122.411 157.678 122.572 157.611 122.74 157.611H126.54C126.708 157.611 126.869 157.678 126.988 157.797C127.107 157.916 127.173 158.077 127.173 158.245C127.173 158.413 127.107 158.574 126.988 158.692C126.869 158.811 126.708 158.878 126.54 158.878ZM119.029 158.878H115.267C115.099 158.878 114.938 158.811 114.819 158.692C114.7 158.574 114.633 158.413 114.633 158.245C114.633 158.077 114.7 157.916 114.819 157.797C114.938 157.678 115.099 157.611 115.267 157.611H119.067C119.235 157.611 119.396 157.678 119.515 157.797C119.633 157.916 119.7 158.077 119.7 158.245C119.7 158.413 119.633 158.574 119.515 158.692C119.396 158.811 119.235 158.878 119.067 158.878H119.029ZM111.53 158.878H107.73C107.562 158.878 107.401 158.811 107.282 158.692C107.163 158.574 107.097 158.413 107.097 158.245C107.097 158.077 107.163 157.916 107.282 157.797C107.401 157.678 107.562 157.611 107.73 157.611H111.53C111.698 157.611 111.859 157.678 111.978 157.797C112.097 157.916 112.163 158.077 112.163 158.245C112.163 158.413 112.097 158.574 111.978 158.692C111.859 158.811 111.698 158.878 111.53 158.878ZM104.019 158.878H100.219C100.051 158.878 99.8896 158.811 99.7708 158.692C99.6521 158.574 99.5853 158.413 99.5853 158.245C99.5853 158.077 99.6521 157.916 99.7708 157.797C99.8896 157.678 100.051 157.611 100.219 157.611H104.019C104.187 157.611 104.348 157.678 104.467 157.797C104.585 157.916 104.652 158.077 104.652 158.245C104.652 158.413 104.585 158.574 104.467 158.692C104.348 158.811 104.187 158.878 104.019 158.878ZM96.52 158.878H92.72C92.552 158.878 92.3909 158.811 92.2722 158.692C92.1534 158.574 92.0867 158.413 92.0867 158.245C92.0899 158.078 92.1577 157.918 92.2758 157.8C92.3938 157.682 92.553 157.615 92.72 157.611H96.52C96.687 157.615 96.8462 157.682 96.9643 157.8C97.0823 157.918 97.1501 158.078 97.1533 158.245C97.1533 158.413 97.0866 158.574 96.9678 158.692C96.8491 158.811 96.688 158.878 96.52 158.878Z" fill="#D1D3D4"/>
<path d="M372.4 158.878H370.5C370.332 158.878 370.171 158.811 370.052 158.692C369.933 158.574 369.867 158.413 369.867 158.245C369.867 158.077 369.933 157.916 370.052 157.797C370.171 157.678 370.332 157.611 370.5 157.611H372.4C372.568 157.611 372.729 157.678 372.848 157.797C372.967 157.916 373.033 158.077 373.033 158.245C373.033 158.413 372.967 158.574 372.848 158.692C372.729 158.811 372.568 158.878 372.4 158.878Z" fill="#D1D3D4"/>
<path d="M383.572 56.1893C383.572 56.1893 396.53 51.6547 394.972 49.932C393.414 48.2093 388.271 49.932 388.271 49.932C388.271 49.932 396.34 44.3333 395.2 41.724C394.06 39.1147 379.303 50.5907 379.303 50.5907" fill="white"/>
<path d="M383.572 56.8227C383.404 56.8512 383.232 56.8119 383.093 56.7133C382.954 56.6147 382.86 56.465 382.831 56.297C382.803 56.129 382.842 55.9566 382.94 55.8176C383.039 55.6787 383.189 55.5846 383.357 55.556C388.423 53.7953 393.984 51.2747 394.478 50.2487C393.515 49.3113 390.336 49.894 388.525 50.4893C388.38 50.5421 388.22 50.5389 388.077 50.4804C387.934 50.4218 387.818 50.3121 387.752 50.1727C387.685 50.0373 387.669 49.8826 387.706 49.7362C387.743 49.5899 387.831 49.4617 387.955 49.3747C391.02 47.234 395.238 43.3833 394.567 41.952C393.591 41.3693 386.739 45.4987 379.633 51.0467C379.499 51.1456 379.332 51.189 379.167 51.1678C379.001 51.1466 378.851 51.0623 378.746 50.9327C378.644 50.7998 378.599 50.632 378.62 50.4658C378.641 50.2996 378.728 50.1486 378.86 50.046C381.013 48.3613 391.907 40.0013 394.833 40.7107C395.026 40.7517 395.206 40.8373 395.36 40.9604C395.514 41.0836 395.637 41.2409 395.719 41.42C396.669 43.472 393.515 46.588 391.058 48.602C392.692 48.3867 394.567 48.412 395.491 49.476C395.615 49.6127 395.702 49.7785 395.744 49.958C395.786 50.1374 395.782 50.3246 395.732 50.502C395.175 52.6173 386.435 55.822 383.775 56.7593C383.712 56.7932 383.643 56.8147 383.572 56.8227Z" fill="#231F20"/>
<path d="M258.083 111.239C258.083 111.239 249.533 116.533 249.331 115.431C249.128 114.329 251.864 111.239 251.864 111.239C251.864 111.239 241.49 113.189 240.185 112.214C238.881 111.239 241.933 108.325 244.15 107.667C246.367 107.008 259.211 103.778 259.211 103.778" fill="white"/>
<path d="M249.534 116.204C249.407 116.205 249.282 116.179 249.166 116.128C249.048 116.07 248.944 115.984 248.865 115.879C248.786 115.773 248.733 115.65 248.71 115.52C248.596 114.671 249.47 113.291 250.332 112.176C246.696 112.797 241.047 113.595 239.894 112.721C239.667 112.555 239.494 112.326 239.397 112.062C239.3 111.799 239.283 111.512 239.35 111.239C239.641 109.617 242.149 107.591 243.986 107.071C246.24 106.425 258.552 103.271 259.072 103.17C259.155 103.149 259.241 103.145 259.326 103.158C259.411 103.17 259.492 103.199 259.566 103.244C259.639 103.288 259.703 103.346 259.754 103.415C259.805 103.484 259.842 103.562 259.863 103.645C259.884 103.728 259.888 103.815 259.876 103.899C259.863 103.984 259.834 104.066 259.79 104.139C259.746 104.213 259.687 104.277 259.619 104.328C259.55 104.379 259.471 104.416 259.388 104.437C259.262 104.437 246.57 107.679 244.328 108.325C243.526 108.574 242.781 108.98 242.137 109.519C241.494 110.059 240.964 110.721 240.578 111.467C240.578 111.644 240.578 111.682 240.578 111.707C241.351 112.176 246.975 111.517 251.75 110.618C251.88 110.598 252.012 110.618 252.13 110.675C252.248 110.732 252.346 110.824 252.411 110.938C252.475 111.052 252.504 111.183 252.492 111.314C252.48 111.444 252.429 111.568 252.346 111.669C251.458 112.626 250.689 113.684 250.053 114.823C252.684 113.64 255.225 112.264 257.653 110.707C257.722 110.661 257.8 110.63 257.881 110.615C257.963 110.601 258.047 110.603 258.127 110.622C258.208 110.641 258.284 110.676 258.35 110.726C258.417 110.775 258.473 110.838 258.514 110.909C258.56 110.979 258.591 111.058 258.606 111.141C258.621 111.223 258.619 111.308 258.6 111.39C258.581 111.471 258.545 111.548 258.496 111.616C258.446 111.684 258.384 111.741 258.312 111.783C252.181 115.621 250.23 116.204 249.534 116.204Z" fill="#231F20"/>
<path d="M87.1086 324.343L177.701 237.323L242.199 243.023L283.733 211.128L256.943 180.006L382.014 160.271L327.788 270.193L304.646 241.933L242.668 280.605L177.219 271.839L87.1086 324.343Z" fill="#42A69B"/>
<path d="M340.974 122.271C340.974 122.271 366.371 141.955 367.08 148.073C367.789 154.191 363.533 183.869 363.533 183.869L346.446 186.694C346.446 186.694 351.994 152.76 350.347 151.481C348.701 150.201 330.334 137.547 330.334 137.547C330.334 137.547 325.685 163.299 322.734 169.797C320.72 174.331 304 194.231 304 194.231L288.496 191.875C288.496 191.875 302.847 166.681 304.507 161.475C306.166 156.269 307.306 128.541 307.306 128.541L340.974 122.271Z" fill="#231F20"/>
<path d="M304 194.864H303.912L288.332 192.533C288.231 192.519 288.136 192.48 288.055 192.42C287.973 192.361 287.907 192.282 287.863 192.191C287.816 192.099 287.792 191.997 287.792 191.894C287.792 191.79 287.816 191.688 287.863 191.596C288.015 191.343 302.214 166.402 303.823 161.348C305.432 156.294 306.584 128.82 306.597 128.554C306.601 128.41 306.655 128.272 306.75 128.163C306.844 128.054 306.974 127.982 307.116 127.959L340.86 121.6C340.948 121.583 341.038 121.584 341.125 121.604C341.213 121.623 341.295 121.661 341.367 121.714C342.406 122.525 366.979 141.639 367.701 147.947C368.423 154.255 364.344 182.691 364.167 183.907C364.149 184.04 364.089 184.164 363.996 184.26C363.902 184.356 363.78 184.419 363.648 184.439L346.56 187.264C346.462 187.277 346.362 187.268 346.268 187.238C346.173 187.207 346.087 187.155 346.016 187.087C345.942 187.019 345.886 186.933 345.855 186.838C345.824 186.742 345.818 186.64 345.838 186.542C348.372 170.861 350.69 153.381 349.892 151.835C348.549 150.809 334.35 140.967 330.79 138.497C329.904 143.311 325.977 164.084 323.355 169.949C321.29 174.559 305.115 193.775 304.418 194.585C304.372 194.658 304.311 194.721 304.239 194.769C304.167 194.817 304.085 194.849 304 194.864ZM289.434 191.393L303.684 193.559C305.698 191.165 320.34 173.647 322.202 169.493C325.052 163.159 329.676 137.636 329.726 137.383C329.743 137.278 329.787 137.18 329.854 137.098C329.921 137.016 330.008 136.952 330.106 136.914C330.197 136.862 330.299 136.834 330.404 136.834C330.508 136.834 330.611 136.862 330.701 136.914C331.449 137.433 349.106 149.657 350.753 150.923C352.4 152.19 349.322 172.976 347.219 185.883L362.989 183.274C363.521 179.474 367.093 153.659 366.447 148.099C365.902 143.336 347.979 128.465 340.81 122.892L307.876 129.01C307.712 132.911 306.61 156.763 305.064 161.639C303.519 166.516 291.929 186.985 289.434 191.393Z" fill="#231F20"/>
<path d="M340.974 122.271L307.243 128.605L315.628 78.774C315.628 78.774 332.601 78.1406 335.629 79.8886C338.656 81.6366 340.974 122.271 340.974 122.271Z" fill="white"/>
<path d="M307.243 129.2C307.16 129.201 307.077 129.185 307.001 129.152C306.925 129.119 306.856 129.071 306.8 129.01C306.726 128.94 306.67 128.851 306.639 128.754C306.608 128.657 306.603 128.553 306.622 128.453L315.008 78.6347C315.033 78.4921 315.105 78.3622 315.213 78.2657C315.321 78.1692 315.458 78.1118 315.603 78.1027C317.364 78.1027 332.842 77.52 335.946 79.3694C336.718 79.8127 339.442 84.2334 341.608 122.322C341.616 122.476 341.568 122.628 341.473 122.75C341.377 122.871 341.24 122.953 341.088 122.981L307.357 129.314L307.243 129.2ZM316.173 79.3567L308.016 127.769L340.316 121.777C339.176 102.258 337.01 81.586 335.249 80.3954C333.032 79.0654 321.189 79.1667 316.173 79.3314V79.3567Z" fill="#231F20"/>
<path d="M322.709 74.518C322.164 74.784 322.709 82.118 322.709 82.8273C322.709 88.9833 322.924 95.2913 322.709 101.409C322.253 113.531 313.538 125.324 307.015 134.951C306.294 136.33 305.123 137.42 303.696 138.041C302.61 138.293 301.476 138.245 300.415 137.902C295.851 136.792 291.573 134.728 287.863 131.847C287.335 131.503 286.918 131.015 286.659 130.441C286.578 129.946 286.602 129.44 286.731 128.955C286.86 128.47 287.09 128.019 287.407 127.629C294.138 116.592 299.256 104.649 302.607 92.1627C305.267 82.1307 314.019 78.6727 322.709 74.518Z" fill="#42A69B"/>
<path d="M344.685 69.92C344.888 69.92 345.699 91.0227 345.775 91.8713C346.307 98.2047 343.583 111.986 340.48 117.458C340.645 110.517 337.06 101.561 334.058 95.418C332.589 92.4287 332.285 85.9813 331.955 82.6753C331.955 82.3587 331.043 75.0753 330.879 75.0753C330.714 75.0753 339.315 68.894 344.685 69.92Z" fill="#42A69B"/>
<path d="M330.511 73.0993L331.854 79.686C331.854 79.686 331.613 82.878 326.99 82.7513C322.367 82.6247 321.075 79.8 321.075 79.8L319.01 67.412C319.01 67.412 321.379 64.9547 318.909 58.0767C323.498 58.3964 328.107 57.8595 332.5 56.4933C333.375 60.288 334.043 64.1275 334.501 67.9947C334.691 71.4527 330.511 73.0993 330.511 73.0993Z" fill="white"/>
<path d="M327.256 83.3847H326.977C322.012 83.2453 320.555 80.1293 320.505 80.0027C320.497 79.948 320.497 79.8927 320.505 79.838L318.44 67.45C318.423 67.3527 318.429 67.2527 318.458 67.1581C318.486 67.0636 318.537 66.977 318.605 66.9053C318.605 66.9053 320.631 64.562 318.364 58.2287C318.328 58.1277 318.318 58.0196 318.333 57.9137C318.349 57.8077 318.39 57.7072 318.453 57.6207C318.52 57.5396 318.606 57.4755 318.703 57.4337C318.799 57.3919 318.905 57.3735 319.01 57.38C323.513 57.6911 328.035 57.1672 332.348 55.8347C332.427 55.7974 332.514 55.7781 332.601 55.7781C332.689 55.7781 332.775 55.7974 332.855 55.8347C332.935 55.877 333.005 55.9364 333.059 56.0086C333.114 56.0808 333.152 56.1641 333.171 56.2527C334.059 60.0837 334.732 63.9616 335.185 67.868C335.363 71.06 332.475 72.8333 331.284 73.4287L332.551 79.5213C332.563 79.5798 332.563 79.6402 332.551 79.6987C332.551 79.6987 332.158 83.3847 327.256 83.3847ZM321.683 79.5847C321.898 79.99 323.19 82.118 327.015 82.118C330.575 82.232 331.145 80.1547 331.221 79.7113L329.891 73.226C329.86 73.0786 329.882 72.925 329.954 72.7927C330.026 72.6603 330.143 72.558 330.283 72.504C330.283 72.504 334.083 70.984 333.868 67.9693C333.461 64.3652 332.848 60.7873 332.031 57.2533C328.065 58.4075 323.934 58.8954 319.808 58.6973C321.505 64.0807 320.226 66.7153 319.681 67.564L321.683 79.5847Z" fill="#231F20"/>
<path d="M321.011 66.5507C320.733 66.0059 320.29 65.5627 319.745 65.284C319.203 65.0422 318.625 64.8924 318.035 64.8407C317.718 64.7643 317.388 64.7643 317.072 64.8407C316.855 64.9169 316.657 65.0377 316.489 65.1953C316.064 65.5309 315.772 66.0069 315.666 66.538C315.636 66.9713 315.71 67.4055 315.881 67.8047C316.037 68.2503 316.245 68.6756 316.502 69.0713C316.776 69.464 317.125 69.7978 317.53 70.0531C317.935 70.3085 318.387 70.4802 318.859 70.5581C319.331 70.636 319.814 70.6186 320.28 70.5068C320.745 70.395 321.183 70.1912 321.569 69.9073" fill="white"/>
<path d="M319.378 71.1867C319.154 71.1997 318.93 71.1997 318.706 71.1867C317.601 70.9914 316.615 70.3735 315.958 69.464C315.667 69.0221 315.433 68.5455 315.261 68.0453C315.05 67.5504 314.967 67.0101 315.02 66.4747C315.146 65.793 315.509 65.178 316.046 64.7393C316.284 64.5356 316.553 64.3729 316.844 64.258C317.261 64.1603 317.694 64.1603 318.111 64.258C318.773 64.3117 319.421 64.4833 320.024 64.7647C320.713 65.1189 321.269 65.688 321.607 66.386C321.665 66.5351 321.665 66.7008 321.607 66.8498C321.548 66.9987 321.435 67.12 321.29 67.189C321.146 67.258 320.981 67.2698 320.828 67.2218C320.675 67.1739 320.546 67.0699 320.467 66.9307C320.25 66.4839 319.895 66.1194 319.454 65.892C318.975 65.6843 318.466 65.5559 317.946 65.512C317.725 65.4611 317.496 65.4611 317.275 65.512C317.14 65.5717 317.016 65.653 316.908 65.7527C316.599 65.9879 316.384 66.3243 316.3 66.7027C316.281 67.0331 316.342 67.3632 316.477 67.6653C316.61 68.0588 316.793 68.4335 317.022 68.78C317.467 69.4378 318.155 69.893 318.934 70.0467C319.316 70.1084 319.706 70.0944 320.082 70.0052C320.458 69.9161 320.812 69.7537 321.126 69.5273C321.263 69.4311 321.432 69.3919 321.597 69.4179C321.762 69.4439 321.911 69.5331 322.012 69.6667C322.063 69.7333 322.1 69.8096 322.121 69.891C322.141 69.9723 322.145 70.0569 322.132 70.1398C322.119 70.2227 322.089 70.302 322.045 70.3731C322 70.4442 321.942 70.5055 321.873 70.5533C321.128 71.0209 320.255 71.2425 319.378 71.1867Z" fill="#231F20"/>
<path d="M327.889 62.282C327.889 62.282 331.018 65.1193 330.6 65.8667C330.182 66.614 328.586 66.5887 328.586 66.5887" fill="white"/>
<path d="M328.637 67.1967C328.469 67.1967 328.308 67.1299 328.189 67.0112C328.07 66.8924 328.004 66.7313 328.004 66.5633C328.007 66.3942 328.076 66.2331 328.197 66.1147C328.318 65.9963 328.48 65.93 328.65 65.93C329.126 65.9495 329.598 65.8401 330.018 65.6133C329.321 64.5381 328.467 63.5732 327.484 62.7507C327.425 62.6918 327.378 62.6218 327.346 62.5446C327.313 62.4674 327.297 62.3846 327.297 62.301C327.297 62.2174 327.313 62.1346 327.346 62.0574C327.378 61.9803 327.425 61.9102 327.484 61.8513C327.542 61.7924 327.611 61.7455 327.687 61.7135C327.763 61.6815 327.845 61.6651 327.928 61.6651C328.01 61.6651 328.092 61.6815 328.168 61.7135C328.244 61.7455 328.313 61.7924 328.371 61.8513C331.88 65.018 331.424 65.8667 331.246 66.1833C330.6 67.1333 329.017 67.1967 328.637 67.1967Z" fill="#231F20"/>
<path d="M330.511 73.0993C328.793 73.4403 327.024 73.4403 325.305 73.0993C325.932 74.1718 326.793 75.0889 327.824 75.782C328.855 76.4751 330.029 76.9263 331.259 77.102L330.511 73.0993Z" fill="#231F20"/>
<path d="M331.259 77.71C329.923 77.5264 328.648 77.0408 327.528 76.2902C326.409 75.5395 325.475 74.5436 324.799 73.378C324.737 73.265 324.711 73.1359 324.724 73.0077C324.738 72.8796 324.79 72.7586 324.874 72.6608C324.958 72.5631 325.069 72.4933 325.194 72.4608C325.319 72.4282 325.45 72.4345 325.571 72.4787C327.181 72.8028 328.839 72.8028 330.448 72.4787C330.53 72.4623 330.614 72.4624 330.695 72.4792C330.777 72.4959 330.854 72.5289 330.923 72.5762C330.991 72.6235 331.05 72.6841 331.094 72.7544C331.139 72.8247 331.169 72.9032 331.183 72.9853L331.93 76.9627C331.944 77.0535 331.939 77.1464 331.915 77.2351C331.891 77.3237 331.848 77.4062 331.789 77.477C331.73 77.5477 331.657 77.6051 331.574 77.6453C331.492 77.6855 331.401 77.7075 331.309 77.71H331.259ZM326.749 73.91C327.723 75.052 329.022 75.8695 330.473 76.2533L330.005 73.72C328.947 73.9027 327.874 73.9875 326.8 73.9733L326.749 73.91Z" fill="#231F20"/>
<path d="M314.349 64.6C314.221 64.602 314.097 64.5639 313.992 64.4912C313.887 64.4185 313.808 64.3147 313.766 64.1947C313.187 62.7065 313.04 61.0855 313.34 59.5174C313.64 57.9492 314.376 56.4973 315.463 55.328L315.565 55.214C315.721 55.0765 315.854 54.9138 315.957 54.7327C316.024 54.5876 316.071 54.4342 316.097 54.2767V54.112C316.399 53.0876 316.914 52.1386 317.608 51.3267C318.302 50.5148 319.16 49.8583 320.125 49.4C321.938 48.5388 323.898 48.0274 325.901 47.8927C327.468 47.6787 329.062 47.7603 330.6 48.1333C331.433 48.3277 332.21 48.7125 332.869 49.2576C333.528 49.8026 334.052 50.493 334.4 51.2747C334.746 52.1193 334.776 53.0603 334.486 53.9255C334.195 54.7907 333.602 55.5223 332.817 55.9867C332.665 56.0623 332.49 56.0747 332.33 56.0212C332.17 55.9678 332.037 55.8528 331.962 55.7017C331.886 55.5505 331.874 55.3755 331.927 55.2151C331.98 55.0548 332.095 54.9223 332.247 54.8467C332.75 54.5257 333.125 54.0369 333.303 53.4668C333.482 52.8966 333.453 52.2817 333.222 51.7307C332.943 51.1372 332.532 50.6153 332.02 50.2048C331.509 49.7943 330.91 49.506 330.271 49.362C328.877 49.0545 327.437 49.0115 326.027 49.2353C324.182 49.3682 322.376 49.8316 320.695 50.6033C319.906 50.9728 319.202 51.5009 318.626 52.1547C318.051 52.8086 317.617 53.574 317.351 54.4033V54.5427C317.301 54.7966 317.22 55.0434 317.11 55.2773C316.949 55.5726 316.744 55.8417 316.502 56.0753L316.413 56.164C315.491 57.1721 314.867 58.4162 314.61 59.7579C314.353 61.0997 314.473 62.4864 314.957 63.764C314.99 63.8403 315.007 63.9225 315.007 64.0057C315.008 64.0889 314.992 64.1713 314.96 64.2481C314.928 64.3249 314.881 64.3945 314.822 64.4528C314.762 64.511 314.692 64.5568 314.615 64.5873C314.527 64.6045 314.437 64.6088 314.349 64.6Z" fill="#231F20"/>
<path d="M323 61.8387C323.113 61.5865 323.29 61.3681 323.513 61.2048C323.736 61.0414 323.997 60.9388 324.272 60.9069C324.546 60.8749 324.824 60.9148 325.079 61.0227C325.333 61.1305 325.555 61.3026 325.723 61.522" fill="white"/>
<path d="M323 62.472C322.909 62.4956 322.813 62.4956 322.721 62.472C322.646 62.4357 322.579 62.3847 322.524 62.3219C322.47 62.2592 322.428 62.1861 322.402 62.1068C322.376 62.0276 322.366 61.944 322.373 61.8609C322.38 61.7779 322.404 61.6971 322.443 61.6233C322.593 61.2782 322.829 60.9775 323.129 60.7503C323.429 60.523 323.783 60.3769 324.156 60.326C324.529 60.2751 324.909 60.3211 325.259 60.4596C325.609 60.5981 325.917 60.8244 326.154 61.1167C326.267 61.232 326.332 61.3861 326.335 61.5475C326.338 61.709 326.28 61.8656 326.171 61.9853C326.063 62.105 325.913 62.1788 325.752 62.1915C325.591 62.2043 325.431 62.1551 325.305 62.054C325.027 61.8133 324.621 61.522 324.279 61.598C323.976 61.6998 323.723 61.9125 323.57 62.1933C323.508 62.2858 323.423 62.3603 323.322 62.4092C323.222 62.4581 323.111 62.4798 323 62.472Z" fill="#231F20"/>
<path d="M329.397 61.598C329.397 61.598 329.878 59.204 331.803 60.724L329.397 61.598Z" fill="white"/>
<path d="M329.397 62.2313H329.333C329.252 62.2162 329.175 62.1851 329.106 62.1398C329.037 62.0945 328.978 62.036 328.932 61.9676C328.886 61.8992 328.854 61.8223 328.838 61.7415C328.822 61.6606 328.823 61.5774 328.839 61.4967C328.908 61.1151 329.064 60.7544 329.295 60.4426C329.526 60.1307 329.825 59.876 330.169 59.698C330.534 59.5927 330.921 59.5877 331.289 59.6835C331.657 59.7793 331.992 59.9725 332.259 60.2427C332.325 60.2934 332.381 60.3569 332.422 60.4293C332.463 60.5018 332.489 60.5818 332.498 60.6645C332.507 60.7472 332.5 60.831 332.477 60.9109C332.453 60.9907 332.414 61.065 332.361 61.1293C332.256 61.2598 332.104 61.3437 331.938 61.3627C331.772 61.3817 331.605 61.3342 331.474 61.2307C331.107 60.9393 330.79 60.8127 330.613 60.876C330.435 60.9393 330.144 61.446 330.081 61.7373C330.047 61.8893 329.959 62.0237 329.833 62.1148C329.707 62.2059 329.551 62.2474 329.397 62.2313Z" fill="#231F20"/>
<path d="M332.601 66.5633C332.601 66.5633 328.155 73.7707 324.558 67.0447L332.601 66.5633Z" fill="white"/>
<path d="M328.067 70.5533H327.965C326.433 70.5533 325.103 69.426 323.988 67.3487C323.91 67.2003 323.893 67.0275 323.941 66.8668C323.988 66.7061 324.096 66.5701 324.241 66.4873C324.315 66.4477 324.396 66.4231 324.48 66.415C324.563 66.407 324.647 66.4156 324.728 66.4403C324.808 66.4651 324.882 66.5055 324.947 66.5592C325.011 66.6129 325.064 66.6789 325.103 66.7533C325.989 68.4 326.965 69.2867 328.003 69.2867H328.067C329.789 69.2867 331.525 67.0953 332.057 66.234C332.099 66.1636 332.156 66.1025 332.222 66.0541C332.289 66.0057 332.365 65.9711 332.445 65.9522C332.525 65.9334 332.608 65.9306 332.689 65.9442C332.771 65.9578 332.848 65.9874 332.918 66.0313C332.99 66.0743 333.052 66.1311 333.102 66.1984C333.152 66.2657 333.188 66.3421 333.208 66.4234C333.228 66.5047 333.232 66.5891 333.219 66.6719C333.206 66.7546 333.177 66.8339 333.133 66.9053C333.045 67.0573 330.853 70.5533 328.067 70.5533Z" fill="#231F20"/>
<path d="M315.628 78.7107L255.981 103.461V112.873L307.243 101.675L315.628 78.7107Z" fill="#42A69B"/>
<path d="M328.282 83.866L325.749 86.3993L327.826 87.8307C327.826 87.8307 325.609 104.069 317.933 106.4C310.257 108.731 307.255 107.92 307.255 107.92L303.012 113.417C303.012 113.417 309.611 115.305 310.08 115.457C310.549 115.609 324.52 112.366 326.724 103.702C328.022 98.6012 328.87 93.3964 329.257 88.1473L330.651 86.3993L328.282 83.866Z" fill="#231F20"/>
<path d="M319.757 100.611C319.659 100.612 319.561 100.59 319.473 100.546C319.385 100.502 319.309 100.437 319.251 100.358L312.753 91.4913C312.655 91.3786 312.602 91.2348 312.602 91.086C312.602 90.9372 312.655 90.7933 312.753 90.6806L316.451 86.8806L311.866 85.69C311.761 85.6598 311.664 85.6033 311.587 85.5257C311.509 85.4481 311.453 85.3521 311.423 85.2467C311.391 85.1419 311.388 85.0309 311.412 84.9243C311.437 84.8178 311.488 84.7194 311.562 84.6387L317.515 78.3053C317.574 78.246 317.644 78.1988 317.721 78.1667C317.799 78.1345 317.881 78.118 317.965 78.118C318.049 78.118 318.131 78.1345 318.209 78.1667C318.286 78.1988 318.356 78.246 318.415 78.3053C318.474 78.3631 318.52 78.4321 318.552 78.5082C318.584 78.5843 318.601 78.6661 318.601 78.7487C318.601 78.8312 318.584 78.913 318.552 78.9891C318.52 79.0652 318.474 79.1342 318.415 79.192L313.196 84.7907L317.794 85.994C317.9 86.0226 317.997 86.0785 318.076 86.156C318.154 86.2336 318.21 86.3303 318.24 86.4365C318.269 86.5426 318.27 86.6546 318.243 86.7614C318.216 86.8682 318.162 86.966 318.085 87.0453L314.133 91.2L320.315 99.6107C320.415 99.745 320.459 99.9139 320.435 100.08C320.411 100.247 320.322 100.397 320.188 100.497C320.061 100.581 319.909 100.621 319.757 100.611Z" fill="#231F20"/>
<path d="M296.248 127.832C296.165 127.843 296.08 127.837 295.999 127.815C295.918 127.793 295.843 127.756 295.776 127.705C295.642 127.601 295.554 127.449 295.532 127.281C295.511 127.113 295.556 126.943 295.66 126.809C295.763 126.675 295.915 126.587 296.083 126.565C300.111 125.476 307.483 123.285 307.483 123.272C307.651 123.225 307.831 123.247 307.983 123.332C308.135 123.418 308.247 123.56 308.294 123.728C308.341 123.896 308.32 124.076 308.234 124.228C308.148 124.38 308.006 124.492 307.838 124.539C307.762 124.539 300.415 126.743 296.362 127.832H296.248Z" fill="#231F20"/>
<path d="M299.275 103.36H299.123C298.961 103.321 298.82 103.219 298.732 103.077C298.645 102.934 298.617 102.763 298.655 102.6C298.655 102.499 300.947 92.9733 302.391 87.9573C302.441 87.798 302.551 87.6641 302.697 87.5838C302.844 87.5035 303.016 87.483 303.177 87.5267C303.258 87.5484 303.333 87.5863 303.399 87.638C303.465 87.6897 303.519 87.7542 303.56 87.8275C303.6 87.9009 303.625 87.9816 303.633 88.0649C303.641 88.1481 303.633 88.2322 303.607 88.312C302.176 93.3027 299.909 102.803 299.883 102.891C299.847 103.025 299.768 103.144 299.659 103.228C299.549 103.313 299.414 103.359 299.275 103.36Z" fill="#231F20"/>
<path d="M334.058 73.0487L379.291 48.4247L387.245 56.43L340.974 86.3867L334.058 73.0487Z" fill="#42A69B"/>
<path d="M345.597 88.7427C345.432 88.7236 345.279 88.6424 345.171 88.5154C345.063 88.3885 345.007 88.2253 345.015 88.0587C345.015 87.9447 345.914 77.216 343.495 73.416C343.444 73.3462 343.409 73.2669 343.39 73.183C343.372 73.099 343.37 73.0122 343.386 72.9277C343.402 72.8432 343.435 72.7629 343.484 72.6916C343.532 72.6203 343.594 72.5596 343.666 72.5131C343.738 72.4666 343.819 72.4353 343.904 72.4211C343.989 72.407 344.076 72.4102 344.159 72.4307C344.243 72.4512 344.321 72.4885 344.39 72.5403C344.459 72.5921 344.516 72.6573 344.559 72.732C347.206 76.8867 346.319 87.704 346.281 88.16C346.275 88.2433 346.252 88.3244 346.214 88.3989C346.176 88.4733 346.124 88.5395 346.061 88.5936C345.997 88.6478 345.923 88.6888 345.844 88.7144C345.764 88.74 345.681 88.7496 345.597 88.7427Z" fill="#231F20"/>
<path d="M337.073 94.2653C337.002 94.2784 336.929 94.2784 336.857 94.2653C336.778 94.2385 336.705 94.1959 336.643 94.1402C336.581 94.0844 336.53 94.0167 336.495 93.941C336.459 93.8652 336.439 93.7831 336.436 93.6996C336.433 93.616 336.447 93.5327 336.477 93.4547L340.138 83.2453L335.667 82.1307C335.569 82.1076 335.478 82.0616 335.402 81.9965C335.325 81.9314 335.265 81.849 335.227 81.7562C335.189 81.6634 335.173 81.5629 335.181 81.4628C335.189 81.3627 335.221 81.266 335.274 81.1807L338.2 76.456L334.4 75.696C334.232 75.6624 334.084 75.5635 333.989 75.4209C333.894 75.2784 333.86 75.104 333.893 74.936C333.927 74.768 334.026 74.6203 334.168 74.5253C334.311 74.4302 334.485 74.3957 334.653 74.4293L339.416 75.3793C339.516 75.3983 339.611 75.4418 339.69 75.5058C339.77 75.5699 339.832 75.6526 339.872 75.7467C339.922 75.8356 339.948 75.936 339.948 76.038C339.948 76.14 339.922 76.2403 339.872 76.3293L336.819 81.0667L341.126 82.1053C341.214 82.1226 341.296 82.1603 341.366 82.2153C341.437 82.2703 341.493 82.3411 341.531 82.422C341.569 82.5012 341.588 82.5877 341.588 82.6753C341.588 82.7629 341.569 82.8494 341.531 82.9287L337.63 93.8093C337.591 93.9312 337.518 94.0393 337.419 94.1202C337.32 94.2012 337.2 94.2516 337.073 94.2653Z" fill="#231F20"/>
<path d="M329.333 121.6C329.25 121.598 329.168 121.58 329.092 121.547C329.016 121.514 328.947 121.466 328.889 121.406C328.832 121.346 328.786 121.275 328.756 121.197C328.726 121.12 328.711 121.037 328.713 120.954C328.713 120.789 329.017 104.234 328.839 95.4813C328.839 95.3134 328.906 95.1523 329.025 95.0335C329.144 94.9147 329.305 94.848 329.473 94.848C329.641 94.848 329.802 94.9147 329.921 95.0335C330.039 95.1523 330.106 95.3134 330.106 95.4813C330.283 104.259 329.992 120.815 329.979 121.005C329.976 121.086 329.957 121.166 329.923 121.24C329.888 121.314 329.84 121.381 329.78 121.436C329.72 121.492 329.65 121.534 329.573 121.563C329.496 121.591 329.415 121.603 329.333 121.6Z" fill="#D1D3D4"/>
<path d="M288.433 191.875L283.518 200.741C283.518 200.741 312.905 208.088 312.259 204.415C311.613 200.741 303.937 194.281 303.937 194.281L288.433 191.875Z" fill="white"/>
<path d="M309.409 206.036C302.493 206.036 286.989 202.236 283.366 201.362C283.274 201.339 283.188 201.295 283.116 201.233C283.043 201.172 282.986 201.095 282.948 201.007C282.902 200.922 282.877 200.826 282.877 200.729C282.877 200.631 282.902 200.536 282.948 200.45L287.85 191.583C287.909 191.467 288.003 191.374 288.12 191.316C288.237 191.259 288.369 191.242 288.496 191.267L304 193.61C304.117 193.624 304.227 193.673 304.317 193.749C304.634 194.015 312.17 200.463 312.841 204.313C312.882 204.513 312.869 204.72 312.805 204.913C312.74 205.107 312.626 205.28 312.474 205.415C311.543 205.94 310.471 206.158 309.409 206.036ZM284.481 200.336C296.869 203.389 310.574 205.821 311.651 204.491C311.157 201.767 305.85 196.701 303.671 194.826L288.8 192.533L284.481 200.336Z" fill="#231F20"/>
<path d="M346.459 186.694L344.875 195.991C344.875 195.991 373.629 190.849 372.337 186.694C371.045 182.539 363.546 183.869 363.546 183.869" fill="white"/>
<path d="M344.875 196.625C344.71 196.626 344.551 196.562 344.432 196.447C344.359 196.376 344.304 196.288 344.271 196.191C344.238 196.094 344.228 195.991 344.242 195.89L345.825 186.593C345.839 186.51 345.869 186.431 345.914 186.36C345.958 186.289 346.016 186.228 346.085 186.18C346.153 186.132 346.23 186.097 346.312 186.079C346.393 186.061 346.478 186.059 346.56 186.073C346.642 186.086 346.721 186.114 346.792 186.157C346.862 186.201 346.924 186.257 346.972 186.325C347.021 186.392 347.055 186.468 347.073 186.549C347.092 186.63 347.094 186.714 347.079 186.795L345.648 195.219C355.553 193.382 370.044 189.886 371.64 187.239C371.767 187.036 371.741 186.922 371.729 186.884C370.614 183.312 363.723 184.477 363.66 184.49C363.496 184.52 363.326 184.483 363.188 184.388C363.051 184.293 362.956 184.148 362.925 183.983C362.909 183.902 362.909 183.818 362.926 183.736C362.943 183.654 362.976 183.577 363.023 183.509C363.07 183.44 363.131 183.382 363.201 183.337C363.271 183.292 363.35 183.262 363.432 183.249C363.761 183.249 371.488 181.868 372.932 186.504C373.004 186.737 373.024 186.983 372.989 187.224C372.953 187.465 372.865 187.695 372.729 187.897C370.196 191.989 347.561 196.156 344.977 196.625H344.875Z" fill="#231F20"/>
<path d="M177.46 325.052C177.292 325.052 177.131 324.985 177.012 324.866C176.893 324.748 176.827 324.587 176.827 324.419V320.619C176.827 320.451 176.893 320.29 177.012 320.171C177.131 320.052 177.292 319.985 177.46 319.985C177.628 319.985 177.789 320.052 177.908 320.171C178.027 320.29 178.093 320.451 178.093 320.619V324.419C178.093 324.587 178.027 324.748 177.908 324.866C177.789 324.985 177.628 325.052 177.46 325.052ZM177.46 317.452C177.292 317.452 177.131 317.385 177.012 317.266C176.893 317.148 176.827 316.987 176.827 316.819V313.019C176.827 312.851 176.893 312.69 177.012 312.571C177.131 312.452 177.292 312.385 177.46 312.385C177.628 312.385 177.789 312.452 177.908 312.571C178.027 312.69 178.093 312.851 178.093 313.019V316.819C178.093 316.987 178.027 317.148 177.908 317.266C177.789 317.385 177.628 317.452 177.46 317.452ZM177.46 309.852C177.292 309.852 177.131 309.785 177.012 309.666C176.893 309.548 176.827 309.387 176.827 309.219V305.419C176.827 305.251 176.893 305.09 177.012 304.971C177.131 304.852 177.292 304.785 177.46 304.785C177.628 304.785 177.789 304.852 177.908 304.971C178.027 305.09 178.093 305.251 178.093 305.419V309.219C178.093 309.387 178.027 309.548 177.908 309.666C177.789 309.785 177.628 309.852 177.46 309.852ZM177.46 302.252C177.292 302.252 177.131 302.185 177.012 302.066C176.893 301.948 176.827 301.787 176.827 301.619V297.819C176.827 297.651 176.893 297.49 177.012 297.371C177.131 297.252 177.292 297.185 177.46 297.185C177.628 297.185 177.789 297.252 177.908 297.371C178.027 297.49 178.093 297.651 178.093 297.819V301.619C178.093 301.787 178.027 301.948 177.908 302.066C177.789 302.185 177.628 302.252 177.46 302.252ZM177.46 294.652C177.292 294.652 177.131 294.585 177.012 294.466C176.893 294.348 176.827 294.187 176.827 294.019V290.219C176.827 290.051 176.893 289.89 177.012 289.771C177.131 289.652 177.292 289.585 177.46 289.585C177.628 289.585 177.789 289.652 177.908 289.771C178.027 289.89 178.093 290.051 178.093 290.219V294.019C178.093 294.187 178.027 294.348 177.908 294.466C177.789 294.585 177.628 294.652 177.46 294.652Z" fill="#D1D3D4"/>
<path d="M242.427 324.976C242.259 324.976 242.098 324.909 241.979 324.79C241.861 324.672 241.794 324.511 241.794 324.343C241.797 324.174 241.864 324.014 241.982 323.894C242.1 323.774 242.259 323.703 242.427 323.697C242.51 323.695 242.592 323.71 242.669 323.74C242.745 323.771 242.815 323.816 242.874 323.874C242.933 323.932 242.98 324.001 243.012 324.077C243.044 324.153 243.061 324.235 243.061 324.317C243.064 324.403 243.05 324.488 243.02 324.567C242.99 324.647 242.943 324.72 242.884 324.782C242.825 324.843 242.754 324.892 242.676 324.925C242.597 324.959 242.513 324.976 242.427 324.976ZM242.427 321.176C242.259 321.176 242.098 321.109 241.979 320.991C241.861 320.872 241.794 320.711 241.794 320.543V316.743C241.797 316.576 241.865 316.416 241.983 316.298C242.101 316.18 242.26 316.113 242.427 316.109C242.595 316.109 242.756 316.176 242.875 316.295C242.994 316.414 243.061 316.575 243.061 316.743V320.543C243.054 320.706 242.984 320.861 242.866 320.974C242.748 321.088 242.591 321.151 242.427 321.151V321.176ZM242.427 313.576C242.259 313.576 242.098 313.509 241.979 313.391C241.861 313.272 241.794 313.111 241.794 312.943V309.143C241.797 308.976 241.865 308.816 241.983 308.698C242.101 308.58 242.26 308.513 242.427 308.509C242.595 308.509 242.756 308.576 242.875 308.695C242.994 308.814 243.061 308.975 243.061 309.143V312.943C243.054 313.106 242.984 313.261 242.866 313.374C242.748 313.488 242.591 313.551 242.427 313.551V313.576ZM242.427 305.976C242.259 305.976 242.098 305.909 241.979 305.791C241.861 305.672 241.794 305.511 241.794 305.343V301.543C241.797 301.376 241.865 301.216 241.983 301.098C242.101 300.98 242.26 300.913 242.427 300.909C242.595 300.909 242.756 300.976 242.875 301.095C242.994 301.214 243.061 301.375 243.061 301.543V305.343C243.054 305.506 242.984 305.661 242.866 305.774C242.748 305.888 242.591 305.951 242.427 305.951V305.976ZM242.427 298.376C242.259 298.376 242.098 298.309 241.979 298.191C241.861 298.072 241.794 297.911 241.794 297.743V293.943C241.797 293.776 241.865 293.616 241.983 293.498C242.101 293.38 242.26 293.313 242.427 293.309C242.595 293.309 242.756 293.376 242.875 293.495C242.994 293.614 243.061 293.775 243.061 293.943V297.743C243.054 297.906 242.984 298.061 242.866 298.174C242.748 298.288 242.591 298.351 242.427 298.351V298.376Z" fill="#D1D3D4"/>
<path d="M307.408 324.976C307.24 324.976 307.078 324.909 306.96 324.79C306.841 324.672 306.774 324.511 306.774 324.343V323.076C306.774 322.908 306.841 322.747 306.96 322.628C307.078 322.509 307.24 322.443 307.408 322.443C307.574 322.446 307.734 322.514 307.852 322.632C307.97 322.75 308.038 322.909 308.041 323.076V324.343C308.041 324.511 307.974 324.672 307.855 324.79C307.737 324.909 307.575 324.976 307.408 324.976ZM307.408 319.909C307.24 319.909 307.078 319.843 306.96 319.724C306.841 319.605 306.774 319.444 306.774 319.276V315.476C306.774 315.308 306.841 315.147 306.96 315.028C307.078 314.909 307.24 314.843 307.408 314.843C307.574 314.846 307.734 314.914 307.852 315.032C307.97 315.15 308.038 315.309 308.041 315.476V319.276C308.048 319.363 308.037 319.451 308.008 319.534C307.979 319.617 307.934 319.693 307.874 319.757C307.815 319.821 307.743 319.872 307.662 319.907C307.582 319.942 307.495 319.96 307.408 319.96V319.909ZM307.408 312.309C307.24 312.309 307.078 312.243 306.96 312.124C306.841 312.005 306.774 311.844 306.774 311.676V307.876C306.774 307.708 306.841 307.547 306.96 307.428C307.078 307.309 307.24 307.243 307.408 307.243C307.574 307.246 307.734 307.314 307.852 307.432C307.97 307.55 308.038 307.709 308.041 307.876V311.676C308.048 311.763 308.037 311.851 308.008 311.934C307.979 312.017 307.934 312.093 307.874 312.157C307.815 312.221 307.743 312.272 307.662 312.307C307.582 312.342 307.495 312.36 307.408 312.36V312.309ZM307.408 304.709C307.24 304.709 307.078 304.643 306.96 304.524C306.841 304.405 306.774 304.244 306.774 304.076V300.276C306.774 300.108 306.841 299.947 306.96 299.828C307.078 299.709 307.24 299.643 307.408 299.643C307.574 299.646 307.734 299.714 307.852 299.832C307.97 299.95 308.038 300.109 308.041 300.276V304.076C308.048 304.163 308.037 304.251 308.008 304.334C307.979 304.417 307.934 304.493 307.874 304.557C307.815 304.621 307.743 304.672 307.662 304.707C307.582 304.742 307.495 304.76 307.408 304.76V304.709ZM307.408 297.109C307.24 297.109 307.078 297.043 306.96 296.924C306.841 296.805 306.774 296.644 306.774 296.476V292.676C306.774 292.508 306.841 292.347 306.96 292.228C307.078 292.109 307.24 292.043 307.408 292.043C307.574 292.046 307.734 292.114 307.852 292.232C307.97 292.35 308.038 292.509 308.041 292.676V296.476C308.048 296.563 308.037 296.651 308.008 296.734C307.979 296.817 307.934 296.893 307.874 296.957C307.815 297.021 307.743 297.072 307.662 297.107C307.582 297.142 307.495 297.16 307.408 297.16V297.109ZM307.408 289.509C307.24 289.509 307.078 289.443 306.96 289.324C306.841 289.205 306.774 289.044 306.774 288.876V285.076C306.774 284.908 306.841 284.747 306.96 284.628C307.078 284.509 307.24 284.443 307.408 284.443C307.574 284.446 307.734 284.514 307.852 284.632C307.97 284.75 308.038 284.909 308.041 285.076V288.876C308.048 288.963 308.037 289.051 308.008 289.134C307.979 289.217 307.934 289.293 307.874 289.357C307.815 289.421 307.743 289.472 307.662 289.507C307.582 289.542 307.495 289.56 307.408 289.56V289.509ZM307.408 281.909C307.24 281.909 307.078 281.843 306.96 281.724C306.841 281.605 306.774 281.444 306.774 281.276V277.476C306.774 277.308 306.841 277.147 306.96 277.028C307.078 276.909 307.24 276.843 307.408 276.843C307.574 276.846 307.734 276.914 307.852 277.032C307.97 277.15 308.038 277.309 308.041 277.476V281.276C308.048 281.363 308.037 281.451 308.008 281.534C307.979 281.617 307.934 281.693 307.874 281.757C307.815 281.821 307.743 281.872 307.662 281.907C307.582 281.942 307.495 281.96 307.408 281.96V281.909ZM307.408 274.309C307.24 274.309 307.078 274.243 306.96 274.124C306.841 274.005 306.774 273.844 306.774 273.676V269.876C306.774 269.708 306.841 269.547 306.96 269.428C307.078 269.309 307.24 269.243 307.408 269.243C307.574 269.246 307.734 269.314 307.852 269.432C307.97 269.55 308.038 269.709 308.041 269.876V273.676C308.048 273.763 308.037 273.851 308.008 273.934C307.979 274.017 307.934 274.093 307.874 274.157C307.815 274.221 307.743 274.272 307.662 274.307C307.582 274.342 307.495 274.36 307.408 274.36V274.309ZM307.408 266.709C307.24 266.709 307.078 266.643 306.96 266.524C306.841 266.405 306.774 266.244 306.774 266.076V262.276C306.774 262.108 306.841 261.947 306.96 261.828C307.078 261.709 307.24 261.643 307.408 261.643C307.574 261.646 307.734 261.714 307.852 261.832C307.97 261.95 308.038 262.109 308.041 262.276V266.076C308.048 266.163 308.037 266.251 308.008 266.334C307.979 266.417 307.934 266.493 307.874 266.557C307.815 266.621 307.743 266.672 307.662 266.707C307.582 266.742 307.495 266.76 307.408 266.76V266.709ZM307.408 259.109C307.24 259.109 307.078 259.043 306.96 258.924C306.841 258.805 306.774 258.644 306.774 258.476V254.676C306.774 254.508 306.841 254.347 306.96 254.228C307.078 254.109 307.24 254.043 307.408 254.043C307.574 254.046 307.734 254.114 307.852 254.232C307.97 254.35 308.038 254.509 308.041 254.676V258.476C308.048 258.563 308.037 258.651 308.008 258.734C307.979 258.817 307.934 258.893 307.874 258.957C307.815 259.021 307.743 259.072 307.662 259.107C307.582 259.142 307.495 259.16 307.408 259.16V259.109Z" fill="#D1D3D4"/>
<path d="M372.4 324.976C372.232 324.976 372.071 324.909 371.952 324.791C371.834 324.672 371.767 324.511 371.767 324.343V322.316C371.767 322.148 371.834 321.987 371.952 321.868C372.071 321.749 372.232 321.683 372.4 321.683C372.568 321.683 372.729 321.749 372.848 321.868C372.967 321.987 373.034 322.148 373.034 322.316V324.343C373.034 324.511 372.967 324.672 372.848 324.791C372.729 324.909 372.568 324.976 372.4 324.976ZM372.4 319.149C372.232 319.149 372.071 319.083 371.952 318.964C371.834 318.845 371.767 318.684 371.767 318.516V314.716C371.767 314.548 371.834 314.387 371.952 314.268C372.071 314.149 372.232 314.083 372.4 314.083C372.568 314.083 372.729 314.149 372.848 314.268C372.967 314.387 373.034 314.548 373.034 314.716V318.516C373.041 318.603 373.029 318.691 373.001 318.774C372.972 318.857 372.926 318.933 372.867 318.997C372.807 319.061 372.735 319.113 372.655 319.148C372.575 319.182 372.488 319.2 372.4 319.2V319.149ZM372.4 311.549C372.232 311.549 372.071 311.483 371.952 311.364C371.834 311.245 371.767 311.084 371.767 310.916V307.116C371.767 306.948 371.834 306.787 371.952 306.668C372.071 306.549 372.232 306.483 372.4 306.483C372.568 306.483 372.729 306.549 372.848 306.668C372.967 306.787 373.034 306.948 373.034 307.116V310.916C373.041 311.003 373.029 311.091 373.001 311.174C372.972 311.257 372.926 311.333 372.867 311.397C372.807 311.461 372.735 311.513 372.655 311.548C372.575 311.582 372.488 311.6 372.4 311.6V311.549ZM372.4 303.949C372.232 303.949 372.071 303.883 371.952 303.764C371.834 303.645 371.767 303.484 371.767 303.316V299.516C371.767 299.348 371.834 299.187 371.952 299.068C372.071 298.949 372.232 298.883 372.4 298.883C372.568 298.883 372.729 298.949 372.848 299.068C372.967 299.187 373.034 299.348 373.034 299.516V303.316C373.041 303.403 373.029 303.491 373.001 303.574C372.972 303.657 372.926 303.733 372.867 303.797C372.807 303.861 372.735 303.913 372.655 303.948C372.575 303.982 372.488 304 372.4 304V303.949ZM372.4 296.349C372.232 296.349 372.071 296.283 371.952 296.164C371.834 296.045 371.767 295.884 371.767 295.716V291.916C371.767 291.748 371.834 291.587 371.952 291.468C372.071 291.349 372.232 291.283 372.4 291.283C372.568 291.283 372.729 291.349 372.848 291.468C372.967 291.587 373.034 291.748 373.034 291.916V295.716C373.041 295.803 373.029 295.891 373.001 295.974C372.972 296.057 372.926 296.133 372.867 296.197C372.807 296.261 372.735 296.313 372.655 296.348C372.575 296.382 372.488 296.4 372.4 296.4V296.349ZM372.4 288.749C372.232 288.749 372.071 288.683 371.952 288.564C371.834 288.445 371.767 288.284 371.767 288.116V284.316C371.767 284.148 371.834 283.987 371.952 283.868C372.071 283.749 372.232 283.683 372.4 283.683C372.568 283.683 372.729 283.749 372.848 283.868C372.967 283.987 373.034 284.148 373.034 284.316V288.116C373.041 288.203 373.029 288.291 373.001 288.374C372.972 288.457 372.926 288.533 372.867 288.597C372.807 288.661 372.735 288.713 372.655 288.748C372.575 288.782 372.488 288.8 372.4 288.8V288.749ZM372.4 281.149C372.232 281.149 372.071 281.083 371.952 280.964C371.834 280.845 371.767 280.684 371.767 280.516V276.716C371.767 276.548 371.834 276.387 371.952 276.268C372.071 276.149 372.232 276.083 372.4 276.083C372.568 276.083 372.729 276.149 372.848 276.268C372.967 276.387 373.034 276.548 373.034 276.716V280.516C373.041 280.603 373.029 280.691 373.001 280.774C372.972 280.857 372.926 280.933 372.867 280.997C372.807 281.061 372.735 281.113 372.655 281.148C372.575 281.182 372.488 281.2 372.4 281.2V281.149ZM372.4 273.549C372.232 273.549 372.071 273.483 371.952 273.364C371.834 273.245 371.767 273.084 371.767 272.916V269.116C371.767 268.948 371.834 268.787 371.952 268.668C372.071 268.549 372.232 268.483 372.4 268.483C372.568 268.483 372.729 268.549 372.848 268.668C372.967 268.787 373.034 268.948 373.034 269.116V272.916C373.041 273.003 373.029 273.091 373.001 273.174C372.972 273.257 372.926 273.333 372.867 273.397C372.807 273.461 372.735 273.513 372.655 273.548C372.575 273.582 372.488 273.6 372.4 273.6V273.549ZM372.4 265.949C372.232 265.949 372.071 265.883 371.952 265.764C371.834 265.645 371.767 265.484 371.767 265.316V261.516C371.767 261.348 371.834 261.187 371.952 261.068C372.071 260.949 372.232 260.883 372.4 260.883C372.568 260.883 372.729 260.949 372.848 261.068C372.967 261.187 373.034 261.348 373.034 261.516V265.316C373.041 265.403 373.029 265.491 373.001 265.574C372.972 265.657 372.926 265.733 372.867 265.797C372.807 265.861 372.735 265.913 372.655 265.948C372.575 265.982 372.488 266 372.4 266V265.949ZM372.4 258.349C372.232 258.349 372.071 258.283 371.952 258.164C371.834 258.045 371.767 257.884 371.767 257.716V253.916C371.767 253.748 371.834 253.587 371.952 253.468C372.071 253.349 372.232 253.283 372.4 253.283C372.568 253.283 372.729 253.349 372.848 253.468C372.967 253.587 373.034 253.748 373.034 253.916V257.716C373.041 257.803 373.029 257.891 373.001 257.974C372.972 258.057 372.926 258.133 372.867 258.197C372.807 258.261 372.735 258.313 372.655 258.348C372.575 258.382 372.488 258.4 372.4 258.4V258.349ZM372.4 250.749C372.232 250.749 372.071 250.683 371.952 250.564C371.834 250.445 371.767 250.284 371.767 250.116V246.316C371.767 246.148 371.834 245.987 371.952 245.868C372.071 245.749 372.232 245.683 372.4 245.683C372.568 245.683 372.729 245.749 372.848 245.868C372.967 245.987 373.034 246.148 373.034 246.316V250.116C373.041 250.203 373.029 250.291 373.001 250.374C372.972 250.457 372.926 250.533 372.867 250.597C372.807 250.661 372.735 250.713 372.655 250.748C372.575 250.782 372.488 250.8 372.4 250.8V250.749ZM372.4 243.149C372.232 243.149 372.071 243.083 371.952 242.964C371.834 242.845 371.767 242.684 371.767 242.516V238.716C371.767 238.548 371.834 238.387 371.952 238.268C372.071 238.149 372.232 238.083 372.4 238.083C372.568 238.083 372.729 238.149 372.848 238.268C372.967 238.387 373.034 238.548 373.034 238.716V242.516C373.041 242.603 373.029 242.691 373.001 242.774C372.972 242.857 372.926 242.933 372.867 242.997C372.807 243.061 372.735 243.113 372.655 243.148C372.575 243.182 372.488 243.2 372.4 243.2V243.149ZM372.4 235.549C372.232 235.549 372.071 235.483 371.952 235.364C371.834 235.245 371.767 235.084 371.767 234.916V231.116C371.767 230.948 371.834 230.787 371.952 230.668C372.071 230.549 372.232 230.483 372.4 230.483C372.568 230.483 372.729 230.549 372.848 230.668C372.967 230.787 373.034 230.948 373.034 231.116V234.916C373.041 235.003 373.029 235.091 373.001 235.174C372.972 235.257 372.926 235.333 372.867 235.397C372.807 235.461 372.735 235.513 372.655 235.548C372.575 235.582 372.488 235.6 372.4 235.6V235.549ZM372.4 227.949C372.232 227.949 372.071 227.883 371.952 227.764C371.834 227.645 371.767 227.484 371.767 227.316V223.516C371.767 223.348 371.834 223.187 371.952 223.068C372.071 222.949 372.232 222.883 372.4 222.883C372.568 222.883 372.729 222.949 372.848 223.068C372.967 223.187 373.034 223.348 373.034 223.516V227.316C373.041 227.403 373.029 227.491 373.001 227.574C372.972 227.657 372.926 227.733 372.867 227.797C372.807 227.861 372.735 227.913 372.655 227.947C372.575 227.982 372.488 228 372.4 228V227.949ZM372.4 220.349C372.232 220.349 372.071 220.283 371.952 220.164C371.834 220.045 371.767 219.884 371.767 219.716V215.916C371.767 215.748 371.834 215.587 371.952 215.468C372.071 215.349 372.232 215.283 372.4 215.283C372.568 215.283 372.729 215.349 372.848 215.468C372.967 215.587 373.034 215.748 373.034 215.916V219.716C373.041 219.803 373.029 219.891 373.001 219.974C372.972 220.057 372.926 220.133 372.867 220.197C372.807 220.261 372.735 220.313 372.655 220.347C372.575 220.382 372.488 220.4 372.4 220.4V220.349ZM372.4 212.749C372.232 212.749 372.071 212.683 371.952 212.564C371.834 212.445 371.767 212.284 371.767 212.116V208.316C371.767 208.148 371.834 207.987 371.952 207.868C372.071 207.749 372.232 207.683 372.4 207.683C372.568 207.683 372.729 207.749 372.848 207.868C372.967 207.987 373.034 208.148 373.034 208.316V212.116C373.041 212.203 373.029 212.291 373.001 212.374C372.972 212.457 372.926 212.533 372.867 212.597C372.807 212.661 372.735 212.713 372.655 212.747C372.575 212.782 372.488 212.8 372.4 212.8V212.749Z" fill="#D1D3D4"/>
<path d="M258.4 209H254.6C254.432 209 254.271 208.933 254.152 208.814C254.034 208.696 253.967 208.535 253.967 208.367C253.967 208.199 254.034 208.038 254.152 207.919C254.271 207.8 254.432 207.733 254.6 207.733H258.4C258.568 207.733 258.729 207.8 258.848 207.919C258.967 208.038 259.033 208.199 259.033 208.367C259.033 208.535 258.967 208.696 258.848 208.814C258.729 208.933 258.568 209 258.4 209ZM250.8 209H247C246.832 209 246.671 208.933 246.552 208.814C246.434 208.696 246.367 208.535 246.367 208.367C246.367 208.199 246.434 208.038 246.552 207.919C246.671 207.8 246.832 207.733 247 207.733H250.8C250.968 207.733 251.129 207.8 251.248 207.919C251.367 208.038 251.433 208.199 251.433 208.367C251.433 208.535 251.367 208.696 251.248 208.814C251.129 208.933 250.968 209 250.8 209ZM243.2 209H239.4C239.232 209 239.071 208.933 238.952 208.814C238.834 208.696 238.767 208.535 238.767 208.367C238.767 208.199 238.834 208.038 238.952 207.919C239.071 207.8 239.232 207.733 239.4 207.733H243.2C243.368 207.733 243.529 207.8 243.648 207.919C243.767 208.038 243.833 208.199 243.833 208.367C243.833 208.535 243.767 208.696 243.648 208.814C243.529 208.933 243.368 209 243.2 209ZM235.6 209H231.8C231.632 209 231.471 208.933 231.352 208.814C231.234 208.696 231.167 208.535 231.167 208.367C231.167 208.199 231.234 208.038 231.352 207.919C231.471 207.8 231.632 207.733 231.8 207.733H235.6C235.768 207.733 235.929 207.8 236.048 207.919C236.167 208.038 236.233 208.199 236.233 208.367C236.233 208.535 236.167 208.696 236.048 208.814C235.929 208.933 235.768 209 235.6 209ZM228 209H224.2C224.032 209 223.871 208.933 223.752 208.814C223.634 208.696 223.567 208.535 223.567 208.367C223.567 208.199 223.634 208.038 223.752 207.919C223.871 207.8 224.032 207.733 224.2 207.733H228C228.168 207.733 228.329 207.8 228.448 207.919C228.567 208.038 228.633 208.199 228.633 208.367C228.633 208.535 228.567 208.696 228.448 208.814C228.329 208.933 228.168 209 228 209ZM220.4 209H216.6C216.432 209 216.271 208.933 216.152 208.814C216.034 208.696 215.967 208.535 215.967 208.367C215.967 208.199 216.034 208.038 216.152 207.919C216.271 207.8 216.432 207.733 216.6 207.733H220.4C220.568 207.733 220.729 207.8 220.848 207.919C220.967 208.038 221.033 208.199 221.033 208.367C221.033 208.535 220.967 208.696 220.848 208.814C220.729 208.933 220.568 209 220.4 209ZM212.8 209H209C208.832 209 208.671 208.933 208.552 208.814C208.434 208.696 208.367 208.535 208.367 208.367C208.367 208.199 208.434 208.038 208.552 207.919C208.671 207.8 208.832 207.733 209 207.733H212.8C212.968 207.733 213.129 207.8 213.248 207.919C213.367 208.038 213.433 208.199 213.433 208.367C213.433 208.535 213.367 208.696 213.248 208.814C213.129 208.933 212.968 209 212.8 209ZM205.2 209H201.4C201.232 209 201.071 208.933 200.952 208.814C200.834 208.696 200.767 208.535 200.767 208.367C200.767 208.199 200.834 208.038 200.952 207.919C201.071 207.8 201.232 207.733 201.4 207.733H205.2C205.368 207.733 205.529 207.8 205.648 207.919C205.767 208.038 205.833 208.199 205.833 208.367C205.833 208.535 205.767 208.696 205.648 208.814C205.529 208.933 205.368 209 205.2 209ZM197.6 209H193.8C193.632 209 193.471 208.933 193.352 208.814C193.233 208.696 193.167 208.535 193.167 208.367C193.167 208.199 193.233 208.038 193.352 207.919C193.471 207.8 193.632 207.733 193.8 207.733H197.6C197.768 207.733 197.929 207.8 198.048 207.919C198.167 208.038 198.233 208.199 198.233 208.367C198.233 208.535 198.167 208.696 198.048 208.814C197.929 208.933 197.768 209 197.6 209ZM190 209H186.2C186.032 209 185.871 208.933 185.752 208.814C185.633 208.696 185.567 208.535 185.567 208.367C185.567 208.199 185.633 208.038 185.752 207.919C185.871 207.8 186.032 207.733 186.2 207.733H190C190.168 207.733 190.329 207.8 190.448 207.919C190.567 208.038 190.633 208.199 190.633 208.367C190.633 208.535 190.567 208.696 190.448 208.814C190.329 208.933 190.168 209 190 209ZM182.4 209H178.6C178.432 209 178.271 208.933 178.152 208.814C178.033 208.696 177.967 208.535 177.967 208.367C177.967 208.199 178.033 208.038 178.152 207.919C178.271 207.8 178.432 207.733 178.6 207.733H182.4C182.568 207.733 182.729 207.8 182.848 207.919C182.967 208.038 183.033 208.199 183.033 208.367C183.033 208.535 182.967 208.696 182.848 208.814C182.729 208.933 182.568 209 182.4 209ZM174.8 209H171C170.832 209 170.671 208.933 170.552 208.814C170.433 208.696 170.367 208.535 170.367 208.367C170.367 208.199 170.433 208.038 170.552 207.919C170.671 207.8 170.832 207.733 171 207.733H174.8C174.968 207.733 175.129 207.8 175.248 207.919C175.367 208.038 175.433 208.199 175.433 208.367C175.433 208.535 175.367 208.696 175.248 208.814C175.129 208.933 174.968 209 174.8 209ZM167.2 209H163.4C163.232 209 163.071 208.933 162.952 208.814C162.833 208.696 162.767 208.535 162.767 208.367C162.767 208.199 162.833 208.038 162.952 207.919C163.071 207.8 163.232 207.733 163.4 207.733H167.2C167.368 207.733 167.529 207.8 167.648 207.919C167.767 208.038 167.833 208.199 167.833 208.367C167.833 208.535 167.767 208.696 167.648 208.814C167.529 208.933 167.368 209 167.2 209ZM159.6 209H155.8C155.632 209 155.471 208.933 155.352 208.814C155.233 208.696 155.167 208.535 155.167 208.367C155.167 208.199 155.233 208.038 155.352 207.919C155.471 207.8 155.632 207.733 155.8 207.733H159.6C159.768 207.733 159.929 207.8 160.048 207.919C160.167 208.038 160.233 208.199 160.233 208.367C160.233 208.535 160.167 208.696 160.048 208.814C159.929 208.933 159.768 209 159.6 209ZM152 209H148.2C148.032 209 147.871 208.933 147.752 208.814C147.633 208.696 147.567 208.535 147.567 208.367C147.567 208.199 147.633 208.038 147.752 207.919C147.871 207.8 148.032 207.733 148.2 207.733H152C152.168 207.733 152.329 207.8 152.448 207.919C152.567 208.038 152.633 208.199 152.633 208.367C152.633 208.535 152.567 208.696 152.448 208.814C152.329 208.933 152.168 209 152 209ZM144.4 209H140.6C140.432 209 140.271 208.933 140.152 208.814C140.033 208.696 139.967 208.535 139.967 208.367C139.967 208.199 140.033 208.038 140.152 207.919C140.271 207.8 140.432 207.733 140.6 207.733H144.4C144.568 207.733 144.729 207.8 144.848 207.919C144.967 208.038 145.033 208.199 145.033 208.367C145.033 208.535 144.967 208.696 144.848 208.814C144.729 208.933 144.568 209 144.4 209ZM136.8 209H133C132.832 209 132.671 208.933 132.552 208.814C132.433 208.696 132.367 208.535 132.367 208.367C132.367 208.199 132.433 208.038 132.552 207.919C132.671 207.8 132.832 207.733 133 207.733H136.8C136.968 207.733 137.129 207.8 137.248 207.919C137.367 208.038 137.433 208.199 137.433 208.367C137.433 208.535 137.367 208.696 137.248 208.814C137.129 208.933 136.968 209 136.8 209ZM129.2 209H125.4C125.232 209 125.071 208.933 124.952 208.814C124.833 208.696 124.767 208.535 124.767 208.367C124.767 208.199 124.833 208.038 124.952 207.919C125.071 207.8 125.232 207.733 125.4 207.733H129.2C129.368 207.733 129.529 207.8 129.648 207.919C129.767 208.038 129.833 208.199 129.833 208.367C129.833 208.535 129.767 208.696 129.648 208.814C129.529 208.933 129.368 209 129.2 209ZM121.6 209H117.8C117.632 209 117.471 208.933 117.352 208.814C117.233 208.696 117.167 208.535 117.167 208.367C117.167 208.199 117.233 208.038 117.352 207.919C117.471 207.8 117.632 207.733 117.8 207.733H121.6C121.768 207.733 121.929 207.8 122.048 207.919C122.167 208.038 122.233 208.199 122.233 208.367C122.233 208.535 122.167 208.696 122.048 208.814C121.929 208.933 121.768 209 121.6 209ZM114 209H110.2C110.032 209 109.871 208.933 109.752 208.814C109.633 208.696 109.567 208.535 109.567 208.367C109.567 208.199 109.633 208.038 109.752 207.919C109.871 207.8 110.032 207.733 110.2 207.733H114C114.168 207.733 114.329 207.8 114.448 207.919C114.567 208.038 114.633 208.199 114.633 208.367C114.633 208.535 114.567 208.696 114.448 208.814C114.329 208.933 114.168 209 114 209ZM106.4 209H102.6C102.432 209 102.271 208.933 102.152 208.814C102.033 208.696 101.967 208.535 101.967 208.367C101.967 208.199 102.033 208.038 102.152 207.919C102.271 207.8 102.432 207.733 102.6 207.733H106.4C106.568 207.733 106.729 207.8 106.848 207.919C106.967 208.038 107.033 208.199 107.033 208.367C107.033 208.535 106.967 208.696 106.848 208.814C106.729 208.933 106.568 209 106.4 209ZM98.8001 209H95.0001C94.8321 209 94.671 208.933 94.5522 208.814C94.4335 208.696 94.3667 208.535 94.3667 208.367C94.3667 208.199 94.4335 208.038 94.5522 207.919C94.671 207.8 94.8321 207.733 95.0001 207.733H98.8001C98.968 207.733 99.1291 207.8 99.2479 207.919C99.3667 208.038 99.4334 208.199 99.4334 208.367C99.4334 208.535 99.3667 208.696 99.2479 208.814C99.1291 208.933 98.968 209 98.8001 209ZM91.2001 209H87.4001C87.2321 209 87.071 208.933 86.9522 208.814C86.8334 208.696 86.7667 208.535 86.7667 208.367C86.7667 208.199 86.8334 208.038 86.9522 207.919C87.071 207.8 87.2321 207.733 87.4001 207.733H91.2001C91.368 207.733 91.5291 207.8 91.6479 207.919C91.7667 208.038 91.8334 208.199 91.8334 208.367C91.8334 208.535 91.7667 208.696 91.6479 208.814C91.5291 208.933 91.368 209 91.2001 209Z" fill="#D1D3D4"/>
<path d="M420.217 324.925H87.0834C86.9299 324.922 86.7836 324.86 86.675 324.751C86.5664 324.643 86.504 324.496 86.5007 324.343V102.727C86.5007 102.572 86.5621 102.424 86.6714 102.315C86.7807 102.205 86.9289 102.144 87.0834 102.144C87.2379 102.144 87.3861 102.205 87.4954 102.315C87.6047 102.424 87.6661 102.572 87.6661 102.727V323.773H420.217C420.369 323.773 420.515 323.832 420.624 323.939C420.733 324.045 420.796 324.19 420.799 324.343C420.796 324.496 420.734 324.643 420.625 324.751C420.517 324.86 420.37 324.922 420.217 324.925Z" fill="#231F20"/>
<path d="M403.877 263.948C404.007 262.108 403.616 260.269 402.749 258.641C401.899 257.563 401.104 256.443 400.368 255.284C399.355 253.131 400.064 250.585 399.823 248.216C399.606 246.225 398.712 244.37 397.29 242.959C396.023 241.693 394.465 240.844 393.275 239.539C391.337 237.399 390.741 234.384 389.677 231.711C388.112 227.935 385.401 224.745 381.925 222.591C384.041 226.847 379.227 232.256 381.406 236.525C382.103 237.867 383.42 238.83 383.939 240.249C385.206 243.681 381.089 247.38 382.394 250.775C383.04 252.472 384.851 253.447 385.7 255.056C386.84 257.235 385.941 259.857 386.042 262.301C386.169 265.683 388.221 268.698 390.665 271.041C392.185 272.498 393.87 273.752 395.517 275.069C397.48 276.64 398.303 278.299 400.039 275.766C402.442 272.284 403.775 268.177 403.877 263.948Z" fill="#231F20"/>
<path d="M406.068 265.886C405.435 263.277 404.991 260.439 406.068 257.969C407.271 255.183 410.273 253.219 410.615 250.205C410.843 248.229 409.843 246.227 410.235 244.277C410.628 242.326 412.224 240.996 413.541 239.552C416.555 236.223 418.343 231.964 418.608 227.481C420.635 229.89 422.276 232.599 423.472 235.511C424.052 236.977 424.29 238.556 424.167 240.128C424.044 241.7 423.564 243.223 422.763 244.581C422.241 245.18 421.814 245.854 421.496 246.582C420.901 248.507 422.547 250.306 423.396 252.13C423.906 253.171 424.12 254.333 424.015 255.488C423.91 256.642 423.49 257.746 422.801 258.679C421.078 260.819 417.734 261.668 416.898 264.29C416.686 265.263 416.589 266.258 416.607 267.254C416.423 268.994 415.721 270.639 414.592 271.976C413.463 273.313 411.958 274.28 410.273 274.753C408.234 275.247 408.272 274.436 407.905 272.726C407.512 270.421 406.6 268.191 406.068 265.886Z" fill="#231F20"/>
<path d="M399.57 247.101C398.126 242.035 397.543 236.841 396.011 231.901C394.714 227.988 393.126 224.178 391.261 220.501L397.493 223.123C399.481 223.959 401.647 224.96 402.559 226.923C404.193 230.318 401.293 234.663 402.977 238.019C403.72 239.112 404.541 240.149 405.435 241.123C407.271 243.656 406.993 247.228 405.979 250.217C405.549 251.484 403.661 258.172 401.977 256.323C401.305 255.575 401.242 252.814 400.963 251.801C400.558 250.205 400.026 248.659 399.57 247.101Z" fill="#231F20"/>
<path d="M402.876 313.766C401.609 305.571 397.746 276.665 397.708 276.374L398.975 276.209C398.975 276.501 402.901 305.343 404.143 313.589L402.876 313.766Z" fill="#231F20"/>
<path d="M404.523 321.505H403.256C403.332 311.765 407.411 274.499 409.754 271.928L410.691 272.789C408.905 274.727 404.599 310.688 404.523 321.505Z" fill="#231F20"/>
<path d="M406.6 319.656L405.333 319.593C406.258 298.604 401.812 254.524 401.761 254.081L403.028 253.954C403.104 254.397 407.563 298.566 406.6 319.656Z" fill="#231F20"/>
<path d="M392.312 290.257H415.467L413.845 316.565C413.567 321.125 410.185 324.659 406.119 324.659H401.635C397.569 324.659 394.199 321.125 393.921 316.565L392.312 290.257Z" fill="white"/>
<path d="M406.131 325.305H401.647C397.252 325.305 393.579 321.505 393.275 316.603L391.653 290.295C391.648 290.206 391.661 290.116 391.692 290.033C391.723 289.949 391.771 289.873 391.833 289.808C391.895 289.744 391.969 289.693 392.052 289.659C392.134 289.625 392.223 289.609 392.312 289.611H415.467C415.555 289.608 415.643 289.624 415.724 289.659C415.805 289.694 415.877 289.747 415.935 289.813C415.998 289.876 416.046 289.952 416.076 290.035C416.107 290.118 416.119 290.206 416.113 290.295L414.504 316.667C414.2 321.493 410.527 325.305 406.131 325.305ZM393.009 290.915L394.579 316.527C394.845 320.72 397.949 324.001 401.647 324.001H406.131C409.843 324.001 412.946 320.72 413.199 316.527L414.783 290.915H393.009Z" fill="#231F20"/>
<path d="M146.705 251.509H144.033C143.865 251.509 143.704 251.443 143.585 251.324C143.466 251.205 143.399 251.044 143.399 250.876C143.403 250.709 143.47 250.55 143.588 250.432C143.707 250.314 143.866 250.246 144.033 250.243H146.705C146.873 250.243 147.034 250.309 147.153 250.428C147.272 250.547 147.339 250.708 147.339 250.876C147.339 251.044 147.272 251.205 147.153 251.324C147.034 251.443 146.873 251.509 146.705 251.509ZM140.233 251.509H136.433C136.265 251.509 136.104 251.443 135.985 251.324C135.866 251.205 135.799 251.044 135.799 250.876C135.803 250.709 135.87 250.55 135.988 250.432C136.107 250.314 136.266 250.246 136.433 250.243H140.233C140.401 250.243 140.562 250.309 140.681 250.428C140.799 250.547 140.866 250.708 140.866 250.876C140.866 251.044 140.799 251.205 140.681 251.324C140.562 251.443 140.401 251.509 140.233 251.509ZM132.633 251.509H128.833C128.665 251.509 128.504 251.443 128.385 251.324C128.266 251.205 128.199 251.044 128.199 250.876C128.203 250.709 128.27 250.55 128.388 250.432C128.507 250.314 128.666 250.246 128.833 250.243H132.633C132.801 250.243 132.962 250.309 133.081 250.428C133.199 250.547 133.266 250.708 133.266 250.876C133.266 251.044 133.199 251.205 133.081 251.324C132.962 251.443 132.801 251.509 132.633 251.509ZM125.033 251.509H121.233C121.065 251.509 120.904 251.443 120.785 251.324C120.666 251.205 120.599 251.044 120.599 250.876C120.603 250.709 120.67 250.55 120.788 250.432C120.907 250.314 121.066 250.246 121.233 250.243H125.033C125.201 250.243 125.362 250.309 125.481 250.428C125.599 250.547 125.666 250.708 125.666 250.876C125.666 251.044 125.599 251.205 125.481 251.324C125.362 251.443 125.201 251.509 125.033 251.509ZM117.433 251.509H113.633C113.465 251.509 113.304 251.443 113.185 251.324C113.066 251.205 112.999 251.044 112.999 250.876C113.003 250.709 113.07 250.55 113.188 250.432C113.307 250.314 113.466 250.246 113.633 250.243H117.433C117.601 250.243 117.762 250.309 117.881 250.428C117.999 250.547 118.066 250.708 118.066 250.876C118.066 251.044 117.999 251.205 117.881 251.324C117.762 251.443 117.601 251.509 117.433 251.509ZM109.833 251.509H106.033C105.865 251.509 105.704 251.443 105.585 251.324C105.466 251.205 105.399 251.044 105.399 250.876C105.403 250.709 105.47 250.55 105.588 250.432C105.707 250.314 105.866 250.246 106.033 250.243H109.833C110.001 250.243 110.162 250.309 110.281 250.428C110.399 250.547 110.466 250.708 110.466 250.876C110.466 251.044 110.399 251.205 110.281 251.324C110.162 251.443 110.001 251.509 109.833 251.509ZM102.233 251.509H98.4327C98.2647 251.509 98.1036 251.443 97.9848 251.324C97.8661 251.205 97.7993 251.044 97.7993 250.876C97.8026 250.709 97.8704 250.55 97.9884 250.432C98.1065 250.314 98.2657 250.246 98.4327 250.243H102.233C102.401 250.243 102.562 250.309 102.681 250.428C102.799 250.547 102.866 250.708 102.866 250.876C102.866 251.044 102.799 251.205 102.681 251.324C102.562 251.443 102.401 251.509 102.233 251.509ZM94.6327 251.509H90.8327C90.6647 251.509 90.5036 251.443 90.3848 251.324C90.2661 251.205 90.1993 251.044 90.1993 250.876C90.2026 250.709 90.2703 250.55 90.3884 250.432C90.5065 250.314 90.6657 250.246 90.8327 250.243H94.6327C94.8006 250.243 94.9617 250.309 95.0805 250.428C95.1993 250.547 95.266 250.708 95.266 250.876C95.266 251.044 95.1993 251.205 95.0805 251.324C94.9617 251.443 94.8006 251.509 94.6327 251.509Z" fill="#D1D3D4"/>
<path d="M244.315 190.266C244.235 190.266 244.156 190.251 244.082 190.22C244.008 190.19 243.941 190.145 243.884 190.089C243.374 189.551 242.762 189.12 242.083 188.822C241.405 188.524 240.673 188.365 239.932 188.353C239.823 188.355 239.715 188.325 239.623 188.267C239.53 188.209 239.456 188.126 239.409 188.027C239.363 187.928 239.345 187.818 239.359 187.71C239.373 187.602 239.418 187.5 239.489 187.416L247.684 177.283C247.732 177.222 247.791 177.172 247.859 177.135C247.926 177.098 248.001 177.075 248.077 177.067C248.154 177.058 248.231 177.065 248.305 177.087C248.379 177.109 248.448 177.145 248.507 177.194C248.605 177.275 248.672 177.387 248.697 177.511C249.535 177.869 250.46 177.975 251.357 177.815C251.469 177.796 251.583 177.81 251.686 177.855C251.79 177.9 251.878 177.974 251.94 178.068C252 178.163 252.031 178.273 252.031 178.385C252.031 178.497 252 178.606 251.94 178.701L244.796 190C244.751 190.076 244.688 190.14 244.613 190.186C244.538 190.232 244.453 190.26 244.365 190.266H244.315ZM241.059 187.302C242.216 187.519 243.298 188.029 244.201 188.784L250.369 179.043C249.605 179.015 248.853 178.843 248.153 178.537L241.059 187.302Z" fill="#231F20"/>
<path d="M160.347 190.583C160.23 190.58 160.116 190.545 160.018 190.481C159.94 190.428 159.876 190.356 159.832 190.272C159.788 190.188 159.765 190.095 159.765 190V187.163C159.765 187.079 159.783 186.995 159.818 186.919C159.853 186.842 159.904 186.774 159.967 186.719C163.641 183.54 170.709 183.109 171.013 183.084C171.092 183.081 171.171 183.094 171.245 183.122C171.319 183.15 171.387 183.193 171.443 183.249C171.501 183.302 171.546 183.367 171.577 183.439C171.607 183.511 171.622 183.588 171.621 183.667V188.341C171.621 188.425 171.603 188.508 171.568 188.585C171.533 188.661 171.482 188.729 171.418 188.784C171.356 188.837 171.283 188.877 171.205 188.901C171.126 188.925 171.044 188.933 170.962 188.923C166.187 188.239 160.613 190.507 160.563 190.532C160.496 190.565 160.422 190.583 160.347 190.583ZM160.867 187.467V189.202C163.919 188.075 167.167 187.576 170.417 187.733V184.3C168.733 184.465 163.742 185.149 160.867 187.467Z" fill="#231F20"/>
<path d="M186.973 130.467H186.846C181.387 129.2 178.473 122.335 178.347 122.043C178.305 121.934 178.296 121.814 178.321 121.7C178.346 121.585 178.403 121.48 178.486 121.397L182.286 117.838C182.36 117.771 182.45 117.723 182.547 117.698C182.644 117.674 182.746 117.674 182.843 117.699C182.941 117.728 183.03 117.784 183.099 117.86C183.168 117.936 183.215 118.029 183.236 118.129C184.123 121.853 188.885 124.463 189.835 124.868C189.974 124.945 190.078 125.072 190.127 125.223C190.158 125.295 190.174 125.372 190.174 125.451C190.174 125.529 190.158 125.607 190.127 125.679L187.467 130.15C187.421 130.243 187.351 130.321 187.264 130.377C187.177 130.433 187.076 130.464 186.973 130.467ZM179.588 121.942C180.221 123.285 182.717 128.035 186.694 129.213L188.733 125.577C187.049 124.653 183.667 122.461 182.4 119.244L179.588 121.942Z" fill="#231F20"/>
<path d="M130.137 239.4C124.969 239.4 122.119 232.547 122.005 232.256C121.963 232.161 121.948 232.055 121.964 231.952C121.98 231.848 122.025 231.752 122.094 231.673L124.703 228.469C124.772 228.377 124.868 228.31 124.977 228.276C125.086 228.241 125.203 228.243 125.311 228.279C125.422 228.307 125.521 228.368 125.596 228.454C125.671 228.54 125.717 228.647 125.729 228.76C126.198 232.332 129.213 233.32 131.201 233.979C132.164 234.295 132.797 234.511 133.038 234.992C133.085 235.078 133.109 235.173 133.109 235.271C133.109 235.368 133.085 235.464 133.038 235.549L130.897 239.109C130.849 239.191 130.78 239.259 130.699 239.308C130.617 239.356 130.524 239.384 130.429 239.387L130.137 239.4ZM123.209 232.129C123.804 233.396 126.274 238.171 130.049 238.247L131.759 235.397C131.505 235.296 131.151 235.182 130.847 235.081C129.048 234.485 125.881 233.447 124.843 230.128L123.209 232.129Z" fill="#231F20"/>
<path d="M207.252 229.786C207.167 229.784 207.083 229.764 207.007 229.726C206.931 229.689 206.863 229.636 206.809 229.571L204.871 227.151C204.813 227.074 204.775 226.985 204.759 226.89C204.744 226.795 204.752 226.698 204.782 226.607C205.542 224.314 210.039 221.122 210.545 220.767C210.615 220.714 210.696 220.679 210.783 220.666C210.869 220.653 210.957 220.661 211.039 220.691C211.123 220.713 211.2 220.754 211.264 220.811C211.327 220.868 211.377 220.94 211.407 221.021L212.61 223.909C212.641 223.981 212.658 224.058 212.658 224.137C212.658 224.215 212.641 224.293 212.61 224.365C212.581 224.438 212.537 224.505 212.48 224.559C212.423 224.614 212.355 224.656 212.281 224.681C209.874 225.555 207.784 229.431 207.771 229.469C207.727 229.555 207.662 229.629 207.583 229.684C207.503 229.739 207.411 229.774 207.315 229.786H207.252ZM205.985 226.695L207.176 228.177C208.186 226.412 209.612 224.921 211.331 223.833L210.621 222.135C209.177 223.225 206.695 225.264 205.985 226.733V226.695Z" fill="#231F20"/>
</svg>
