<svg width="106" height="106" viewBox="0 0 106 106" fill="none" xmlns="http://www.w3.org/2000/svg">
<rect width="106" height="106" rx="30" fill="#42A69B"/>
<path d="M53.0415 36.7018V52.5351M53.0415 52.5351L67.2082 44.6646M53.0415 52.5351L38.8748 44.6646M53.0415 52.5351V68.3685M67.2082 60.4055L54.3366 53.2546C53.8639 52.992 53.6275 52.8607 53.3773 52.8092C53.1557 52.7637 52.9273 52.7637 52.7058 52.8092C52.4555 52.8607 52.2191 52.992 51.7465 53.2546L38.8748 60.4055M68.0415 59.2994V45.7709C68.0415 45.1998 68.0415 44.9143 67.9574 44.6596C67.8829 44.4343 67.7612 44.2275 67.6005 44.053C67.4187 43.8558 67.1691 43.7171 66.6699 43.4398L54.3366 36.5879C53.8639 36.3253 53.6275 36.194 53.3773 36.1426C53.1557 36.097 52.9273 36.097 52.7058 36.1426C52.4555 36.194 52.2191 36.3253 51.7465 36.5879L39.4131 43.4398C38.9139 43.7171 38.6643 43.8558 38.4826 44.053C38.3218 44.2275 38.2001 44.4343 38.1256 44.6596C38.0415 44.9143 38.0415 45.1998 38.0415 45.7709V59.2994C38.0415 59.8705 38.0415 60.156 38.1256 60.4107C38.2001 60.636 38.3218 60.8428 38.4826 61.0172C38.6643 61.2145 38.9139 61.3531 39.4131 61.6305L51.7465 68.4823C52.2191 68.7449 52.4555 68.8762 52.7058 68.9277C52.9273 68.9733 53.1557 68.9733 53.3773 68.9277C53.6275 68.8762 53.8639 68.7449 54.3366 68.4823L66.6699 61.6305C67.1691 61.3531 67.4187 61.2145 67.6005 61.0172C67.7612 60.8428 67.8829 60.636 67.9574 60.4107C68.0415 60.156 68.0415 59.8705 68.0415 59.2994Z" stroke="#FF5555" stroke-width="2" stroke-linecap="round" stroke-linejoin="round"/>
</svg>
