<svg width="106" height="106" viewBox="0 0 106 106" fill="none" xmlns="http://www.w3.org/2000/svg">
<rect width="106" height="106" rx="30" fill="#42A69B"/>
<path d="M67.1667 59.6667H46.3333M46.3333 59.6667V38.8333M46.3333 59.6667L38.8333 67.1667M38.8333 46.3333H59.6667M59.6667 46.3333V67.1667M59.6667 46.3333L67.1667 38.8333M68 58.5621V39.3333C68 38.8666 68 38.6333 67.9092 38.455C67.8293 38.2982 67.7018 38.1707 67.545 38.0908C67.3667 38 67.1334 38 66.6667 38H47.4379C47.0303 38 46.8264 38 46.6346 38.0461C46.4646 38.0869 46.302 38.1542 46.1529 38.2456C45.9847 38.3487 45.8405 38.4928 45.5523 38.781L38.781 45.5523C38.4928 45.8405 38.3487 45.9847 38.2456 46.1529C38.1542 46.302 38.0869 46.4646 38.0461 46.6346C38 46.8264 38 47.0303 38 47.4379V66.6667C38 67.1334 38 67.3667 38.0908 67.545C38.1707 67.7018 38.2982 67.8293 38.455 67.9092C38.6333 68 38.8666 68 39.3333 68H58.5621C58.9697 68 59.1736 68 59.3654 67.9539C59.5354 67.9131 59.698 67.8458 59.8471 67.7544C60.0153 67.6513 60.1595 67.5072 60.4477 67.219L67.2189 60.4477C67.5072 60.1595 67.6513 60.0153 67.7544 59.8471C67.8458 59.698 67.9131 59.5354 67.9539 59.3654C68 59.1736 68 58.9697 68 58.5621Z" stroke="#FF5555" stroke-width="2" stroke-linecap="round" stroke-linejoin="round"/>
</svg>
