<svg width="106" height="106" viewBox="0 0 106 106" fill="none" xmlns="http://www.w3.org/2000/svg">
<rect width="106" height="106" rx="30" fill="#42A69B"/>
<path d="M56.5917 48H52.425C51.0443 48 49.925 49.1193 49.925 50.5C49.925 51.8808 51.0443 53 52.425 53H54.0917C55.4724 53 56.5917 54.1193 56.5917 55.5C56.5917 56.8808 55.4724 58 54.0917 58H49.925M53.2584 46.3334V48M53.2584 58V59.6667M63.2584 53H63.275M43.2584 53H43.275M36.5917 46.6667L36.5917 59.3334C36.5917 61.2002 36.5917 62.1336 36.955 62.8467C37.2746 63.4739 37.7845 63.9838 38.4117 64.3034C39.1248 64.6667 40.0582 64.6667 41.925 64.6667L64.5917 64.6667C66.4586 64.6667 67.392 64.6667 68.105 64.3034C68.7322 63.9838 69.2422 63.4739 69.5617 62.8467C69.925 62.1336 69.925 61.2002 69.925 59.3334V46.6667C69.925 44.7999 69.925 43.8664 69.5617 43.1534C69.2422 42.5262 68.7322 42.0163 68.105 41.6967C67.392 41.3334 66.4585 41.3334 64.5917 41.3334L41.925 41.3334C40.0582 41.3334 39.1248 41.3334 38.4117 41.6967C37.7845 42.0163 37.2746 42.5262 36.955 43.1534C36.5917 43.8664 36.5917 44.7999 36.5917 46.6667ZM64.0917 53C64.0917 53.4603 63.7186 53.8334 63.2584 53.8334C62.7981 53.8334 62.425 53.4603 62.425 53C62.425 52.5398 62.7981 52.1667 63.2584 52.1667C63.7186 52.1667 64.0917 52.5398 64.0917 53ZM44.0917 53C44.0917 53.4603 43.7186 53.8334 43.2584 53.8334C42.7981 53.8334 42.425 53.4603 42.425 53C42.425 52.5398 42.7981 52.1667 43.2584 52.1667C43.7186 52.1667 44.0917 52.5398 44.0917 53Z" stroke="#FF5555" stroke-width="2" stroke-linecap="round" stroke-linejoin="round"/>
</svg>
