<svg width="759" height="569" viewBox="0 0 759 569" fill="none" xmlns="http://www.w3.org/2000/svg">
<path d="M386.046 553.428L665.928 388.096C674.846 383.089 682.474 374.819 673.802 369.509L392.972 207.704C388.76 205.087 382.365 203.38 378.077 205.807L84.2111 376.299C75.2928 381.477 73.6989 395.91 82.6172 401.088L349.14 553.163C354.737 556.412 361.086 558.145 367.558 558.192C374.03 558.238 380.403 556.596 386.046 553.428Z" fill="#FDA006"/>
<path d="M346.408 296.221L387.09 315.795C388.62 316.53 389.921 317.668 390.854 319.087C391.786 320.505 392.315 322.15 392.383 323.846C392.451 325.542 392.057 327.224 391.241 328.713C390.426 330.201 389.22 331.44 387.754 332.296L291.38 388.494C289.298 389.708 286.828 390.072 284.484 389.511C282.14 388.949 280.104 387.504 278.8 385.479L255.347 348.987" fill="#56403D"/>
<path d="M125.235 202.109L449.48 15.363C451.704 14.0817 454.226 13.4079 456.793 13.4093C459.361 13.4108 461.882 14.0874 464.105 15.3712C466.328 16.6551 468.173 18.5009 469.456 20.7234C470.739 22.9459 471.415 25.4667 471.415 28.0327V222.289C471.415 224.422 470.855 226.518 469.789 228.365C468.723 230.213 467.19 231.748 465.343 232.816L119.675 432.25C118.482 432.934 117.131 433.293 115.755 433.291C114.38 433.289 113.029 432.927 111.838 432.239C110.647 431.552 109.658 430.564 108.968 429.374C108.279 428.185 107.915 426.835 107.911 425.46V232C107.917 225.936 109.522 219.98 112.563 214.733C115.604 209.485 119.975 205.131 125.235 202.109Z" fill="#42A69B"/>
<path d="M449.442 30.0432L135.045 210.871C131.688 212.804 128.899 215.588 126.961 218.941C125.022 222.294 124.001 226.098 124.002 229.971V375.54C124.004 376.933 124.373 378.301 125.07 379.508C125.767 380.714 126.769 381.717 127.975 382.415C129.181 383.114 130.549 383.484 131.942 383.489C133.336 383.494 134.707 383.134 135.918 382.444L456.595 198.467C457.794 197.78 458.791 196.788 459.484 195.593C460.177 194.397 460.542 193.04 460.542 191.658V36.4539C460.549 35.1528 460.211 33.8731 459.563 32.7446C458.916 31.616 457.981 30.6787 456.854 30.0278C455.727 29.3769 454.447 29.0355 453.146 29.0382C451.844 29.0409 450.566 29.3876 449.442 30.0432Z" fill="white"/>
<path d="M325.313 298.294C326.129 294.056 323.788 290.042 320.083 289.329C316.378 288.616 312.713 291.474 311.897 295.711C311.081 299.949 313.422 303.963 317.126 304.676C320.831 305.389 324.496 302.531 325.313 298.294Z" fill="#AB643C"/>
<path d="M331.095 270.541C337.538 250.482 350.34 233.065 367.565 220.924C388.191 206.85 410.467 207.913 415.192 189.97C420.543 169.581 435.647 141.776 460.523 134.853V190.293C460.525 192.393 459.969 194.457 458.913 196.273C457.856 198.089 456.336 199.592 454.508 200.629L331.095 270.541Z" fill="#3D44AE"/>
<path d="M123.983 284.5C123.983 284.5 162.065 268.208 169.048 238.79C173.488 220.127 182.577 198.088 201.306 189.572C206.998 186.954 213.108 185.627 218.099 181.568C222.56 177.713 226.531 173.324 229.92 168.5C234.386 162.516 238.346 156.172 241.761 149.533L129.372 214.02C127.758 214.944 126.417 216.278 125.484 217.887C124.551 219.495 124.059 221.322 124.059 223.181L123.983 284.5Z" fill="#3F46AE"/>
<path d="M460.922 129.41C460.922 128.916 460.922 128.423 460.922 127.911C444.432 129.618 435.343 144.64 428.968 158.846C420.069 178.704 409.177 199.264 386.976 206.262C377.489 209.278 367.887 210.17 359.5 216.011C353.085 220.734 347.63 226.637 343.428 233.404C334.074 247.648 328.647 264.623 318.078 277.881L319.748 277.274C320.98 276.578 322.247 275.945 323.543 275.377C323.998 275.168 324.435 275.017 324.871 274.865C330.042 266.645 334.7 258.112 338.818 249.317C343.277 240.478 348.305 231.526 355.345 224.489C364.832 215.139 375.876 213.659 387.982 209.961C403.276 205.295 414.433 193.801 422.516 180.392C432.516 163.796 438.228 134.227 460.922 131.723V129.41Z" fill="#FFB3A6"/>
<path d="M262.576 137.148C261.257 138.144 259.832 138.99 258.326 139.671C253.076 154.868 242.617 167.721 228.801 175.954C214.493 184.356 197.226 187.523 184.475 198.6C170.775 210.53 165.993 230.711 158.327 246.567C150.206 263.352 139.713 279.094 123.565 288.635C123.757 290.025 123.877 291.424 123.926 292.826C138.821 284.614 149.523 271.204 157.606 256.316C167.815 237.52 172.786 210.985 191.154 198.24C205.746 188.149 223.962 185.134 238.117 174.209C250.325 164.672 259.156 151.478 263.316 136.56L262.576 137.148Z" fill="#FFB3A6"/>
<path d="M160.111 340.167V340.641C160.111 342.082 160.487 343.497 161.203 344.748C161.919 345.998 162.949 347.04 164.191 347.77C165.433 348.5 166.845 348.893 168.286 348.91C169.727 348.928 171.148 348.568 172.407 347.868L237.434 311.736C238.723 311.02 239.796 309.972 240.543 308.701C241.291 307.431 241.685 305.984 241.685 304.51C241.684 303.073 241.31 301.661 240.597 300.414C239.885 299.166 238.86 298.125 237.623 297.394C236.385 296.662 234.979 296.266 233.542 296.243C232.105 296.221 230.686 296.573 229.427 297.265L164.399 332.922C163.101 333.635 162.018 334.684 161.264 335.958C160.51 337.233 160.111 338.686 160.111 340.167Z" fill="#FFB3A6"/>
<path d="M249.787 236.761L159.048 288.407C158.56 288.704 158.21 289.182 158.075 289.737C157.94 290.292 158.03 290.878 158.327 291.366C158.624 291.854 159.103 292.204 159.658 292.339C160.213 292.474 160.799 292.383 161.288 292.087L252.026 240.44C252.459 240.128 252.76 239.666 252.87 239.143C252.98 238.621 252.891 238.076 252.621 237.616C252.35 237.156 251.917 236.813 251.407 236.655C250.897 236.497 250.346 236.535 249.863 236.761H249.787Z" fill="#B3B3B3"/>
<path d="M249.787 250.151L159.048 301.817C158.56 302.113 158.21 302.592 158.075 303.147C157.94 303.702 158.03 304.287 158.327 304.775C158.624 305.263 159.103 305.613 159.658 305.748C160.213 305.884 160.799 305.793 161.288 305.496L252.026 253.85C252.459 253.538 252.76 253.075 252.87 252.553C252.98 252.03 252.891 251.486 252.621 251.025C252.35 250.565 251.917 250.222 251.407 250.064C250.897 249.906 250.346 249.944 249.863 250.17L249.787 250.151Z" fill="#B3B3B3"/>
<path d="M249.787 263.788L159.048 315.454C158.56 315.75 158.21 316.229 158.075 316.784C157.94 317.339 158.03 317.924 158.327 318.412C158.624 318.9 159.103 319.25 159.658 319.386C160.213 319.521 160.799 319.43 161.288 319.133L251.931 267.43C252.364 267.118 252.665 266.655 252.775 266.133C252.885 265.61 252.796 265.066 252.526 264.606C252.255 264.145 251.823 263.803 251.312 263.644C250.802 263.486 250.252 263.524 249.768 263.75L249.787 263.788Z" fill="#B3B3B3"/>
<path d="M394.653 157.849C402.997 140.997 400.982 122.993 390.152 117.636C379.323 112.279 363.78 121.598 355.437 138.45C347.093 155.302 349.109 173.305 359.938 178.662C370.767 184.019 386.31 174.701 394.653 157.849Z" stroke="#A2C609" stroke-width="2" stroke-miterlimit="10"/>
<path d="M355.072 189.041C364.456 170.086 361.039 149.266 347.439 142.538C333.839 135.811 315.206 145.723 305.821 164.678C296.437 183.633 299.854 204.453 313.454 211.18C327.054 217.908 345.687 207.996 355.072 189.041Z" fill="#C5E0FE"/>
<path d="M330.45 176.864L349.425 143.654C349.425 143.654 336.844 133.734 317.945 148.888L330.45 176.864Z" fill="#F9AA43"/>
<path d="M330.45 176.864L304.511 167.533C304.511 167.533 307.509 158.656 317.907 148.888L330.45 176.864Z" fill="#768CFB"/>
<path d="M277.263 149.609L299.35 136.181C302.48 134.284 299.615 129.353 296.484 131.268L274.379 144.697C271.248 146.593 274.113 151.525 277.244 149.609H277.263Z" fill="#E6E6E6"/>
<path d="M365.421 97.6214L387.508 84.193C390.638 82.2964 387.773 77.365 384.642 79.2807L362.555 92.7091C359.425 94.6057 362.29 99.5371 365.421 97.6214Z" fill="#E6E6E6"/>
<path d="M413.655 72.6234L435.742 59.195C438.873 57.2983 436.007 52.367 432.877 54.2826L410.771 67.711C407.64 69.6077 410.505 74.539 413.636 72.6234H413.655Z" fill="#E6E6E6"/>
<path d="M318.913 125.009L341 111.581C344.131 109.684 341.265 104.753 338.134 106.669L316.048 120.097C312.917 121.994 315.782 126.925 318.913 125.009Z" fill="#E6E6E6"/>
<path d="M367.963 529.739V484.826L408.171 462.369V506.922L367.963 529.739Z" fill="#B24F28"/>
<path d="M367.963 484.826L328.837 462.369C328.837 462.369 327.755 507.643 328.837 508.364C329.918 509.084 367.963 529.739 367.963 529.739V484.826Z" fill="#C96336"/>
<path d="M328.818 462.369L367.963 438.471L408.171 462.369L367.963 484.826L328.818 462.369Z" fill="#DB7D58"/>
<path d="M343.732 453.284L384.472 475.608V499.051L396.179 493.133V469.065L355.44 446.115L343.732 453.284Z" fill="#FDEDCB"/>
<path d="M453.654 205.049C453.654 205.049 459.157 204.081 460.485 202.28C461.814 200.478 460.485 199.472 460.485 199.472C460.485 199.472 465.893 196.912 465.077 195.129C464.261 193.346 459.707 188.946 456.785 188.946C453.863 188.946 444.413 198.543 444.413 198.543" fill="#EEAD97"/>
<path d="M446.861 449.188C446.813 449.714 446.567 450.203 446.173 450.555C445.778 450.907 445.265 451.096 444.736 451.084C442.839 451.236 424.585 443.403 420.069 454.024C419.805 454.68 419.78 455.408 419.998 456.081C420.217 456.753 420.665 457.328 421.264 457.704C430.319 463.524 440.563 467.244 451.244 468.59C454.896 469.34 458.692 468.86 462.041 467.225L461.187 447.196L446.861 449.188Z" fill="#C24327"/>
<path d="M490.921 439.913C490.921 439.913 473.844 428.798 470.903 435.854C468.607 441.297 488.986 457.135 496.481 458.386C503.976 459.638 505.001 451.767 505.001 451.767L504.754 438.851" fill="#C24327"/>
<path d="M457.544 278.146C457.544 278.146 440.467 314.904 440.77 447.67C440.77 447.67 444.243 456.85 468.91 450.534L478.929 331.917L483.255 441.316C483.255 441.316 494.849 449.908 512.856 439.59C512.856 439.59 508.815 293.225 498.967 266.994" fill="#333856"/>
<path d="M499.783 271.432C504.052 253.357 512.856 206.68 503.426 199.567C495.21 193.365 476.064 200.098 461.434 209.98C449.442 218.079 454.337 265.249 456.406 281.617C472.307 283.571 487.126 280.801 499.783 271.432Z" fill="#C24327"/>
<path d="M503.122 199.472C503.122 199.472 509.118 202.431 511.452 212.749C513.786 223.067 517.714 249.317 511.547 256.372C505.38 263.428 494.811 252.579 494.033 251.839" fill="#C24327"/>
<path d="M468.455 205.864C468.455 205.864 446.273 217.396 445.552 217.642C444.831 217.889 456.007 209.089 456.007 209.089C456.007 209.089 454.736 193.517 443.161 197.177C443.161 197.177 405.875 225.798 426.634 243.76C436.558 252.333 468.379 238.695 468.379 238.695" fill="#C24327"/>
<path d="M463.901 173.185C463.901 173.185 463.483 197.177 470.182 197.841C472.812 198.272 475.511 197.84 477.874 196.609C480.238 195.378 482.139 193.415 483.293 191.013" fill="#EEAD97"/>
<path d="M473.597 194.769V206.149C473.597 206.149 479.726 208.501 488.303 202.792V193.46" fill="#EEAD97"/>
<path d="M465.115 177.623C465.115 177.623 456.956 169.145 462.288 161.918C467.62 154.692 473.673 158.467 473.673 158.467C473.673 158.467 474.925 155.318 481.263 154.673C487.601 154.028 490.048 160.363 492.648 161.899C495.248 163.436 499.251 168.083 499.555 171.895C499.858 175.707 494.223 197.045 487.62 198.619C481.016 200.193 472.345 202.735 465.115 177.623Z" fill="#C24327"/>
<path opacity="0.32" d="M528.036 398.3C533.352 400.972 538.51 403.948 543.482 407.214C551.357 412.449 563.102 416.546 570.37 422.577L626.953 390.049L550.598 377.74L521.812 394.677C523.938 395.828 526.012 397.036 528.036 398.3Z" fill="url(#paint0_linear_14_2959)"/>
<path d="M586.327 414.289V368.257L545.114 345.193V390.903L586.327 414.289Z" fill="#42A69B"/>
<path d="M586.328 368.257L626.46 345.193C626.46 345.193 627.579 391.605 626.46 392.344C625.34 393.084 586.328 414.289 586.328 414.289V368.257Z" fill="#42A69B"/>
<path d="M626.46 345.231L586.346 320.726L545.114 345.231L586.346 368.257L626.46 345.231Z" fill="#42A69B"/>
<path d="M545.114 345.231L530.199 319.38L572.457 294.552L586.346 320.726L545.114 345.231Z" fill="#42A69B"/>
<path opacity="0.49" d="M586.328 368.257L626.46 345.193C626.46 345.193 627.579 391.605 626.46 392.344C625.34 393.084 586.328 414.289 586.328 414.289V368.257Z" fill="#606060"/>
<path opacity="0.8" d="M626.953 344.416L586.84 319.911L545.607 344.416L586.84 367.441L626.953 344.416Z" fill="#606060"/>
<path d="M626.46 345.231L637.351 321.997L592.969 346.161L586.346 368.257L626.46 345.231Z" fill="#42A69B"/>
<defs>
<linearGradient id="paint0_linear_14_2959" x1="537.941" y1="444.294" x2="569.535" y2="399.33" gradientUnits="userSpaceOnUse">
<stop stop-color="white" stop-opacity="0"/>
<stop offset="1" stop-color="#D43500"/>
</linearGradient>
</defs>
</svg>
