<svg width="133" height="31" viewBox="0 0 133 31" fill="none" xmlns="http://www.w3.org/2000/svg">
<path d="M0.384766 29.3438C1.58789 24.2852 2.54492 20.2246 3.25586 17.1621C3.99414 14.0996 4.55469 11.7617 4.9375 10.1484C5.375 8.23438 5.67578 6.9082 5.83984 6.16992C5.92188 5.65039 5.99023 5.14453 6.04492 4.65234C6.09961 4.21484 6.12695 3.76367 6.12695 3.29883C6.12695 2.83398 6.08594 2.41016 6.00391 2.02734C6.22266 1.89062 6.45508 1.78125 6.70117 1.69922C6.97461 1.61719 7.23438 1.54883 7.48047 1.49414C7.78125 1.41211 8.08203 1.34375 8.38281 1.28906C8.68359 1.23437 8.95703 1.20703 9.20312 1.20703C9.42188 1.20703 9.62695 1.23437 9.81836 1.28906C10.0098 1.31641 10.1328 1.39844 10.1875 1.53516C10.3516 1.67188 10.4199 1.94531 10.3926 2.35547C10.3926 2.76562 10.3652 3.18945 10.3105 3.62695C10.2012 4.14648 10.0781 4.70703 9.94141 5.30859C9.61328 6.48437 9.16211 8.17969 8.58789 10.3945C8.0957 12.2812 7.42578 14.8516 6.57812 18.1055C5.75781 21.3594 4.71875 25.4609 3.46094 30.4102C3.32422 30.5469 3.16016 30.6426 2.96875 30.6973C2.77734 30.752 2.59961 30.7793 2.43555 30.7793C2.24414 30.7793 2.03906 30.7656 1.82031 30.7383C1.62891 30.6836 1.4375 30.6016 1.24609 30.4922C1.08203 30.3828 0.917969 30.2324 0.753906 30.041C0.589844 29.877 0.466797 29.6445 0.384766 29.3438ZM28.7676 21.4688C27.9473 22.6719 27.0176 23.8477 25.9785 24.9961C24.9395 26.1172 23.832 27.1289 22.6562 28.0312C21.5078 28.9062 20.3184 29.6172 19.0879 30.1641C17.8848 30.7109 16.709 30.9844 15.5605 30.9844C14.959 30.9844 14.3027 30.834 13.5918 30.5332C12.9082 30.2598 12.2793 29.8223 11.7051 29.2207C11.1309 28.6191 10.666 27.8398 10.3105 26.8828C9.98242 25.9258 9.88672 24.7637 10.0234 23.3965C10.1328 22.2754 10.4746 21.0996 11.0488 19.8691C11.6504 18.6113 12.375 17.4629 13.2227 16.4238C14.0977 15.3848 15.0684 14.5234 16.1348 13.8398C17.2285 13.1562 18.3223 12.8145 19.416 12.8145C20.4551 12.8145 21.207 13.0742 21.6719 13.5938C22.1367 14.1133 22.3418 14.7559 22.2871 15.5215C22.2051 16.3691 21.959 17.1484 21.5488 17.8594C21.166 18.5703 20.7012 19.2129 20.1543 19.7871C19.6074 20.3613 19.0195 20.8809 18.3906 21.3457C17.7891 21.8105 17.2148 22.2344 16.668 22.6172C16.0664 23.0273 15.4922 23.4238 14.9453 23.8066C14.3984 24.1621 13.9199 24.4902 13.5098 24.791C13.5371 25.4746 13.6602 26.0488 13.8789 26.5137C14.0977 26.9785 14.3711 27.3613 14.6992 27.6621C15.0273 27.9355 15.3965 28.1406 15.8066 28.2773C16.2441 28.3867 16.6816 28.4414 17.1191 28.4414C18.0488 28.4414 19.0195 28.1543 20.0312 27.5801C21.043 26.9785 22.0273 26.2676 22.9844 25.4473C23.9688 24.5996 24.8711 23.7246 25.6914 22.8223C26.5391 21.9199 27.2363 21.1406 27.7832 20.4844C27.9746 20.2656 28.166 20.1426 28.3574 20.1152C28.5762 20.0605 28.7402 20.0879 28.8496 20.1973C28.9863 20.2793 29.0547 20.4434 29.0547 20.6895C29.0547 20.9082 28.959 21.168 28.7676 21.4688ZM18.2676 15.1523C17.9395 15.1523 17.543 15.3164 17.0781 15.6445C16.6406 15.9727 16.2031 16.4512 15.7656 17.0801C15.3281 17.6816 14.918 18.4336 14.5352 19.3359C14.1523 20.2109 13.8652 21.2227 13.6738 22.3711C14.002 22.125 14.3574 21.8789 14.7402 21.6328C15.123 21.3594 15.5059 21.0723 15.8887 20.7715C17.0645 19.8691 17.8848 19.0762 18.3496 18.3926C18.8145 17.709 19.0742 17.1211 19.1289 16.6289C19.1836 16.1094 19.1289 15.7402 18.9648 15.5215C18.8008 15.2754 18.5684 15.1523 18.2676 15.1523ZM37.832 22.6992C37.1211 23.7383 36.3828 24.75 35.6172 25.7344C34.8789 26.7188 34.1543 27.6074 33.4434 28.4004C32.7598 29.166 32.1172 29.7812 31.5156 30.2461C30.9414 30.7383 30.4766 30.9844 30.1211 30.9844C29.2734 30.9844 28.5762 30.5879 28.0293 29.7949C27.5098 28.9746 27.0996 27.9766 26.7988 26.8008C26.5254 25.5977 26.3477 24.3262 26.2656 22.9863C26.2109 21.6191 26.2246 20.4023 26.3066 19.3359C26.416 18.2695 26.5391 17.4219 26.6758 16.793C26.8125 16.1367 26.9766 15.6309 27.168 15.2754C27.3867 14.9199 27.6328 14.6602 27.9062 14.4961C28.207 14.332 28.5762 14.1953 29.0137 14.0859C29.2051 14.0312 29.4238 13.9902 29.6699 13.9629C29.916 13.9355 30.1348 13.9492 30.3262 14.0039C30.5449 14.0312 30.709 14.1133 30.8184 14.25C30.9277 14.3867 30.9414 14.5918 30.8594 14.8652C30.8047 15.1113 30.709 15.4805 30.5723 15.9727C30.4629 16.4375 30.3398 16.9707 30.2031 17.5723C30.0664 18.1738 29.9297 18.8027 29.793 19.459C29.6836 20.1152 29.6016 20.7441 29.5469 21.3457C29.4648 22.3848 29.4648 23.3008 29.5469 24.0938C29.6289 24.8594 29.752 25.5156 29.916 26.0625C30.0801 26.582 30.2578 26.9785 30.4492 27.252C30.6406 27.5254 30.791 27.6621 30.9004 27.6621C31.0371 27.6621 31.2832 27.4844 31.6387 27.1289C32.0215 26.7461 32.4453 26.2539 32.9102 25.6523C33.4023 25.0508 33.9082 24.3535 34.4277 23.5605C34.9746 22.7676 35.4805 21.9473 35.9453 21.0996C35.7812 20.6621 35.7129 20.1426 35.7402 19.541C35.8223 18.6113 36.0273 17.7773 36.3555 17.0391C36.6836 16.2734 37.0527 15.6309 37.4629 15.1113C37.9004 14.5918 38.3379 14.1953 38.7754 13.9219C39.2402 13.6211 39.6504 13.4707 40.0059 13.4707C40.7168 13.4707 41.1543 13.6621 41.3184 14.0449C41.5098 14.4004 41.5781 14.7695 41.5234 15.1523C41.4688 15.7266 41.209 16.5195 40.7441 17.5312C40.3066 18.5156 39.7324 19.5957 39.0215 20.7715C39.1582 20.8262 39.3086 20.8809 39.4727 20.9355C39.6367 20.9902 39.8281 21.0176 40.0469 21.0176C40.9766 21.0176 41.8105 20.9082 42.5488 20.6895C43.3145 20.4707 43.9707 20.2109 44.5176 19.9102C45.0918 19.6094 45.5703 19.2949 45.9531 18.9668C46.3633 18.6113 46.6914 18.3242 46.9375 18.1055C47.1016 17.9414 47.2656 17.8594 47.4297 17.8594C47.5938 17.8594 47.7305 17.9004 47.8398 17.9824C47.9492 18.0645 48.0039 18.1875 48.0039 18.3516C48.0039 18.5156 47.9219 18.6934 47.7578 18.8848C46.7734 20.0879 45.5703 21.0586 44.1484 21.7969C42.7539 22.5352 41.1133 22.9043 39.2266 22.9043C39.0625 22.9043 38.8574 22.8906 38.6113 22.8633C38.3652 22.8359 38.1055 22.7812 37.832 22.6992ZM64.8203 21.8379C64.4375 22.3848 63.9453 23.0684 63.3438 23.8887C62.7422 24.6816 62.1133 25.4883 61.457 26.3086C60.8281 27.1016 60.1992 27.8398 59.5703 28.5234C58.9688 29.1797 58.4629 29.6445 58.0527 29.918C57.7793 30.082 57.4648 30.2188 57.1094 30.3281C56.7539 30.4375 56.3848 30.5059 56.002 30.5332C55.6465 30.5605 55.3047 30.5332 54.9766 30.4512C54.6484 30.3965 54.3613 30.2871 54.1152 30.123C53.8691 29.9316 53.6641 29.6582 53.5 29.3027C53.3633 29.002 53.2266 28.6055 53.0898 28.1133C52.9805 27.6211 52.9395 27.0059 52.9668 26.2676C52.3105 27.3613 51.5859 28.209 50.793 28.8105C50 29.3848 49.248 29.8086 48.5371 30.082C47.7168 30.3828 46.8965 30.5605 46.0762 30.6152C45.6934 30.6152 45.2832 30.4785 44.8457 30.2051C44.4082 29.959 44.0391 29.5625 43.7383 29.0156C43.4375 28.4414 43.2461 27.7168 43.1641 26.8418C43.082 25.9395 43.1914 24.873 43.4922 23.6426C43.875 21.9746 44.4766 20.457 45.2969 19.0898C46.1445 17.7227 47.0605 16.5605 48.0449 15.6035C49.0293 14.6191 50 13.8809 50.957 13.3887C51.9141 12.8965 52.707 12.6777 53.3359 12.7324C54.0742 12.8691 54.6758 13.0879 55.1406 13.3887C55.5234 13.6621 55.7695 14.0723 55.8789 14.6191C56.0156 15.1387 55.7969 15.8359 55.2227 16.7109C55.6055 16.6289 55.9199 16.5742 56.166 16.5469C56.4395 16.5195 56.6445 16.5059 56.7812 16.5059C56.9453 16.5059 57.0547 16.5195 57.1094 16.5469C57.1367 16.6016 57.1504 16.7246 57.1504 16.916C57.1504 17.0801 57.1094 17.3945 57.0273 17.8594C56.9453 18.3242 56.8223 18.9531 56.6582 19.7461C56.4941 20.5391 56.2754 21.5645 56.002 22.8223C55.9473 23.0684 55.8926 23.3008 55.8379 23.5195C55.8105 23.7109 55.7695 23.916 55.7148 24.1348C55.6875 24.3262 55.6465 24.5586 55.5918 24.832C55.5371 25.1055 55.4688 25.4473 55.3867 25.8574C55.3594 26.1035 55.3457 26.377 55.3457 26.6777C55.373 26.9512 55.4277 27.2109 55.5098 27.457C55.5918 27.7031 55.7148 27.9082 55.8789 28.0723C56.0703 28.209 56.3301 28.2773 56.6582 28.2773C56.9316 28.2773 57.2871 28.1133 57.7246 27.7852C58.1621 27.4297 58.627 26.9922 59.1191 26.4727C59.6113 25.9258 60.1172 25.3379 60.6367 24.709C61.1836 24.0527 61.6895 23.4238 62.1543 22.8223C62.6191 22.2207 63.0293 21.6875 63.3848 21.2227C63.7676 20.7578 64.041 20.416 64.2051 20.1973C64.4238 19.9512 64.6426 19.8145 64.8613 19.7871C65.0801 19.7324 65.2441 19.7871 65.3535 19.9512C65.4629 20.1152 65.4766 20.3613 65.3945 20.6895C65.3398 21.0176 65.1484 21.4004 64.8203 21.8379ZM52.8027 23.6426C52.9395 23.0957 53.1035 22.4531 53.2949 21.7148C53.4863 20.9766 53.6504 20.2656 53.7871 19.582C53.9238 18.8984 54.0195 18.3379 54.0742 17.9004C54.1562 17.4355 54.1426 17.2168 54.0332 17.2441C53.8965 17.2715 53.7461 17.3125 53.582 17.3672C53.4453 17.4219 53.2676 17.4629 53.0488 17.4902C52.8301 17.5176 52.6113 17.5586 52.3926 17.6133C52.6113 17.1758 52.7344 16.8203 52.7617 16.5469C52.8164 16.2461 52.8301 16.0137 52.8027 15.8496C52.7754 15.6582 52.7207 15.5078 52.6387 15.3984C52.3379 15.1523 51.8047 15.3574 51.0391 16.0137C50.3008 16.6426 49.4395 17.8184 48.4551 19.541C48.0449 20.252 47.7168 21.0176 47.4707 21.8379C47.2246 22.6309 47.0469 23.3828 46.9375 24.0938C46.8555 24.8047 46.8418 25.4336 46.8965 25.9805C46.9512 26.5 47.0605 26.8418 47.2246 27.0059C47.5254 27.3066 47.8672 27.457 48.25 27.457C48.6328 27.4297 49.0156 27.3203 49.3984 27.1289C49.8086 26.9102 50.2051 26.6367 50.5879 26.3086C50.998 25.9805 51.3535 25.6387 51.6543 25.2832C51.9824 24.9277 52.2422 24.5996 52.4336 24.2988C52.6523 23.998 52.7754 23.7793 52.8027 23.6426ZM77.207 19.623C77.3164 19.459 77.4531 19.3633 77.6172 19.3359C77.8086 19.2812 77.959 19.2949 78.0684 19.377C78.1777 19.459 78.2324 19.5957 78.2324 19.7871C78.2598 19.9785 78.1914 20.2383 78.0273 20.5664C77.4805 21.6055 76.7559 22.7266 75.8535 23.9297C74.9785 25.1328 74.0488 26.2676 73.0645 27.334C72.0801 28.373 71.123 29.2344 70.1934 29.918C69.2637 30.6016 68.4844 30.9434 67.8555 30.9434C66.9531 30.9434 66.2012 30.7656 65.5996 30.4102C64.998 30.0547 64.5195 29.6172 64.1641 29.0977C63.8359 28.5781 63.6035 28.0176 63.4668 27.416C63.3301 26.7871 63.2891 26.2129 63.3438 25.6934C63.3711 25.2559 63.4668 24.4766 63.6309 23.3555C63.7949 22.207 64.0137 20.8945 64.2871 19.418C64.5605 17.9141 64.8613 16.3145 65.1895 14.6191C65.5449 12.8965 65.9141 11.2422 66.2969 9.65625C65.832 9.71094 65.3672 9.76562 64.9023 9.82031C64.4375 9.875 64.0137 9.90234 63.6309 9.90234C62.7559 9.90234 61.9355 9.80664 61.1699 9.61523C60.377 9.39648 59.7891 9.19141 59.4062 9C59.1875 8.89062 59.0918 8.74023 59.1191 8.54883C59.1465 8.33008 59.2285 8.125 59.3652 7.93359C59.502 7.71484 59.6797 7.53711 59.8984 7.40039C60.0898 7.23633 60.2676 7.1543 60.4316 7.1543C60.9512 7.20898 61.5117 7.26367 62.1133 7.31836C62.7148 7.3457 63.3711 7.3457 64.082 7.31836C64.6016 7.29102 65.0938 7.25 65.5586 7.19531C66.0508 7.14062 66.5293 7.07227 66.9941 6.99023C67.3496 5.67773 67.6914 4.54297 68.0195 3.58594C68.375 2.60156 68.6895 1.91797 68.9629 1.53516C69.0449 1.39844 69.2227 1.28906 69.4961 1.20703C69.7969 1.09766 70.1113 1.0293 70.4395 1.00195C70.7676 0.947266 71.082 0.947266 71.3828 1.00195C71.6836 1.0293 71.9023 1.125 72.0391 1.28906C72.1758 1.50781 72.2305 2.06836 72.2031 2.9707C72.1758 3.87305 72.0254 5.02148 71.752 6.41602C72.9004 6.41602 73.9121 6.48437 74.7871 6.62109C75.6895 6.73047 76.4551 6.86719 77.084 7.03125C77.7129 7.16797 78.2188 7.31836 78.6016 7.48242C78.9844 7.61914 79.2715 7.71484 79.4629 7.76953C79.6543 7.82422 79.75 7.96094 79.75 8.17969C79.7773 8.39844 79.7363 8.63086 79.627 8.87695C79.5449 9.0957 79.3945 9.28711 79.1758 9.45117C78.957 9.61523 78.7109 9.66992 78.4375 9.61523C78.1641 9.58789 77.8496 9.5332 77.4941 9.45117C77.166 9.36914 76.7559 9.30078 76.2637 9.24609C75.7988 9.19141 75.2383 9.13672 74.582 9.08203C73.9258 9.02734 73.1602 9 72.2852 9C72.1211 9 71.9297 9.01367 71.7109 9.04102C71.5195 9.04102 71.3145 9.04102 71.0957 9.04102C70.9863 9.47852 70.877 9.91602 70.7676 10.3535C70.6855 10.7637 70.5625 11.2012 70.3984 11.666C70.043 12.7598 69.6328 13.9492 69.168 15.2344C68.7578 16.3555 68.2656 17.6406 67.6914 19.0898C67.1172 20.5391 66.4746 22.084 65.7637 23.7246C65.5996 24.9004 65.6133 25.8027 65.8047 26.4316C66.0234 27.0332 66.2832 27.4707 66.584 27.7441C66.9395 28.0449 67.377 28.209 67.8965 28.2363C68.3066 28.291 68.7988 28.1543 69.373 27.8262C69.9746 27.4707 70.5898 27.0059 71.2188 26.4316C71.8477 25.8574 72.4766 25.2285 73.1055 24.5449C73.7617 23.8613 74.3633 23.1914 74.9102 22.5352C75.457 21.8789 75.9355 21.291 76.3457 20.7715C76.7559 20.2246 77.043 19.8418 77.207 19.623ZM93.3262 21.4688C92.5059 22.6719 91.5762 23.8477 90.5371 24.9961C89.498 26.1172 88.3906 27.1289 87.2148 28.0312C86.0664 28.9062 84.877 29.6172 83.6465 30.1641C82.4434 30.7109 81.2676 30.9844 80.1191 30.9844C79.5176 30.9844 78.8613 30.834 78.1504 30.5332C77.4668 30.2598 76.8379 29.8223 76.2637 29.2207C75.6895 28.6191 75.2246 27.8398 74.8691 26.8828C74.541 25.9258 74.4453 24.7637 74.582 23.3965C74.6914 22.2754 75.0332 21.0996 75.6074 19.8691C76.209 18.6113 76.9336 17.4629 77.7812 16.4238C78.6562 15.3848 79.627 14.5234 80.6934 13.8398C81.7871 13.1562 82.8809 12.8145 83.9746 12.8145C85.0137 12.8145 85.7656 13.0742 86.2305 13.5938C86.6953 14.1133 86.9004 14.7559 86.8457 15.5215C86.7637 16.3691 86.5176 17.1484 86.1074 17.8594C85.7246 18.5703 85.2598 19.2129 84.7129 19.7871C84.166 20.3613 83.5781 20.8809 82.9492 21.3457C82.3477 21.8105 81.7734 22.2344 81.2266 22.6172C80.625 23.0273 80.0508 23.4238 79.5039 23.8066C78.957 24.1621 78.4785 24.4902 78.0684 24.791C78.0957 25.4746 78.2188 26.0488 78.4375 26.5137C78.6562 26.9785 78.9297 27.3613 79.2578 27.6621C79.5859 27.9355 79.9551 28.1406 80.3652 28.2773C80.8027 28.3867 81.2402 28.4414 81.6777 28.4414C82.6074 28.4414 83.5781 28.1543 84.5898 27.5801C85.6016 26.9785 86.5859 26.2676 87.543 25.4473C88.5273 24.5996 89.4297 23.7246 90.25 22.8223C91.0977 21.9199 91.7949 21.1406 92.3418 20.4844C92.5332 20.2656 92.7246 20.1426 92.916 20.1152C93.1348 20.0605 93.2988 20.0879 93.4082 20.1973C93.5449 20.2793 93.6133 20.4434 93.6133 20.6895C93.6133 20.9082 93.5176 21.168 93.3262 21.4688ZM82.8262 15.1523C82.498 15.1523 82.1016 15.3164 81.6367 15.6445C81.1992 15.9727 80.7617 16.4512 80.3242 17.0801C79.8867 17.6816 79.4766 18.4336 79.0938 19.3359C78.7109 20.2109 78.4238 21.2227 78.2324 22.3711C78.5605 22.125 78.916 21.8789 79.2988 21.6328C79.6816 21.3594 80.0645 21.0723 80.4473 20.7715C81.623 19.8691 82.4434 19.0762 82.9082 18.3926C83.373 17.709 83.6328 17.1211 83.6875 16.6289C83.7422 16.1094 83.6875 15.7402 83.5234 15.5215C83.3594 15.2754 83.127 15.1523 82.8262 15.1523ZM92.4648 26.8828C93.1758 26.7734 93.7363 26.8418 94.1465 27.0879C94.584 27.3066 94.7754 27.7305 94.7207 28.3594C94.6934 28.7148 94.543 29.0566 94.2695 29.3848C94.0234 29.6855 93.709 29.959 93.3262 30.2051C92.9707 30.4512 92.5879 30.6426 92.1777 30.7793C91.7676 30.916 91.4121 30.9844 91.1113 30.9844C90.5645 30.9844 90.0859 30.8613 89.6758 30.6152C89.2383 30.3691 89.0469 29.9727 89.1016 29.4258C89.1289 29.0703 89.252 28.7559 89.4707 28.4824C89.6621 28.1816 89.9219 27.9219 90.25 27.7031C90.5508 27.4844 90.8926 27.3066 91.2754 27.1699C91.6855 27.0332 92.082 26.9375 92.4648 26.8828ZM120.396 21.8379C120.014 22.3848 119.521 23.0684 118.92 23.8887C118.318 24.6816 117.689 25.4883 117.033 26.3086C116.404 27.1016 115.775 27.8398 115.146 28.5234C114.545 29.1797 114.039 29.6445 113.629 29.918C113.355 30.082 113.041 30.2188 112.686 30.3281C112.33 30.4375 111.961 30.5059 111.578 30.5332C111.223 30.5605 110.881 30.5332 110.553 30.4512C110.225 30.3965 109.938 30.2871 109.691 30.123C109.445 29.9316 109.24 29.6582 109.076 29.3027C108.939 29.002 108.803 28.6055 108.666 28.1133C108.557 27.6211 108.516 27.0059 108.543 26.2676C107.887 27.3613 107.162 28.209 106.369 28.8105C105.576 29.3848 104.824 29.8086 104.113 30.082C103.293 30.3828 102.473 30.5605 101.652 30.6152C101.27 30.6152 100.859 30.4785 100.422 30.2051C99.9844 29.959 99.6152 29.5625 99.3145 29.0156C99.0137 28.4414 98.8223 27.7168 98.7402 26.8418C98.6582 25.9395 98.7676 24.873 99.0684 23.6426C99.4512 21.9746 100.053 20.457 100.873 19.0898C101.721 17.7227 102.637 16.5605 103.621 15.6035C104.605 14.6191 105.576 13.8809 106.533 13.3887C107.49 12.8965 108.283 12.6777 108.912 12.7324C109.65 12.8691 110.252 13.0879 110.717 13.3887C111.1 13.6621 111.346 14.0723 111.455 14.6191C111.592 15.1387 111.373 15.8359 110.799 16.7109C111.182 16.6289 111.496 16.5742 111.742 16.5469C112.016 16.5195 112.221 16.5059 112.357 16.5059C112.521 16.5059 112.631 16.5195 112.686 16.5469C112.713 16.6016 112.727 16.7246 112.727 16.916C112.727 17.0801 112.686 17.3945 112.604 17.8594C112.521 18.3242 112.398 18.9531 112.234 19.7461C112.07 20.5391 111.852 21.5645 111.578 22.8223C111.523 23.0684 111.469 23.3008 111.414 23.5195C111.387 23.7109 111.346 23.916 111.291 24.1348C111.264 24.3262 111.223 24.5586 111.168 24.832C111.113 25.1055 111.045 25.4473 110.963 25.8574C110.936 26.1035 110.922 26.377 110.922 26.6777C110.949 26.9512 111.004 27.2109 111.086 27.457C111.168 27.7031 111.291 27.9082 111.455 28.0723C111.646 28.209 111.906 28.2773 112.234 28.2773C112.508 28.2773 112.863 28.1133 113.301 27.7852C113.738 27.4297 114.203 26.9922 114.695 26.4727C115.188 25.9258 115.693 25.3379 116.213 24.709C116.76 24.0527 117.266 23.4238 117.73 22.8223C118.195 22.2207 118.605 21.6875 118.961 21.2227C119.344 20.7578 119.617 20.416 119.781 20.1973C120 19.9512 120.219 19.8145 120.438 19.7871C120.656 19.7324 120.82 19.7871 120.93 19.9512C121.039 20.1152 121.053 20.3613 120.971 20.6895C120.916 21.0176 120.725 21.4004 120.396 21.8379ZM108.379 23.6426C108.516 23.0957 108.68 22.4531 108.871 21.7148C109.062 20.9766 109.227 20.2656 109.363 19.582C109.5 18.8984 109.596 18.3379 109.65 17.9004C109.732 17.4355 109.719 17.2168 109.609 17.2441C109.473 17.2715 109.322 17.3125 109.158 17.3672C109.021 17.4219 108.844 17.4629 108.625 17.4902C108.406 17.5176 108.188 17.5586 107.969 17.6133C108.188 17.1758 108.311 16.8203 108.338 16.5469C108.393 16.2461 108.406 16.0137 108.379 15.8496C108.352 15.6582 108.297 15.5078 108.215 15.3984C107.914 15.1523 107.381 15.3574 106.615 16.0137C105.877 16.6426 105.016 17.8184 104.031 19.541C103.621 20.252 103.293 21.0176 103.047 21.8379C102.801 22.6309 102.623 23.3828 102.514 24.0938C102.432 24.8047 102.418 25.4336 102.473 25.9805C102.527 26.5 102.637 26.8418 102.801 27.0059C103.102 27.3066 103.443 27.457 103.826 27.457C104.209 27.4297 104.592 27.3203 104.975 27.1289C105.385 26.9102 105.781 26.6367 106.164 26.3086C106.574 25.9805 106.93 25.6387 107.23 25.2832C107.559 24.9277 107.818 24.5996 108.01 24.2988C108.229 23.998 108.352 23.7793 108.379 23.6426ZM126.672 5.8418C126.59 6.14258 126.426 6.44336 126.18 6.74414C125.961 7.01758 125.701 7.25 125.4 7.44141C125.127 7.60547 124.84 7.71484 124.539 7.76953C124.238 7.82422 123.992 7.76953 123.801 7.60547C123.227 7.16797 122.926 6.70312 122.898 6.21094C122.871 5.69141 122.994 5.21289 123.268 4.77539C123.541 4.31055 123.883 3.92773 124.293 3.62695C124.703 3.29883 125.059 3.10742 125.359 3.05273C125.66 2.99805 125.906 3.06641 126.098 3.25781C126.316 3.42188 126.48 3.6543 126.59 3.95508C126.699 4.22852 126.754 4.54297 126.754 4.89844C126.781 5.25391 126.754 5.56836 126.672 5.8418ZM121.012 14.5781C121.148 14.4141 121.408 14.2773 121.791 14.168C122.174 14.0586 122.57 13.9766 122.98 13.9219C123.391 13.8398 123.76 13.7988 124.088 13.7988C124.443 13.7715 124.648 13.7715 124.703 13.7988C124.73 13.8262 124.662 14.1133 124.498 14.6602C124.334 15.207 124.129 15.8496 123.883 16.5879C123.637 17.3262 123.377 18.0918 123.104 18.8848C122.83 19.6504 122.625 20.2793 122.488 20.7715C122.352 21.2637 122.188 21.8242 121.996 22.4531C121.805 23.0547 121.627 23.6562 121.463 24.2578C121.326 24.832 121.23 25.3789 121.176 25.8984C121.121 26.418 121.162 26.8145 121.299 27.0879C121.436 27.416 121.586 27.6484 121.75 27.7852C121.914 27.8945 122.092 27.9492 122.283 27.9492C122.83 27.9492 123.514 27.6484 124.334 27.0469C125.182 26.4453 126.029 25.7344 126.877 24.9141C127.752 24.0664 128.559 23.2188 129.297 22.3711C130.035 21.4961 130.582 20.7988 130.938 20.2793C131.156 20.0059 131.375 19.8281 131.594 19.7461C131.84 19.6641 132.031 19.6777 132.168 19.7871C132.332 19.8965 132.414 20.0742 132.414 20.3203C132.441 20.5664 132.359 20.8535 132.168 21.1816C131.73 21.9473 131.088 22.8633 130.24 23.9297C129.393 24.9688 128.49 25.9805 127.533 26.9648C126.576 27.9219 125.633 28.7422 124.703 29.4258C123.801 30.1094 123.062 30.4648 122.488 30.4922C122.023 30.5195 121.559 30.4375 121.094 30.2461C120.656 30.082 120.246 29.8496 119.863 29.5488C119.508 29.2207 119.207 28.8516 118.961 28.4414C118.715 28.0039 118.578 27.5527 118.551 27.0879C118.469 26.4043 118.469 25.4746 118.551 24.2988C118.633 23.0957 118.783 21.8789 119.002 20.6484C119.221 19.3906 119.494 18.2012 119.822 17.0801C120.178 15.959 120.574 15.125 121.012 14.5781Z" fill="black"/>
</svg>
