<svg width="678" height="508" viewBox="0 0 678 508" fill="none" xmlns="http://www.w3.org/2000/svg">
<rect width="678" height="508" fill="#F5F5F5"/>
<g clip-path="url(#clip0_0_1)">
<rect width="1920" height="3228" transform="translate(-1027 -2015)" fill="white"/>
<path d="M85.1908 213.563L70.5472 240.83C41.5369 294.847 41.9855 359.909 71.738 413.52C89.4413 445.42 116.411 471.195 149.08 487.436L230.204 527.764C255.655 540.416 283.69 547 312.112 547H532.034C575.544 547 613.726 518.016 625.423 476.108L661.45 347.036C671.005 312.803 634.724 283.902 603.494 300.87C579.375 313.975 549.504 299.609 544.682 272.587L524.372 158.762C517.698 121.354 494.19 89.0935 460.625 71.2802L387.497 32.4705C360.932 18.3719 331.316 11 301.241 11H280.143C193.105 11 118.698 73.643 103.865 159.408C100.59 178.346 94.284 196.632 85.1908 213.563Z" fill="#FDA006" fill-opacity="0.24"/>
<path d="M213.665 200.237C211.444 200.231 209.309 199.375 207.7 197.844C206.091 196.314 205.129 194.225 205.012 192.007C204.895 189.71 205.696 187.46 207.237 185.754C208.779 184.047 210.936 183.022 213.233 182.905C215.53 182.789 217.78 183.589 219.487 185.131C221.193 186.673 222.218 188.829 222.335 191.126C222.45 193.423 221.65 195.671 220.111 197.379C218.572 199.086 216.418 200.114 214.122 200.237H213.665ZM213.665 184.59H213.36C211.978 184.659 210.647 185.137 209.537 185.962C208.426 186.787 207.585 187.924 207.121 189.227C206.656 190.531 206.589 191.943 206.927 193.285C207.265 194.627 207.994 195.838 209.021 196.765C210.048 197.693 211.327 198.295 212.697 198.495C214.066 198.695 215.464 198.485 216.713 197.89C217.963 197.295 219.008 196.343 219.716 195.154C220.425 193.965 220.764 192.593 220.692 191.211C220.605 189.425 219.834 187.74 218.538 186.507C217.242 185.275 215.521 184.588 213.733 184.59H213.665Z" fill="#231F20"/>
<path d="M159.258 228.363C156.069 228.464 152.905 227.755 150.063 226.305C147.221 224.854 144.792 222.708 143.002 220.066C140.683 216.097 139.228 211.682 138.735 207.112C137.497 199.217 137.111 191.213 137.583 183.236C137.956 176.97 136.296 168.775 139.937 163.305C140.875 161.971 142.12 160.882 143.567 160.131C145.014 159.379 146.621 158.987 148.251 158.987C148.065 158.317 148.1 157.604 148.353 156.955C149.356 154.974 150.754 153.219 152.461 151.798C154.167 150.377 156.146 149.32 158.276 148.692C168.809 145.136 181.39 146.304 192.007 148.827C202.015 151.198 214.258 158.445 213.563 170.4C213.309 174.718 210.177 179.07 205.876 179.476C204.335 192.346 198.103 201.388 190.178 211.057C184.879 217.678 178.019 222.88 170.214 226.196C166.739 227.626 163.017 228.363 159.258 228.363Z" fill="white"/>
<path d="M159.478 229.21H159.258C155.934 229.309 152.638 228.566 149.677 227.051C146.717 225.535 144.188 223.295 142.325 220.54C139.953 216.463 138.459 211.935 137.939 207.247C136.687 199.291 136.295 191.224 136.771 183.185C136.872 181.491 136.771 179.68 136.771 177.749C136.635 172.669 136.483 167.03 139.26 162.848C140.159 161.511 141.354 160.399 142.752 159.598C144.149 158.796 145.712 158.327 147.32 158.225C147.288 157.646 147.387 157.068 147.608 156.532C148.656 154.441 150.123 152.588 151.918 151.088C153.712 149.588 155.796 148.472 158.039 147.811C169.554 143.916 182.982 145.711 192.244 147.913C203.776 150.656 215.121 158.665 214.444 170.366C214.19 174.633 211.243 179.307 206.671 180.137C204.978 193.446 198.205 202.573 190.873 211.497C185.479 218.232 178.496 223.521 170.553 226.89C167.046 228.373 163.285 229.161 159.478 229.21ZM173.296 147.32C168.294 147.247 163.313 147.985 158.547 149.504C156.529 150.096 154.653 151.093 153.034 152.436C151.415 153.778 150.087 155.437 149.132 157.311C148.969 157.788 148.969 158.306 149.132 158.784C149.162 158.905 149.165 159.031 149.142 159.153C149.118 159.275 149.069 159.391 148.996 159.492C148.924 159.594 148.83 159.678 148.722 159.74C148.614 159.802 148.494 159.84 148.37 159.851C146.866 159.832 145.381 160.182 144.044 160.87C142.707 161.558 141.559 162.562 140.699 163.796C138.227 167.538 138.362 172.72 138.498 177.715C138.498 179.68 138.599 181.542 138.498 183.303C138.024 191.224 138.41 199.173 139.649 207.01C140.132 211.462 141.54 215.765 143.781 219.642C145.495 222.169 147.821 224.219 150.542 225.602C153.264 226.985 156.292 227.655 159.343 227.55C162.984 227.545 166.59 226.831 169.96 225.45C177.638 222.181 184.386 217.062 189.603 210.549C198.34 199.881 203.674 191.364 205.114 179.409C205.139 179.217 205.228 179.04 205.366 178.905C205.504 178.77 205.684 178.685 205.876 178.664C209.872 178.291 212.564 174.075 212.784 170.4C213.496 158.123 199.983 151.604 191.872 149.674C185.791 148.179 179.558 147.389 173.296 147.32Z" fill="#231F20"/>
<path d="M210.244 197.832C210.244 197.832 220.117 212.344 218.152 215.409C216.188 218.474 209.516 216.543 209.516 216.543" fill="white"/>
<path d="M213.716 217.983C212.216 217.966 210.725 217.756 209.279 217.356C209.168 217.326 209.064 217.275 208.973 217.204C208.881 217.134 208.805 217.046 208.747 216.947C208.631 216.745 208.6 216.505 208.661 216.281C208.722 216.056 208.869 215.865 209.071 215.749C209.272 215.633 209.512 215.602 209.736 215.663C211.43 216.154 216.103 216.95 217.441 214.884C218.474 213.292 214.054 204.995 209.55 198.238C209.486 198.148 209.441 198.045 209.418 197.937C209.395 197.829 209.393 197.717 209.414 197.608C209.434 197.499 209.476 197.395 209.537 197.303C209.599 197.21 209.678 197.131 209.77 197.07C209.862 197.006 209.966 196.961 210.076 196.937C210.185 196.913 210.299 196.912 210.409 196.932C210.519 196.953 210.624 196.995 210.718 197.056C210.812 197.118 210.893 197.197 210.956 197.29C213.343 200.812 220.963 212.53 218.863 215.798C218.255 216.563 217.466 217.163 216.567 217.544C215.668 217.926 214.688 218.076 213.716 217.983Z" fill="#231F20"/>
<path d="M207.924 178.511C214.156 183.473 212.513 194.124 212.547 201.032C212.547 210.752 212.372 220.472 212.022 230.192C211.785 236.355 195.817 236.694 192.989 234.899L195.986 251.138L159.258 247.227V228.363C159.258 228.363 174.075 226.568 180.137 213.936C186.199 201.303 184.98 174.024 184.98 174.024C184.98 174.024 201.845 173.685 207.924 178.511Z" fill="white"/>
<path d="M195.987 251.985L159.173 248.023C158.967 247.995 158.777 247.894 158.637 247.739C158.498 247.584 158.418 247.384 158.411 247.176V228.363C158.414 228.156 158.49 227.957 158.627 227.801C158.763 227.646 158.951 227.545 159.156 227.516C159.309 227.516 173.584 225.62 179.375 213.563C185.166 201.507 184.133 174.329 184.133 174.058C184.129 173.945 184.147 173.833 184.186 173.727C184.226 173.622 184.286 173.525 184.363 173.443C184.44 173.361 184.533 173.295 184.636 173.25C184.739 173.204 184.85 173.179 184.963 173.177C185.657 173.177 202.218 172.889 208.449 177.851C213.97 182.237 213.682 190.568 213.529 197.273C213.529 198.611 213.529 199.864 213.529 201.033C213.529 210.701 213.411 220.54 213.005 230.226C212.91 231.203 212.543 232.135 211.944 232.913C211.345 233.692 210.539 234.286 209.618 234.628C205.418 236.83 197.765 237.101 194.158 236.203L196.884 250.986C196.912 251.115 196.908 251.248 196.872 251.375C196.837 251.502 196.771 251.618 196.681 251.714C196.594 251.81 196.486 251.885 196.366 251.932C196.245 251.979 196.115 251.997 195.987 251.985ZM160.105 246.414L194.954 250.173L192.143 235.052C192.115 234.887 192.135 234.718 192.201 234.565C192.267 234.411 192.376 234.281 192.515 234.188C192.652 234.1 192.81 234.054 192.972 234.054C193.134 234.054 193.293 234.1 193.43 234.188C195.275 235.373 204.216 235.526 208.771 233.155C210.329 232.342 211.142 231.326 211.176 230.175C211.582 220.506 211.751 210.701 211.701 201.049C211.701 199.864 211.701 198.594 211.701 197.239C211.921 190.923 212.175 183.049 207.332 179.205C202.252 175.226 189.264 174.904 185.793 174.887C185.945 179.747 186.385 202.76 180.831 214.308C175.277 225.857 163.271 228.6 160.105 229.091V246.414Z" fill="#231F20"/>
<path d="M170.485 205.08H170.299C170.189 205.055 170.086 205.01 169.994 204.946C169.903 204.882 169.825 204.8 169.765 204.706C169.705 204.611 169.665 204.506 169.646 204.396C169.627 204.285 169.63 204.172 169.655 204.064C170.807 199.136 171.789 198.984 172.195 198.984C173.008 198.882 204.707 193.294 221.302 190.364C221.411 190.342 221.523 190.343 221.632 190.365C221.741 190.388 221.845 190.432 221.936 190.495C222.028 190.558 222.106 190.639 222.166 190.733C222.225 190.827 222.266 190.932 222.284 191.042C222.306 191.151 222.306 191.263 222.283 191.372C222.261 191.481 222.217 191.585 222.153 191.676C222.09 191.768 222.009 191.846 221.915 191.906C221.821 191.965 221.716 192.006 221.607 192.024C219.693 192.363 175.887 200.084 172.5 200.643C171.908 201.858 171.476 203.144 171.213 204.47C171.169 204.634 171.075 204.78 170.945 204.889C170.814 204.998 170.654 205.065 170.485 205.08Z" fill="#231F20"/>
<path d="M191.685 204.318C191.385 201.886 190.412 199.587 188.874 197.68C187.907 196.054 186.703 194.582 185.302 193.311C184.593 192.68 183.753 192.214 182.842 191.948C181.931 191.681 180.972 191.62 180.035 191.77C179.226 191.992 178.471 192.38 177.821 192.911C177.17 193.442 176.638 194.103 176.259 194.852C175.515 196.353 175.121 198.003 175.108 199.678C174.995 203.34 175.848 206.967 177.581 210.195C179.314 213.423 181.865 216.138 184.98 218.067L184.438 217.492" fill="white"/>
<path d="M184.963 218.897C184.813 218.9 184.666 218.859 184.54 218.779C181.306 216.763 178.657 213.936 176.853 210.579C175.05 207.223 174.157 203.453 174.261 199.644C174.277 197.838 174.706 196.06 175.514 194.446C175.943 193.586 176.552 192.83 177.301 192.228C178.049 191.626 178.918 191.192 179.849 190.957C180.909 190.769 181.997 190.823 183.032 191.117C184.068 191.41 185.023 191.934 185.826 192.651C187.297 193.975 188.564 195.51 189.586 197.206C191.202 199.248 192.221 201.698 192.532 204.284C192.537 204.396 192.519 204.509 192.479 204.614C192.44 204.72 192.38 204.816 192.302 204.898C192.225 204.98 192.132 205.046 192.029 205.092C191.926 205.138 191.815 205.162 191.702 205.164C191.48 205.16 191.268 205.073 191.108 204.919C190.948 204.765 190.852 204.556 190.839 204.335C190.522 202.065 189.598 199.924 188.163 198.137C187.248 196.587 186.107 195.183 184.777 193.971C184.168 193.423 183.445 193.016 182.661 192.779C181.876 192.542 181.049 192.481 180.238 192.6C179.546 192.788 178.901 193.121 178.347 193.576C177.792 194.031 177.34 194.599 177.021 195.241C176.343 196.635 175.984 198.162 175.971 199.712C175.886 203.012 176.614 206.283 178.09 209.236C179.567 212.189 181.747 214.733 184.438 216.645C184.565 216.637 184.692 216.655 184.812 216.699C184.931 216.743 185.041 216.811 185.132 216.899L185.64 217.458C185.779 217.611 185.857 217.81 185.857 218.017C185.857 218.223 185.779 218.423 185.64 218.576C185.558 218.676 185.455 218.756 185.337 218.812C185.22 218.868 185.093 218.897 184.963 218.897Z" fill="#231F20"/>
<path d="M207.497 193.79C208.253 193.739 208.762 192.147 208.633 190.234C208.504 188.321 207.787 186.812 207.031 186.862C206.275 186.913 205.767 188.505 205.896 190.418C206.025 192.331 206.742 193.84 207.497 193.79Z" fill="#231F20"/>
<path d="M151.266 254.474L153.856 241.148L201.033 244.026L203.979 253.644C203.979 253.644 178.088 266.988 151.266 254.474Z" fill="white"/>
<path d="M175.751 260.638C167.168 260.688 158.681 258.844 150.893 255.236C150.725 255.152 150.588 255.016 150.503 254.848C150.417 254.681 150.388 254.49 150.419 254.305L153.027 240.978C153.07 240.78 153.182 240.603 153.343 240.479C153.504 240.355 153.704 240.292 153.907 240.301L201.083 243.18C201.256 243.186 201.423 243.247 201.559 243.354C201.696 243.46 201.796 243.606 201.845 243.772L204.792 253.39C204.853 253.58 204.844 253.785 204.766 253.969C204.688 254.152 204.547 254.301 204.368 254.389C195.384 258.489 185.627 260.62 175.751 260.638ZM152.214 254C175.92 264.685 198.882 255.084 203.014 253.204L200.44 244.856L154.601 242.045L152.214 254Z" fill="#231F20"/>
<path d="M212.378 218.067C212.378 218.067 203.336 218.677 202.218 220.049C201.275 221.725 200.558 223.519 200.084 225.383L211.65 223.401L212.378 218.067Z" fill="#231F20"/>
<path d="M478.282 216.425H562.797C568.961 216.424 575.054 217.74 580.668 220.286C586.282 222.831 591.287 226.547 595.348 231.184C599.409 235.82 602.433 241.272 604.216 247.172C606 253.072 606.502 259.286 605.689 265.396L592.04 368.012H420.218L435.458 253.983C436.836 243.598 441.937 234.066 449.814 227.158C457.69 220.25 467.806 216.436 478.282 216.425Z" fill="#231F20"/>
<path d="M370.18 259.283C370.18 259.283 348.166 226.534 348.573 234.137C348.917 238.995 350.169 243.745 352.264 248.141C352.264 248.141 326.966 236.948 325.374 242.147C323.782 247.345 342.968 260.773 344.577 262.839C346.185 264.905 352.264 274.947 352.264 274.947" fill="white"/>
<path d="M352.213 275.793C352.067 275.794 351.923 275.757 351.796 275.686C351.668 275.614 351.561 275.511 351.485 275.387C351.485 275.285 345.406 265.396 343.848 263.347C342.576 262.149 341.242 261.019 339.852 259.96C331.064 252.781 323.257 246.007 324.51 241.943C324.619 241.597 324.803 241.28 325.049 241.013C325.295 240.747 325.597 240.538 325.933 240.402C330.319 238.404 344.949 244.195 350.554 246.549C348.93 242.63 347.958 238.471 347.675 234.239C347.675 232.901 348.166 232.427 348.64 232.274C351.722 231.224 363.88 248.479 370.84 258.86C370.963 259.046 371.006 259.274 370.962 259.493C370.918 259.711 370.789 259.904 370.603 260.028C370.512 260.092 370.41 260.137 370.302 260.16C370.193 260.184 370.081 260.185 369.972 260.165C369.863 260.144 369.76 260.102 369.667 260.041C369.575 259.979 369.496 259.9 369.435 259.808C361.357 247.802 351.926 235.271 349.369 234.001V234.137C349.715 238.874 350.932 243.507 352.958 247.802C353.043 247.956 353.076 248.133 353.051 248.307C353.027 248.481 352.947 248.643 352.823 248.767C352.706 248.896 352.552 248.985 352.382 249.022C352.211 249.058 352.034 249.04 351.875 248.971C346.134 246.431 330.42 240.216 326.627 241.943C326.272 242.113 326.17 242.299 326.136 242.434C325.103 245.821 335.788 254.457 340.919 258.656C342.444 259.782 343.877 261.027 345.203 262.382C346.896 264.498 352.688 274.235 352.942 274.557C353 274.652 353.039 274.758 353.056 274.869C353.073 274.98 353.068 275.092 353.041 275.201C353.015 275.31 352.966 275.412 352.9 275.502C352.833 275.592 352.75 275.668 352.654 275.725C352.516 275.788 352.364 275.812 352.213 275.793Z" fill="#231F20"/>
<path d="M370.959 252.086C370.959 252.086 405.469 298.636 409.787 298.027C416.933 288.747 449.665 241.097 449.665 241.097C456.15 232.63 474.845 225.857 501.583 229.616C501.583 229.616 560.849 230.818 572.415 249.699C579.036 260.553 584.641 289.509 588.298 332.3H378.393C362.238 307.899 346.88 275.37 346.88 275.37L370.959 252.086Z" fill="#42A69B"/>
<path d="M492.252 238.472L493.573 319.447L529.201 234.036L492.252 238.472Z" fill="#231F20"/>
<path d="M493.573 320.294H493.404C493.212 320.262 493.039 320.162 492.915 320.013C492.79 319.864 492.724 319.675 492.726 319.481L491.406 238.506C491.404 238.298 491.479 238.097 491.617 237.941C491.754 237.784 491.944 237.684 492.151 237.659L529.099 233.223C529.246 233.205 529.394 233.226 529.531 233.282C529.667 233.339 529.787 233.429 529.878 233.545C529.965 233.666 530.02 233.807 530.038 233.955C530.056 234.103 530.036 234.253 529.98 234.391L494.42 319.786C494.349 319.949 494.23 320.085 494.078 320.176C493.926 320.267 493.75 320.308 493.573 320.294ZM493.116 239.217L494.352 315.417L527.863 235.085L493.116 239.217Z" fill="#231F20"/>
<path d="M474.557 150.707C486.664 126.34 520.853 125.662 540.038 142.545C558.8 159.055 560.358 191.364 560.358 214.715C531.064 234.171 490.407 234.848 460.452 216.408C462.551 203.996 470.595 158.75 474.557 150.707Z" fill="white"/>
<path d="M508.948 230.564C491.699 230.691 474.75 226.044 459.977 217.136C459.837 217.044 459.725 216.914 459.656 216.761C459.587 216.608 459.564 216.439 459.588 216.273C460.587 210.447 469.46 159.123 473.812 150.368C476.339 145.32 480.017 140.937 484.55 137.572C489.083 134.207 494.343 131.954 499.906 130.996C507.068 129.661 514.439 129.952 521.473 131.848C528.508 133.744 535.026 137.198 540.546 141.952C558.732 157.937 561.137 187.672 561.103 214.765C561.102 214.905 561.067 215.042 561.003 215.166C560.938 215.29 560.845 215.396 560.731 215.477C545.309 225.445 527.311 230.69 508.948 230.564ZM461.349 216.002C490.627 233.782 530.776 233.087 559.461 214.308C559.461 187.791 557.056 158.699 539.479 143.188C534.151 138.597 527.858 135.264 521.065 133.438C514.273 131.612 507.157 131.339 500.245 132.639C494.932 133.547 489.908 135.693 485.578 138.902C481.248 142.111 477.733 146.294 475.319 151.113C471.915 157.988 464.99 194.852 461.349 216.002Z" fill="#231F20"/>
<path d="M484.039 187.808C483.462 185.877 482.488 184.089 481.178 182.558C480.509 181.808 479.625 181.282 478.646 181.052C477.667 180.821 476.642 180.898 475.708 181.271C475.051 181.655 474.498 182.194 474.097 182.84C473.696 183.486 473.458 184.221 473.405 184.98C473.323 186.501 473.577 188.022 474.15 189.433C475.011 192.124 476.497 194.573 478.485 196.579C479.489 197.568 480.684 198.343 481.997 198.855C483.31 199.367 484.714 199.607 486.122 199.559" fill="white"/>
<path d="M485.529 200.423C482.671 200.353 479.946 199.197 477.909 197.189C475.82 195.096 474.258 192.537 473.354 189.721C472.747 188.188 472.481 186.541 472.575 184.895C472.638 183.995 472.921 183.125 473.4 182.36C473.878 181.595 474.537 180.96 475.319 180.509C476.415 180.056 477.626 179.952 478.784 180.213C479.941 180.474 480.991 181.086 481.787 181.966C483.181 183.583 484.219 185.475 484.835 187.52C484.911 187.731 484.901 187.964 484.805 188.167C484.71 188.37 484.538 188.527 484.327 188.603C484.224 188.644 484.114 188.663 484.003 188.661C483.892 188.658 483.783 188.633 483.682 188.587C483.58 188.541 483.49 188.476 483.414 188.394C483.339 188.313 483.281 188.217 483.243 188.112C482.7 186.296 481.796 184.609 480.585 183.151C480.036 182.536 479.315 182.099 478.515 181.896C477.715 181.694 476.873 181.736 476.098 182.016C475.566 182.337 475.12 182.781 474.798 183.313C474.477 183.844 474.289 184.445 474.252 185.064C474.192 186.464 474.428 187.861 474.946 189.162C475.768 191.715 477.184 194.037 479.078 195.936C479.988 196.851 481.078 197.569 482.278 198.044C483.479 198.518 484.764 198.74 486.054 198.696C486.166 198.687 486.278 198.699 486.384 198.734C486.49 198.768 486.589 198.823 486.674 198.895C486.759 198.967 486.828 199.056 486.879 199.155C486.93 199.255 486.96 199.363 486.969 199.475C486.978 199.586 486.965 199.698 486.931 199.804C486.897 199.91 486.842 200.009 486.77 200.094C486.697 200.179 486.609 200.249 486.509 200.299C486.41 200.35 486.301 200.381 486.19 200.389L485.529 200.423Z" fill="#231F20"/>
<path d="M494.64 214.63L492.252 238.472C492.252 238.472 493.421 252.019 508.322 249.343C512.713 248.507 516.864 246.706 520.475 244.071C524.085 241.435 527.066 238.031 529.201 234.103L531.436 192.65C531.521 190.957 525.103 183.608 526.813 168.487C521.705 167.961 516.763 166.378 512.299 163.839C507.836 161.3 503.95 157.86 500.888 153.738C500.888 153.738 493.979 162.204 491.067 164.897C488.748 166.889 486.688 169.164 484.937 171.67C480.348 178.613 479.857 188.18 480.958 196.105C481.906 202.573 486.359 214.799 494.64 214.63Z" fill="white"/>
<path d="M504.614 250.613C501.717 250.704 498.873 249.822 496.536 248.107C493.68 245.715 491.86 242.311 491.456 238.608L493.742 215.511C485.767 214.816 481.195 203.454 480.196 196.139C479.383 190.348 478.824 179.409 484.31 171.111C486.102 168.596 488.207 166.32 490.576 164.338C493.387 161.781 500.228 153.348 500.296 153.264C500.385 153.164 500.494 153.085 500.617 153.032C500.74 152.98 500.873 152.955 501.007 152.959C501.138 152.967 501.266 153.004 501.38 153.069C501.494 153.133 501.593 153.223 501.667 153.331C504.668 157.318 508.456 160.645 512.796 163.107C517.136 165.568 521.936 167.111 526.898 167.64C527.011 167.649 527.121 167.683 527.221 167.738C527.32 167.794 527.406 167.87 527.474 167.962C527.542 168.046 527.592 168.144 527.621 168.249C527.651 168.354 527.658 168.464 527.643 168.571C526.664 175.912 527.94 183.376 531.3 189.975C531.825 190.8 532.161 191.731 532.283 192.701L530.014 234.086C530.031 234.193 530.031 234.302 530.014 234.408C527.843 238.482 524.783 242.015 521.06 244.744C517.337 247.474 513.047 249.329 508.508 250.173C507.225 250.433 505.922 250.58 504.614 250.613ZM493.116 238.625C493.56 241.791 495.143 244.687 497.569 246.769C500.194 248.768 503.767 249.377 508.186 248.564C512.417 247.728 516.412 245.974 519.891 243.426C523.37 240.877 526.247 237.597 528.32 233.815L530.555 192.532C530.34 191.877 530.068 191.243 529.743 190.635C526.355 184.013 525 176.537 525.848 169.147C515.974 167.921 506.979 162.86 500.804 155.059C497.918 158.679 494.85 162.149 491.609 165.456C489.347 167.37 487.333 169.561 485.614 171.975C480.45 179.798 480.992 190.28 481.77 195.834C482.6 201.727 486.85 213.783 494.454 213.783H494.606C494.723 213.784 494.839 213.808 494.947 213.854C495.055 213.901 495.152 213.969 495.232 214.054C495.312 214.144 495.373 214.248 495.411 214.362C495.448 214.475 495.463 214.595 495.453 214.715L493.065 238.557L493.116 238.625Z" fill="#231F20"/>
<path d="M504.614 173.685C504.614 173.685 495.876 184.421 497.502 186.588C499.127 188.756 504.377 187.909 504.377 187.909" fill="white"/>
<path d="M502.107 188.925C501.147 189.023 500.176 188.91 499.264 188.594C498.351 188.278 497.519 187.767 496.824 187.096C494.978 184.658 501.193 176.53 503.953 173.143C504.095 172.971 504.299 172.862 504.521 172.84C504.743 172.818 504.965 172.884 505.138 173.025C505.225 173.094 505.298 173.18 505.351 173.277C505.404 173.375 505.437 173.482 505.449 173.592C505.46 173.703 505.448 173.814 505.415 173.921C505.382 174.027 505.329 174.125 505.257 174.21C500.956 179.51 497.569 185.149 498.162 186.063C499.246 187.486 503.005 187.249 504.224 187.046C504.446 187.016 504.67 187.074 504.85 187.206C505.03 187.339 505.152 187.536 505.189 187.757C505.209 187.866 505.206 187.978 505.181 188.086C505.157 188.194 505.11 188.296 505.046 188.386C504.981 188.476 504.899 188.552 504.804 188.61C504.71 188.667 504.605 188.706 504.495 188.722C503.705 188.848 502.907 188.916 502.107 188.925Z" fill="#231F20"/>
<path d="M494.901 176.543C495.083 175.181 494.645 173.998 493.922 173.901C493.199 173.804 492.465 174.83 492.283 176.193C492.101 177.556 492.539 178.739 493.262 178.835C493.985 178.932 494.719 177.906 494.901 176.543Z" fill="#231F20"/>
<path d="M516.844 175.843C516.86 174.468 516.282 173.347 515.552 173.338C514.823 173.33 514.219 174.437 514.202 175.812C514.186 177.186 514.765 178.308 515.494 178.316C516.223 178.325 516.828 177.217 516.844 175.843Z" fill="#231F20"/>
<path d="M524.544 183.456C525.068 181.412 525.976 179.487 527.219 177.783C527.923 176.803 528.852 176.007 529.927 175.462C531.003 174.917 532.194 174.639 533.4 174.65C534.141 174.678 534.866 174.874 535.52 175.223C536.174 175.572 536.741 176.065 537.176 176.665C537.707 177.53 538.037 178.502 538.141 179.51C538.92 184.827 537.159 191.719 532.164 194.462C531.324 194.997 530.349 195.282 529.353 195.282C528.357 195.282 527.382 194.997 526.542 194.462" fill="white"/>
<path d="M529.014 196.156C527.942 196.189 526.89 195.854 526.034 195.207C525.93 195.147 525.84 195.066 525.77 194.968C525.699 194.871 525.651 194.759 525.627 194.641C525.603 194.524 525.605 194.402 525.632 194.285C525.659 194.168 525.71 194.058 525.783 193.962C525.856 193.866 525.948 193.787 526.053 193.73C526.159 193.672 526.276 193.638 526.396 193.63C526.515 193.621 526.636 193.638 526.749 193.679C526.862 193.721 526.964 193.786 527.05 193.87C527.772 194.283 528.594 194.488 529.425 194.461C530.257 194.434 531.064 194.176 531.758 193.717C536.397 191.177 538.057 184.709 537.312 179.629C537.211 178.75 536.928 177.903 536.482 177.14C536.124 176.64 535.658 176.228 535.119 175.935C534.579 175.642 533.98 175.475 533.366 175.446C532.295 175.447 531.238 175.703 530.285 176.191C529.331 176.68 528.507 177.388 527.88 178.257C526.711 179.885 525.855 181.717 525.357 183.659C525.29 183.871 525.143 184.049 524.946 184.154C524.75 184.258 524.52 184.281 524.307 184.218C524.199 184.189 524.098 184.138 524.01 184.069C523.922 184 523.849 183.914 523.795 183.816C523.741 183.717 523.708 183.61 523.697 183.498C523.686 183.387 523.698 183.275 523.731 183.168C524.293 181.025 525.246 179.004 526.542 177.207C527.339 176.131 528.382 175.262 529.584 174.672C530.786 174.083 532.112 173.791 533.451 173.821C534.323 173.855 535.176 174.088 535.945 174.502C536.714 174.915 537.378 175.499 537.887 176.208C538.485 177.181 538.861 178.274 538.988 179.409C539.818 185.064 537.887 192.312 532.57 195.224C531.48 195.823 530.258 196.143 529.014 196.156Z" fill="#231F20"/>
<path d="M449.631 325.374C449.41 325.369 449.198 325.278 449.043 325.12C448.888 324.962 448.801 324.749 448.801 324.527C448.801 322.834 458.504 270.916 459.605 265.007C459.625 264.896 459.667 264.791 459.729 264.697C459.79 264.603 459.869 264.522 459.962 264.459C460.055 264.396 460.16 264.352 460.27 264.329C460.38 264.307 460.494 264.307 460.604 264.329C460.825 264.374 461.02 264.504 461.146 264.691C461.273 264.877 461.321 265.106 461.281 265.328C456.98 288.273 450.546 322.986 450.495 324.595C450.474 324.809 450.373 325.008 450.214 325.152C450.054 325.296 449.846 325.375 449.631 325.374Z" fill="#231F20"/>
<path d="M545.66 329.15C545.435 329.15 545.22 329.061 545.061 328.902C544.902 328.744 544.813 328.528 544.813 328.304V262.839C544.813 262.615 544.902 262.399 545.061 262.241C545.22 262.082 545.435 261.993 545.66 261.993C545.884 261.993 546.1 262.082 546.259 262.241C546.417 262.399 546.506 262.615 546.506 262.839V328.304C546.506 328.528 546.417 328.744 546.259 328.902C546.1 329.061 545.884 329.15 545.66 329.15Z" fill="#231F20"/>
<path d="M513.08 190.991L493.607 192.837C493.607 192.837 493.607 206.722 501.853 205.808C510.1 204.893 512.437 199.542 513.08 190.991Z" fill="white"/>
<path d="M501.057 206.705C499.488 206.725 497.97 206.15 496.807 205.096C492.794 201.524 492.726 193.243 492.726 192.837C492.721 192.625 492.797 192.419 492.939 192.262C493.081 192.105 493.277 192.007 493.488 191.99L512.962 190.144C513.084 190.137 513.207 190.156 513.322 190.199C513.437 190.242 513.542 190.309 513.63 190.395C513.718 190.481 513.786 190.585 513.832 190.699C513.877 190.813 513.898 190.936 513.893 191.059C513.351 198.526 511.539 205.571 501.904 206.654L501.057 206.705ZM494.453 193.599C494.572 195.665 495.148 201.337 497.959 203.759C498.463 204.219 499.064 204.559 499.718 204.756C500.371 204.952 501.06 204.999 501.735 204.893C508.356 204.165 511.336 200.474 512.132 191.872L494.453 193.599Z" fill="#231F20"/>
<path d="M494.64 214.63C502.436 214.793 510.182 213.352 517.398 210.396C517.398 210.396 503.97 226.619 493.573 232.613L494.64 214.63Z" fill="#231F20"/>
<path d="M493.573 233.46C493.456 233.465 493.339 233.446 493.23 233.402C493.122 233.358 493.024 233.291 492.943 233.206C492.863 233.121 492.802 233.019 492.765 232.908C492.727 232.797 492.714 232.679 492.726 232.562L493.793 214.579C493.811 214.356 493.914 214.149 494.081 214C494.249 213.852 494.467 213.774 494.691 213.783C502.352 213.925 509.963 212.508 517.06 209.618C517.235 209.536 517.434 209.516 517.622 209.563C517.81 209.61 517.977 209.719 518.094 209.874C518.211 210.029 518.271 210.219 518.265 210.412C518.258 210.606 518.186 210.792 518.059 210.939C517.5 211.599 504.41 227.347 493.996 233.358C493.865 233.424 493.72 233.459 493.573 233.46ZM495.436 215.494L494.504 231.055C501.904 226.28 510.54 216.95 514.537 212.429C508.383 214.502 501.929 215.537 495.436 215.494Z" fill="#231F20"/>
<path d="M484.294 286.614C484.065 286.613 483.845 286.522 483.684 286.36L468.105 269.985C468.021 269.896 467.957 269.788 467.919 269.671C467.881 269.554 467.869 269.43 467.885 269.308C467.894 269.186 467.93 269.067 467.992 268.961C468.053 268.856 468.139 268.766 468.241 268.698L482.837 258.708L468.224 247.853C468.112 247.777 468.021 247.675 467.957 247.555C467.894 247.436 467.861 247.303 467.861 247.167C467.861 247.032 467.894 246.899 467.957 246.78C468.021 246.66 468.112 246.558 468.224 246.482L485.682 234.442C485.772 234.363 485.878 234.305 485.992 234.27C486.107 234.235 486.227 234.225 486.346 234.24C486.465 234.255 486.579 234.295 486.681 234.358C486.783 234.42 486.871 234.504 486.938 234.602C487.006 234.701 487.051 234.813 487.072 234.931C487.093 235.049 487.089 235.17 487.06 235.286C487.031 235.402 486.978 235.51 486.904 235.604C486.83 235.698 486.736 235.775 486.63 235.831L470.12 247.227L484.751 258.098C484.863 258.174 484.953 258.278 485.012 258.4C485.072 258.522 485.098 258.657 485.089 258.792C485.089 258.925 485.056 259.056 484.994 259.174C484.932 259.292 484.843 259.393 484.734 259.47L469.968 269.63L484.869 285.293C484.948 285.37 485.011 285.462 485.054 285.564C485.096 285.666 485.118 285.775 485.118 285.886C485.118 285.996 485.096 286.105 485.054 286.207C485.011 286.309 484.948 286.401 484.869 286.478C484.702 286.596 484.496 286.644 484.294 286.614Z" fill="#231F20"/>
<path d="M514.028 287.765C513.881 287.763 513.737 287.722 513.609 287.648C513.482 287.574 513.375 287.469 513.3 287.342C513.189 287.148 513.159 286.919 513.216 286.703C513.273 286.488 513.413 286.303 513.605 286.19L536.55 272.508L523.901 258.149C523.818 258.049 523.758 257.931 523.726 257.806C523.694 257.68 523.69 257.548 523.714 257.421C523.736 257.29 523.791 257.166 523.874 257.063C523.957 256.959 524.065 256.878 524.188 256.828L540.055 249.411L530.809 239.37C530.716 239.292 530.641 239.196 530.588 239.088C530.536 238.979 530.507 238.86 530.504 238.739C530.501 238.618 530.524 238.498 530.571 238.387C530.618 238.276 530.689 238.176 530.778 238.094C530.867 238.013 530.972 237.951 531.087 237.914C531.202 237.876 531.323 237.863 531.444 237.877C531.564 237.89 531.679 237.929 531.783 237.991C531.887 238.053 531.977 238.136 532.045 238.235L542.087 249.123C542.179 249.218 542.247 249.334 542.285 249.461C542.324 249.587 542.331 249.721 542.307 249.851C542.277 249.981 542.219 250.103 542.138 250.209C542.056 250.314 541.952 250.4 541.833 250.461L525.916 257.878L538.497 272.153C538.58 272.246 538.641 272.357 538.677 272.477C538.712 272.597 538.72 272.723 538.7 272.847C538.676 272.968 538.628 273.083 538.558 273.185C538.488 273.287 538.398 273.373 538.294 273.44L514.469 287.647C514.336 287.727 514.183 287.768 514.028 287.765Z" fill="#231F20"/>
<path d="M611.006 328.303H190.534V414.816H611.006V328.303Z" fill="white"/>
<path d="M611.006 415.595H190.534C190.33 415.595 190.135 415.515 189.989 415.373C189.843 415.23 189.759 415.036 189.755 414.833V328.303C189.759 328.098 189.843 327.902 189.988 327.757C190.133 327.612 190.329 327.529 190.534 327.524H611.006C611.209 327.529 611.403 327.613 611.546 327.758C611.688 327.904 611.768 328.1 611.768 328.303V414.867C611.759 415.063 611.675 415.248 611.533 415.384C611.391 415.519 611.202 415.595 611.006 415.595ZM191.347 414.054H610.227V329.082H191.347V414.054Z" fill="#231F20"/>
<path d="M611.006 414.833H190.534V432.037H611.006V414.833Z" fill="white"/>
<path d="M611.006 432.816H190.534C190.329 432.812 190.133 432.728 189.988 432.583C189.843 432.438 189.759 432.242 189.755 432.037V414.867C189.755 414.66 189.837 414.462 189.983 414.316C190.129 414.17 190.327 414.088 190.534 414.088H611.006C611.107 414.088 611.208 414.108 611.301 414.147C611.395 414.187 611.48 414.244 611.551 414.317C611.622 414.389 611.677 414.475 611.715 414.57C611.752 414.664 611.77 414.765 611.768 414.867V432.071C611.759 432.269 611.676 432.456 611.534 432.594C611.392 432.732 611.204 432.812 611.006 432.816ZM191.347 431.258H610.227V415.595H191.347V431.258Z" fill="#231F20"/>
<path d="M335.128 371.06C335.128 371.06 367.86 355.464 370.095 354.855C374.074 353.788 361.544 341.122 357.581 341.427C353.619 341.731 341.105 345.389 341.105 345.389C341.105 345.389 339.547 341.427 337.414 341.427C335.28 341.427 324.595 351.011 324.595 351.011L335.128 371.06Z" fill="white"/>
<path d="M335.128 371.906C334.974 371.905 334.823 371.862 334.692 371.781C334.56 371.701 334.454 371.586 334.383 371.449L323.833 351.417C323.749 351.248 323.722 351.056 323.756 350.87C323.789 350.684 323.882 350.514 324.02 350.384C326.593 348.081 335.128 340.58 337.414 340.58C339.7 340.58 340.97 343.086 341.579 344.373C346.806 342.775 352.128 341.508 357.514 340.58C361.442 340.292 371.06 349.521 371.67 353.381C371.738 353.622 371.757 353.873 371.726 354.121C371.694 354.369 371.612 354.608 371.486 354.823C371.359 355.038 371.19 355.226 370.989 355.374C370.788 355.522 370.559 355.627 370.315 355.684C368.724 356.108 348.624 365.573 335.483 371.822C335.372 371.874 335.251 371.902 335.128 371.906ZM325.645 351.214L335.5 369.942C341.139 367.25 367.674 354.618 369.875 354.042C370.01 354.042 370.197 353.5 369.198 351.891C366.539 347.675 359.85 342.053 357.649 342.256C353.805 342.561 341.478 346.168 341.342 346.202C341.14 346.262 340.923 346.243 340.734 346.149C340.545 346.054 340.399 345.892 340.326 345.694C339.886 344.576 338.633 342.307 337.414 342.307C336.195 342.307 330.522 346.879 325.645 351.214Z" fill="#231F20"/>
<path d="M312.115 350.909C313.335 350.909 324.714 347.76 324.714 347.76L338.074 372.296L322.191 379.307L312.115 350.909Z" fill="#231F20"/>
<path d="M92.9302 421.166C92.9302 421.166 86.0552 275.793 123.173 256.066C134.722 249.919 227.889 245.736 249.885 264.245C271.882 282.753 273.711 358.038 273.711 358.038L314.605 348.352L330.979 378.02C330.979 378.02 270.713 405.723 259.199 411.09C239.488 420.251 92.9302 421.166 92.9302 421.166Z" fill="#42A69B"/>
<path d="M217.729 358.394C217.503 358.372 217.294 358.263 217.148 358.088C217.002 357.914 216.931 357.689 216.95 357.463L224.502 274.879C224.511 274.767 224.541 274.659 224.592 274.559C224.643 274.46 224.712 274.371 224.797 274.299C224.882 274.227 224.981 274.172 225.087 274.138C225.193 274.103 225.305 274.091 225.417 274.1C225.528 274.11 225.636 274.143 225.735 274.196C225.834 274.248 225.921 274.32 225.992 274.407C226.063 274.493 226.116 274.593 226.148 274.7C226.18 274.807 226.19 274.92 226.179 275.031L218.643 357.632C218.635 357.743 218.604 357.85 218.553 357.949C218.503 358.048 218.432 358.135 218.347 358.206C218.262 358.277 218.163 358.33 218.057 358.363C217.951 358.395 217.839 358.406 217.729 358.394Z" fill="#231F20"/>
<path d="M194.141 280.433H109.609C103.445 280.432 97.3524 281.748 91.7385 284.294C86.1245 286.839 81.1193 290.555 77.058 295.192C72.9967 299.829 69.9731 305.28 68.1897 311.18C66.4063 317.081 65.9043 323.294 66.7174 329.404L80.3656 432.037H252.188L236.948 318.008C235.567 307.625 230.468 298.096 222.597 291.186C214.725 284.277 204.615 280.456 194.141 280.433Z" fill="#231F20"/>
<path d="M282.787 383.557C288.239 383.557 288.239 375.09 282.787 375.09C277.334 375.09 277.334 383.557 282.787 383.557Z" fill="#42A69B"/>
<path d="M284.006 383.557C289.459 383.557 289.459 375.09 284.006 375.09C278.554 375.09 278.554 383.557 284.006 383.557Z" fill="#42A69B"/>
<path d="M573.854 342.951H515.366V397.036H573.854V342.951Z" fill="white"/>
<path d="M573.854 397.933H515.366C515.141 397.933 514.926 397.844 514.767 397.685C514.609 397.526 514.519 397.311 514.519 397.087V342.951C514.519 342.726 514.609 342.511 514.767 342.352C514.926 342.193 515.141 342.104 515.366 342.104H573.854C574.078 342.104 574.294 342.193 574.452 342.352C574.611 342.511 574.7 342.726 574.7 342.951V397.036C574.707 397.151 574.691 397.267 574.651 397.375C574.612 397.484 574.55 397.583 574.471 397.668C574.392 397.752 574.296 397.819 574.19 397.864C574.084 397.91 573.969 397.933 573.854 397.933ZM516.28 396.24H573.075V343.747H516.213L516.28 396.24Z" fill="#D1D3D4"/>
<path d="M567.572 339.801H509.084V393.886H567.572V339.801Z" fill="white"/>
<path d="M567.572 394.733H509.084C508.86 394.733 508.644 394.644 508.485 394.485C508.327 394.326 508.237 394.111 508.237 393.886V339.801C508.237 339.576 508.327 339.361 508.485 339.202C508.644 339.044 508.86 338.954 509.084 338.954H567.572C567.796 338.954 568.012 339.044 568.17 339.202C568.329 339.361 568.418 339.576 568.418 339.801V393.886C568.418 393.997 568.397 394.107 568.354 394.21C568.311 394.313 568.249 394.406 568.17 394.485C568.092 394.563 567.999 394.626 567.896 394.668C567.793 394.711 567.683 394.733 567.572 394.733ZM509.998 393.039H566.793V340.648H509.931L509.998 393.039Z" fill="#D1D3D4"/>
<path d="M423.418 100.042H253.136C249.695 100.042 246.905 102.832 246.905 106.274V216.933C246.905 220.374 249.695 223.164 253.136 223.164H423.418C426.86 223.164 429.649 220.374 429.649 216.933V106.274C429.649 102.832 426.86 100.042 423.418 100.042Z" fill="white"/>
<path d="M423.333 224.011H253.137C251.259 224.011 249.459 223.265 248.132 221.938C246.804 220.61 246.058 218.81 246.058 216.933V106.274C246.058 104.396 246.804 102.596 248.132 101.269C249.459 99.9412 251.259 99.1954 253.137 99.1954H423.333C425.211 99.1954 427.011 99.9412 428.338 101.269C429.666 102.596 430.412 104.396 430.412 106.274V216.933C430.412 218.81 429.666 220.61 428.338 221.938C427.011 223.265 425.211 224.011 423.333 224.011ZM253.137 100.889C251.708 100.889 250.339 101.456 249.329 102.466C248.319 103.476 247.752 104.845 247.752 106.274V216.933C247.752 218.361 248.319 219.731 249.329 220.741C250.339 221.75 251.708 222.318 253.137 222.318H423.333C424.762 222.318 426.131 221.75 427.141 220.741C428.151 219.731 428.718 218.361 428.718 216.933V106.274C428.718 104.845 428.151 103.476 427.141 102.466C426.131 101.456 424.762 100.889 423.333 100.889H253.137Z" fill="#D1D3D4"/>
<path d="M420.946 109.525H255.609V213.682H420.946V109.525Z" fill="white"/>
<path d="M420.946 214.528H255.693C255.469 214.528 255.254 214.439 255.095 214.28C254.936 214.122 254.847 213.906 254.847 213.682V109.525C254.847 109.3 254.936 109.085 255.095 108.926C255.254 108.767 255.469 108.678 255.693 108.678H421.031C421.255 108.678 421.47 108.767 421.629 108.926C421.788 109.085 421.877 109.3 421.877 109.525V213.682C421.878 213.8 421.853 213.918 421.806 214.027C421.758 214.135 421.688 214.233 421.6 214.312C421.512 214.392 421.409 214.453 421.296 214.49C421.183 214.527 421.064 214.54 420.946 214.528ZM256.455 212.835H420.099V110.371H256.455V212.835Z" fill="#D1D3D4"/>
<path d="M281.178 156.718C284.152 156.718 286.563 154.307 286.563 151.333C286.563 148.359 284.152 145.948 281.178 145.948C278.204 145.948 275.793 148.359 275.793 151.333C275.793 154.307 278.204 156.718 281.178 156.718Z" fill="white"/>
<path d="M281.178 157.565C279.946 157.565 278.741 157.199 277.716 156.514C276.691 155.83 275.893 154.856 275.421 153.718C274.949 152.579 274.826 151.326 275.066 150.117C275.307 148.909 275.9 147.798 276.772 146.927C277.643 146.055 278.754 145.462 279.962 145.221C281.171 144.981 282.424 145.104 283.563 145.576C284.701 146.048 285.675 146.846 286.359 147.871C287.044 148.896 287.41 150.101 287.41 151.333C287.41 152.986 286.753 154.571 285.584 155.739C284.416 156.908 282.831 157.565 281.178 157.565ZM281.178 146.795C280.281 146.795 279.403 147.061 278.657 147.56C277.911 148.058 277.329 148.767 276.985 149.596C276.642 150.426 276.552 151.338 276.727 152.219C276.902 153.099 277.335 153.907 277.969 154.542C278.604 155.177 279.412 155.609 280.293 155.784C281.173 155.959 282.086 155.869 282.915 155.526C283.744 155.182 284.453 154.601 284.951 153.854C285.45 153.108 285.716 152.231 285.716 151.333C285.716 150.13 285.238 148.975 284.387 148.124C283.536 147.273 282.382 146.795 281.178 146.795Z" fill="#D1D3D4"/>
<path d="M368.503 152.18H297.925C297.701 152.18 297.485 152.091 297.327 151.932C297.168 151.773 297.079 151.558 297.079 151.333C297.079 151.109 297.168 150.893 297.327 150.734C297.485 150.576 297.701 150.486 297.925 150.486H368.503C368.728 150.486 368.943 150.576 369.102 150.734C369.261 150.893 369.35 151.109 369.35 151.333C369.35 151.558 369.261 151.773 369.102 151.932C368.943 152.091 368.728 152.18 368.503 152.18Z" fill="#D1D3D4"/>
<path d="M281.178 175.785C284.152 175.785 286.563 173.374 286.563 170.4C286.563 167.426 284.152 165.015 281.178 165.015C278.204 165.015 275.793 167.426 275.793 170.4C275.793 173.374 278.204 175.785 281.178 175.785Z" fill="white"/>
<path d="M281.178 176.615C279.945 176.615 278.739 176.249 277.714 175.563C276.689 174.878 275.891 173.904 275.419 172.764C274.948 171.624 274.826 170.371 275.068 169.161C275.309 167.952 275.905 166.842 276.778 165.971C277.651 165.1 278.763 164.508 279.973 164.269C281.183 164.031 282.436 164.157 283.575 164.631C284.713 165.105 285.685 165.907 286.368 166.934C287.05 167.961 287.413 169.167 287.41 170.4C287.405 172.05 286.747 173.631 285.578 174.796C284.41 175.96 282.828 176.615 281.178 176.615ZM281.178 165.862C280.281 165.862 279.403 166.128 278.657 166.627C277.911 167.125 277.329 167.834 276.985 168.663C276.642 169.493 276.552 170.405 276.727 171.285C276.902 172.166 277.334 172.974 277.969 173.609C278.604 174.244 279.412 174.676 280.293 174.851C281.173 175.026 282.086 174.936 282.915 174.593C283.744 174.249 284.453 173.668 284.951 172.921C285.45 172.175 285.716 171.298 285.716 170.4C285.694 169.211 285.206 168.079 284.357 167.246C283.509 166.413 282.367 165.946 281.178 165.947V165.862Z" fill="#D1D3D4"/>
<path d="M400.575 171.247H297.925C297.702 171.242 297.489 171.152 297.331 170.994C297.174 170.836 297.083 170.623 297.079 170.4C297.079 170.175 297.168 169.96 297.327 169.801C297.485 169.643 297.701 169.553 297.925 169.553H400.575C400.8 169.553 401.015 169.643 401.174 169.801C401.333 169.96 401.422 170.175 401.422 170.4C401.418 170.623 401.327 170.836 401.169 170.994C401.011 171.152 400.798 171.242 400.575 171.247Z" fill="#D1D3D4"/>
<path d="M281.178 194.835C284.152 194.835 286.563 192.424 286.563 189.45C286.563 186.476 284.152 184.065 281.178 184.065C278.204 184.065 275.793 186.476 275.793 189.45C275.793 192.424 278.204 194.835 281.178 194.835Z" fill="white"/>
<path d="M281.178 195.682C279.946 195.682 278.741 195.316 277.716 194.631C276.691 193.947 275.893 192.973 275.421 191.835C274.949 190.696 274.826 189.443 275.066 188.234C275.307 187.026 275.9 185.915 276.772 185.044C277.643 184.172 278.754 183.579 279.962 183.338C281.171 183.098 282.424 183.221 283.563 183.693C284.701 184.165 285.675 184.963 286.359 185.988C287.044 187.013 287.41 188.218 287.41 189.45C287.41 191.103 286.753 192.688 285.584 193.856C284.416 195.025 282.831 195.682 281.178 195.682ZM281.178 184.929C280.28 184.929 279.402 185.195 278.655 185.695C277.908 186.194 277.327 186.904 276.984 187.734C276.641 188.565 276.552 189.478 276.728 190.359C276.905 191.239 277.339 192.048 277.975 192.682C278.612 193.316 279.422 193.747 280.303 193.92C281.185 194.093 282.098 194.001 282.927 193.655C283.755 193.309 284.463 192.724 284.96 191.976C285.456 191.227 285.72 190.348 285.716 189.45C285.712 188.249 285.232 187.099 284.381 186.252C283.531 185.405 282.379 184.929 281.178 184.929Z" fill="#D1D3D4"/>
<path d="M389.111 190.297H297.925C297.701 190.297 297.485 190.207 297.327 190.049C297.168 189.89 297.079 189.674 297.079 189.45C297.083 189.227 297.174 189.014 297.331 188.856C297.489 188.698 297.702 188.608 297.925 188.603H389.111C389.336 188.603 389.551 188.692 389.71 188.851C389.869 189.01 389.958 189.225 389.958 189.45C389.958 189.674 389.869 189.89 389.71 190.049C389.551 190.207 389.336 190.297 389.111 190.297Z" fill="#D1D3D4"/>
<path d="M257.336 219.862C258.225 219.862 258.945 219.142 258.945 218.254C258.945 217.365 258.225 216.645 257.336 216.645C256.448 216.645 255.727 217.365 255.727 218.254C255.727 219.142 256.448 219.862 257.336 219.862Z" fill="#D1D3D4"/>
<path d="M263.466 219.862C264.354 219.862 265.075 219.142 265.075 218.254C265.075 217.365 264.354 216.645 263.466 216.645C262.577 216.645 261.857 217.365 261.857 218.254C261.857 219.142 262.577 219.862 263.466 219.862Z" fill="#D1D3D4"/>
<path d="M327.017 123.071H275.81V131.013H327.017V123.071Z" fill="#D1D3D4"/>
</g>
<defs>
<clipPath id="clip0_0_1">
<rect width="1920" height="3228" fill="white" transform="translate(-1027 -2015)"/>
</clipPath>
</defs>
</svg>
